<svg width="528" height="309" viewBox="0 0 528 309" fill="none" xmlns="http://www.w3.org/2000/svg">
<g id="Car">
<g id="freepik--background-complete--inject-19">
<path id="Vector" d="M136.091 50.3197C129.231 50.3197 13.8431 51.1057 6.59792 50.8463C6.47584 50.8457 6.35731 50.8052 6.26047 50.731C6.16362 50.6567 6.0938 50.5528 6.06167 50.4351C6.02955 50.3174 6.0369 50.1925 6.0826 50.0794C6.1283 49.9663 6.20984 49.8712 6.31472 49.8088C10.8853 47.553 16.0694 48.001 20.8209 46.4054C23.6135 45.4622 25.3285 43.6387 27.2715 41.5401C28.8766 39.7082 30.9521 38.3492 33.2738 37.6101C35.3963 36.9683 37.65 36.8924 39.811 37.39C42.171 37.9481 44.1849 39.2843 46.419 40.1331C51.965 42.2239 57.3458 40.2353 61.3027 36.1403C64.5674 32.7605 67.777 29.5693 72.2138 27.7536C75.9347 26.2288 80.0805 25.9144 83.7778 27.5964C88.01 29.5064 90.9129 33.3657 94.8855 35.6765C99.6055 38.4354 105.238 37.783 110.438 38.6083C115.638 39.4336 119.642 43.8195 124.205 46.3425C125.69 47.3093 127.412 47.8529 129.184 47.9145C130.2 47.8243 131.211 47.6827 132.213 47.4901C133.786 47.2936 135.281 47.3408 136.335 48.6455C136.595 48.9678 136.54 50.3197 136.091 50.3197Z" fill="#EBEBEB"/>
<path id="Vector_2" d="M527.671 58.3762C522.667 58.3762 438.423 58.9264 433.129 58.7613C432.751 58.7613 432.547 58.1876 432.924 57.9753C436.26 56.3247 440.044 56.6549 443.513 55.4916C445.558 54.7999 446.809 53.4716 448.233 51.9389C449.405 50.6058 450.921 49.619 452.615 49.0857C454.165 48.6165 455.813 48.5649 457.39 48.9363C459.097 49.3372 460.584 50.3197 462.212 50.9328C466.256 52.4576 470.189 51.0114 473.084 48.0167C475.444 45.5487 477.804 43.2221 481.045 41.8938C482.369 41.2977 483.801 40.9797 485.253 40.9594C486.705 40.9391 488.146 41.217 489.486 41.7759C492.577 43.175 494.694 45.9888 497.596 47.6866C501.042 49.6909 505.156 49.2586 508.956 49.8245C512.755 50.3904 515.674 53.6288 519.002 55.468C520.089 56.1637 521.345 56.5521 522.636 56.592C523.38 56.5262 524.121 56.4213 524.854 56.2776C525.995 56.1361 527.088 56.1754 527.859 57.1265C528.04 57.3858 528.001 58.3762 527.671 58.3762Z" fill="#EBEBEB"/>
<path id="Vector_3" d="M253.674 77.0909C248.671 77.0909 164.427 77.6411 159.133 77.476C158.755 77.476 158.551 76.9022 158.928 76.69C162.264 75.0394 166.008 75.3774 169.517 74.2062C171.562 73.5224 172.813 72.1862 174.237 70.6535C175.411 69.322 176.925 68.3355 178.619 67.8003C180.169 67.3311 181.817 67.2796 183.394 67.651C185.101 68.0519 186.588 69.0344 188.216 69.6474C192.267 71.1723 196.201 69.726 199.088 66.7314C201.448 64.2712 203.808 61.9368 207.057 60.6084C208.379 60.012 209.811 59.6944 211.262 59.6755C212.713 59.6565 214.152 59.9367 215.49 60.4984C218.581 61.8975 220.705 64.7035 223.608 66.4013C227.046 68.4056 231.16 67.934 234.96 68.5392C238.759 69.1444 241.678 72.3434 245.013 74.1827C246.1 74.8794 247.357 75.2679 248.648 75.3066C249.387 75.3066 250.119 75.0866 250.858 75.0001C252.007 74.8586 253.092 74.8901 253.863 75.8411C254.044 76.1005 254.005 77.0909 253.674 77.0909Z" fill="#EBEBEB"/>
<path id="Vector_4" d="M349.404 111.4C344.401 111.4 260.157 111.95 254.862 111.785C254.485 111.785 254.28 111.211 254.658 110.999C257.993 109.348 261.777 109.678 265.246 108.507C267.284 107.823 268.542 106.487 269.966 104.962C271.136 103.624 272.652 102.634 274.348 102.101C275.899 101.632 277.546 101.581 279.123 101.952C280.83 102.361 282.317 103.335 283.945 103.948C287.989 105.481 291.922 104.027 294.817 101.032C297.177 98.5722 299.537 96.2457 302.778 94.9173C304.102 94.3195 305.534 94.0004 306.986 93.9801C308.439 93.9599 309.88 94.2388 311.219 94.7994C314.311 96.1985 316.427 99.0124 319.33 100.702C322.775 102.707 326.89 102.235 330.689 102.84C334.489 103.445 337.407 106.644 340.735 108.484C341.819 109.186 343.077 109.575 344.369 109.608C345.156 109.608 345.848 109.388 346.588 109.301C347.728 109.16 348.822 109.191 349.593 110.142C349.774 110.409 349.734 111.4 349.404 111.4Z" fill="#EBEBEB"/>
<path id="Vector_5" d="M422.343 21.222C422.249 21.5049 289.57 21.222 291.245 21.222C292.032 21.222 290.081 20.0823 290.828 19.7207C295.147 17.5749 299.875 17.5121 304.579 17.0798C307.325 16.8361 310.141 16.4352 312.611 15.1383C315.081 13.8414 316.67 11.5542 318.448 9.45556C321.184 6.22062 324.7 3.73568 328.664 2.23529C332.628 0.734903 336.91 0.268569 341.104 0.880305C350.544 2.35798 357.97 9.5263 367.426 10.8625C373.098 11.6485 378.439 9.45556 384.017 8.68528C388.587 8.04862 392.387 8.9368 396.478 10.9647C399.467 12.4424 402.236 13.6921 405.619 13.9279C408.215 14.1087 410.826 13.81 413.43 13.7864C417.693 13.8647 421.781 15.4972 424.923 18.3767C425.34 18.7461 426.693 21.222 422.343 21.222Z" fill="#EBEBEB"/>
<path id="Vector_6" d="M427.999 31.2749H384.001V261.707H427.999V31.2749Z" fill="#DBDBDB"/>
<path id="Vector_7" d="M399.38 38.7576H390.829V47.553H399.38V38.7576Z" fill="#EBEBEB"/>
<path id="Vector_8" d="M410.323 38.7576H401.772V47.553H410.323V38.7576Z" fill="#EBEBEB"/>
<path id="Vector_9" d="M399.38 53.6995H390.829V62.4948H399.38V53.6995Z" fill="#EBEBEB"/>
<path id="Vector_10" d="M410.323 53.6995H401.772V62.4948H410.323V53.6995Z" fill="#EBEBEB"/>
<path id="Vector_11" d="M399.38 68.6335H390.829V77.4288H399.38V68.6335Z" fill="#EBEBEB"/>
<path id="Vector_12" d="M410.323 68.6335H401.772V77.4288H410.323V68.6335Z" fill="#EBEBEB"/>
<path id="Vector_13" d="M399.38 83.5754H390.829V92.3707H399.38V83.5754Z" fill="#EBEBEB"/>
<path id="Vector_14" d="M410.323 83.5754H401.772V92.3707H410.323V83.5754Z" fill="#EBEBEB"/>
<path id="Vector_15" d="M399.38 98.5094H390.829V107.305H399.38V98.5094Z" fill="#EBEBEB"/>
<path id="Vector_16" d="M410.323 98.5094H401.772V107.305H410.323V98.5094Z" fill="#EBEBEB"/>
<path id="Vector_17" d="M399.38 113.451H390.829V122.247H399.38V113.451Z" fill="#EBEBEB"/>
<path id="Vector_18" d="M410.323 113.451H401.772V122.247H410.323V113.451Z" fill="#EBEBEB"/>
<path id="Vector_19" d="M399.38 128.385H390.829V137.181H399.38V128.385Z" fill="#EBEBEB"/>
<path id="Vector_20" d="M410.323 128.385H401.772V137.181H410.323V128.385Z" fill="#EBEBEB"/>
<path id="Vector_21" d="M399.38 143.327H390.829V152.122H399.38V143.327Z" fill="#EBEBEB"/>
<path id="Vector_22" d="M410.323 143.327H401.772V152.122H410.323V143.327Z" fill="#EBEBEB"/>
<path id="Vector_23" d="M399.38 158.261H390.829V167.056H399.38V158.261Z" fill="#EBEBEB"/>
<path id="Vector_24" d="M410.323 158.261H401.772V167.056H410.323V158.261Z" fill="#EBEBEB"/>
<path id="Vector_25" d="M399.38 173.203H390.829V181.998H399.38V173.203Z" fill="#EBEBEB"/>
<path id="Vector_26" d="M410.323 173.203H401.772V181.998H410.323V173.203Z" fill="#EBEBEB"/>
<path id="Vector_27" d="M399.38 188.137H390.829V196.932H399.38V188.137Z" fill="#EBEBEB"/>
<path id="Vector_28" d="M410.323 188.137H401.772V196.932H410.323V188.137Z" fill="#EBEBEB"/>
<path id="Vector_29" d="M399.38 203.079H390.829V211.874H399.38V203.079Z" fill="#EBEBEB"/>
<path id="Vector_30" d="M410.323 203.079H401.772V211.874H410.323V203.079Z" fill="#EBEBEB"/>
<path id="Vector_31" d="M399.38 218.013H390.829V226.808H399.38V218.013Z" fill="#EBEBEB"/>
<path id="Vector_32" d="M410.323 218.013H401.772V226.808H410.323V218.013Z" fill="#EBEBEB"/>
<path id="Vector_33" d="M399.38 232.955H390.829V241.75H399.38V232.955Z" fill="#EBEBEB"/>
<path id="Vector_34" d="M412.62 241.75H421.171V232.955H412.62V241.75Z" fill="#EBEBEB"/>
<path id="Vector_35" d="M412.62 226.816H421.171V218.021H412.62V226.816Z" fill="#EBEBEB"/>
<path id="Vector_36" d="M412.62 211.874H421.171V203.079H412.62V211.874Z" fill="#EBEBEB"/>
<path id="Vector_37" d="M412.62 196.94H421.171V188.145H412.62V196.94Z" fill="#EBEBEB"/>
<path id="Vector_38" d="M412.62 181.998H421.171V173.203H412.62V181.998Z" fill="#EBEBEB"/>
<path id="Vector_39" d="M412.62 167.064H421.171V158.269H412.62V167.064Z" fill="#EBEBEB"/>
<path id="Vector_40" d="M412.62 152.122H421.171V143.327H412.62V152.122Z" fill="#EBEBEB"/>
<path id="Vector_41" d="M412.62 137.188H421.171V128.393H412.62V137.188Z" fill="#EBEBEB"/>
<path id="Vector_42" d="M412.62 122.247H421.171V113.451H412.62V122.247Z" fill="#EBEBEB"/>
<path id="Vector_43" d="M412.62 107.313H421.171V98.5172H412.62V107.313Z" fill="#EBEBEB"/>
<path id="Vector_44" d="M412.62 92.3707H421.171V83.5754H412.62V92.3707Z" fill="#EBEBEB"/>
<path id="Vector_45" d="M412.62 77.4367H421.171V68.6413H412.62V77.4367Z" fill="#EBEBEB"/>
<path id="Vector_46" d="M412.62 62.4948H421.171V53.6995H412.62V62.4948Z" fill="#EBEBEB"/>
<path id="Vector_47" d="M412.62 47.5608H421.171V38.7655H412.62V47.5608Z" fill="#EBEBEB"/>
<path id="Vector_48" d="M410.323 232.955H401.772V241.75H410.323V232.955Z" fill="#EBEBEB"/>
<path id="Vector_49" d="M462.692 31.2749H428V261.707H462.692V31.2749Z" fill="#A6A6A6"/>
<path id="Vector_50" d="M452.056 241.75H459.12V232.955H452.056V241.75Z" fill="#C7C7C7"/>
<path id="Vector_51" d="M443.017 241.75H450.081V232.955H443.017V241.75Z" fill="#C7C7C7"/>
<path id="Vector_52" d="M452.056 226.816H459.12V218.021H452.056V226.816Z" fill="#C7C7C7"/>
<path id="Vector_53" d="M443.017 226.816H450.081V218.021H443.017V226.816Z" fill="#C7C7C7"/>
<path id="Vector_54" d="M452.056 211.874H459.12V203.079H452.056V211.874Z" fill="#C7C7C7"/>
<path id="Vector_55" d="M443.017 211.874H450.081V203.079H443.017V211.874Z" fill="#C7C7C7"/>
<path id="Vector_56" d="M452.056 196.94H459.12V188.145H452.056V196.94Z" fill="#C7C7C7"/>
<path id="Vector_57" d="M443.017 196.94H450.081V188.145H443.017V196.94Z" fill="#C7C7C7"/>
<path id="Vector_58" d="M452.056 181.998H459.12V173.203H452.056V181.998Z" fill="#C7C7C7"/>
<path id="Vector_59" d="M443.017 181.998H450.081V173.203H443.017V181.998Z" fill="#C7C7C7"/>
<path id="Vector_60" d="M452.056 167.064H459.12V158.269H452.056V167.064Z" fill="#C7C7C7"/>
<path id="Vector_61" d="M443.017 167.064H450.081V158.269H443.017V167.064Z" fill="#C7C7C7"/>
<path id="Vector_62" d="M452.056 152.122H459.12V143.327H452.056V152.122Z" fill="#C7C7C7"/>
<path id="Vector_63" d="M443.017 152.122H450.081V143.327H443.017V152.122Z" fill="#C7C7C7"/>
<path id="Vector_64" d="M452.056 137.188H459.12V128.393H452.056V137.188Z" fill="#C7C7C7"/>
<path id="Vector_65" d="M443.017 137.188H450.081V128.393H443.017V137.188Z" fill="#C7C7C7"/>
<path id="Vector_66" d="M452.056 122.247H459.12V113.451H452.056V122.247Z" fill="#C7C7C7"/>
<path id="Vector_67" d="M443.017 122.247H450.081V113.451H443.017V122.247Z" fill="#C7C7C7"/>
<path id="Vector_68" d="M452.056 107.313H459.12V98.5172H452.056V107.313Z" fill="#C7C7C7"/>
<path id="Vector_69" d="M443.017 107.313H450.081V98.5172H443.017V107.313Z" fill="#C7C7C7"/>
<path id="Vector_70" d="M452.056 92.3707H459.12V83.5754H452.056V92.3707Z" fill="#C7C7C7"/>
<path id="Vector_71" d="M443.017 92.3707H450.081V83.5754H443.017V92.3707Z" fill="#C7C7C7"/>
<path id="Vector_72" d="M452.056 77.4367H459.12V68.6413H452.056V77.4367Z" fill="#C7C7C7"/>
<path id="Vector_73" d="M443.017 77.4367H450.081V68.6413H443.017V77.4367Z" fill="#C7C7C7"/>
<path id="Vector_74" d="M452.056 62.4948H459.12V53.6995H452.056V62.4948Z" fill="#C7C7C7"/>
<path id="Vector_75" d="M443.017 62.4948H450.081V53.6995H443.017V62.4948Z" fill="#C7C7C7"/>
<path id="Vector_76" d="M452.056 47.5608H459.12V38.7655H452.056V47.5608Z" fill="#C7C7C7"/>
<path id="Vector_77" d="M441.121 38.7576H434.057V47.553H441.121V38.7576Z" fill="#C7C7C7"/>
<path id="Vector_78" d="M441.121 53.6995H434.057V62.4948H441.121V53.6995Z" fill="#C7C7C7"/>
<path id="Vector_79" d="M441.121 68.6335H434.057V77.4288H441.121V68.6335Z" fill="#C7C7C7"/>
<path id="Vector_80" d="M441.121 83.5754H434.057V92.3707H441.121V83.5754Z" fill="#C7C7C7"/>
<path id="Vector_81" d="M441.121 98.5094H434.057V107.305H441.121V98.5094Z" fill="#C7C7C7"/>
<path id="Vector_82" d="M441.121 113.451H434.057V122.247H441.121V113.451Z" fill="#C7C7C7"/>
<path id="Vector_83" d="M441.121 128.385H434.057V137.181H441.121V128.385Z" fill="#C7C7C7"/>
<path id="Vector_84" d="M441.121 143.327H434.057V152.122H441.121V143.327Z" fill="#C7C7C7"/>
<path id="Vector_85" d="M441.121 158.261H434.057V167.056H441.121V158.261Z" fill="#C7C7C7"/>
<path id="Vector_86" d="M441.121 173.203H434.057V181.998H441.121V173.203Z" fill="#C7C7C7"/>
<path id="Vector_87" d="M441.121 188.137H434.057V196.932H441.121V188.137Z" fill="#C7C7C7"/>
<path id="Vector_88" d="M441.121 203.079H434.057V211.874H441.121V203.079Z" fill="#C7C7C7"/>
<path id="Vector_89" d="M441.121 218.013H434.057V226.808H441.121V218.013Z" fill="#C7C7C7"/>
<path id="Vector_90" d="M441.121 232.955H434.057V241.75H441.121V232.955Z" fill="#C7C7C7"/>
<path id="Vector_91" d="M443.017 47.5608H450.081V38.7655H443.017V47.5608Z" fill="#C7C7C7"/>
<path id="Vector_92" d="M116.913 13.4013H63.9463V261.707H116.913V13.4013Z" fill="#EBEBEB"/>
<path id="Vector_93" d="M116.913 8.45734H62.6719V13.4013H116.913V8.45734Z" fill="#C7C7C7"/>
<path id="Vector_94" d="M74.1014 20.6875H68.7363V261.707H74.1014V20.6875Z" fill="white"/>
<path id="Vector_95" d="M83.6043 20.6875H78.2393V261.707H83.6043V20.6875Z" fill="white"/>
<path id="Vector_96" d="M93.1073 20.6875H87.7422V261.707H93.1073V20.6875Z" fill="white"/>
<path id="Vector_97" d="M102.618 20.6875H97.2529V261.707H102.618V20.6875Z" fill="white"/>
<path id="Vector_98" d="M112.121 20.6875H106.756V261.707H112.121V20.6875Z" fill="white"/>
<path id="Vector_99" d="M74.1014 26.9362H68.7363V36.6983H74.1014V26.9362Z" fill="#EBEBEB"/>
<path id="Vector_100" d="M83.6043 26.9362H78.2393V36.6983H83.6043V26.9362Z" fill="#EBEBEB"/>
<path id="Vector_101" d="M93.1073 26.9362H87.7422V36.6983H93.1073V26.9362Z" fill="#EBEBEB"/>
<path id="Vector_102" d="M102.618 26.9362H97.2529V36.6983H102.618V26.9362Z" fill="#EBEBEB"/>
<path id="Vector_103" d="M112.121 26.9362H106.756V36.6983H112.121V26.9362Z" fill="#EBEBEB"/>
<path id="Vector_104" d="M74.1014 42.7977H68.7363V52.5598H74.1014V42.7977Z" fill="#EBEBEB"/>
<path id="Vector_105" d="M83.6043 42.7977H78.2393V52.5598H83.6043V42.7977Z" fill="#EBEBEB"/>
<path id="Vector_106" d="M93.1073 42.7977H87.7422V52.5598H93.1073V42.7977Z" fill="#EBEBEB"/>
<path id="Vector_107" d="M102.618 42.7977H97.2529V52.5598H102.618V42.7977Z" fill="#EBEBEB"/>
<path id="Vector_108" d="M112.121 42.7977H106.756V52.5598H112.121V42.7977Z" fill="#EBEBEB"/>
<path id="Vector_109" d="M74.1014 58.6592H68.7363V68.4213H74.1014V58.6592Z" fill="#EBEBEB"/>
<path id="Vector_110" d="M83.6043 58.6592H78.2393V68.4213H83.6043V58.6592Z" fill="#EBEBEB"/>
<path id="Vector_111" d="M93.1073 58.6592H87.7422V68.4213H93.1073V58.6592Z" fill="#EBEBEB"/>
<path id="Vector_112" d="M102.618 58.6592H97.2529V68.4213H102.618V58.6592Z" fill="#EBEBEB"/>
<path id="Vector_113" d="M112.121 58.6592H106.756V68.4213H112.121V58.6592Z" fill="#EBEBEB"/>
<path id="Vector_114" d="M74.1014 74.5285H68.7363V84.2906H74.1014V74.5285Z" fill="#EBEBEB"/>
<path id="Vector_115" d="M83.6043 74.5285H78.2393V84.2906H83.6043V74.5285Z" fill="#EBEBEB"/>
<path id="Vector_116" d="M93.1073 74.5285H87.7422V84.2906H93.1073V74.5285Z" fill="#EBEBEB"/>
<path id="Vector_117" d="M102.618 74.5285H97.2529V84.2906H102.618V74.5285Z" fill="#EBEBEB"/>
<path id="Vector_118" d="M112.121 74.5285H106.756V84.2906H112.121V74.5285Z" fill="#EBEBEB"/>
<path id="Vector_119" d="M74.1014 90.39H68.7363V100.152H74.1014V90.39Z" fill="#EBEBEB"/>
<path id="Vector_120" d="M83.6043 90.39H78.2393V100.152H83.6043V90.39Z" fill="#EBEBEB"/>
<path id="Vector_121" d="M93.1073 90.39H87.7422V100.152H93.1073V90.39Z" fill="#EBEBEB"/>
<path id="Vector_122" d="M102.618 90.39H97.2529V100.152H102.618V90.39Z" fill="#EBEBEB"/>
<path id="Vector_123" d="M112.121 90.39H106.756V100.152H112.121V90.39Z" fill="#EBEBEB"/>
<path id="Vector_124" d="M74.1014 106.251H68.7363V116.014H74.1014V106.251Z" fill="#EBEBEB"/>
<path id="Vector_125" d="M83.6043 106.251H78.2393V116.014H83.6043V106.251Z" fill="#EBEBEB"/>
<path id="Vector_126" d="M93.1073 106.251H87.7422V116.014H93.1073V106.251Z" fill="#EBEBEB"/>
<path id="Vector_127" d="M102.618 106.251H97.2529V116.014H102.618V106.251Z" fill="#EBEBEB"/>
<path id="Vector_128" d="M112.121 106.251H106.756V116.014H112.121V106.251Z" fill="#EBEBEB"/>
<path id="Vector_129" d="M74.1014 122.113H68.7363V131.875H74.1014V122.113Z" fill="#EBEBEB"/>
<path id="Vector_130" d="M83.6043 122.113H78.2393V131.875H83.6043V122.113Z" fill="#EBEBEB"/>
<path id="Vector_131" d="M93.1073 122.113H87.7422V131.875H93.1073V122.113Z" fill="#EBEBEB"/>
<path id="Vector_132" d="M102.618 122.113H97.2529V131.875H102.618V122.113Z" fill="#EBEBEB"/>
<path id="Vector_133" d="M112.121 122.113H106.756V131.875H112.121V122.113Z" fill="#EBEBEB"/>
<path id="Vector_134" d="M74.1014 137.982H68.7363V147.744H74.1014V137.982Z" fill="#EBEBEB"/>
<path id="Vector_135" d="M83.6043 137.982H78.2393V147.744H83.6043V137.982Z" fill="#EBEBEB"/>
<path id="Vector_136" d="M93.1073 137.982H87.7422V147.744H93.1073V137.982Z" fill="#EBEBEB"/>
<path id="Vector_137" d="M102.618 137.982H97.2529V147.744H102.618V137.982Z" fill="#EBEBEB"/>
<path id="Vector_138" d="M112.121 137.982H106.756V147.744H112.121V137.982Z" fill="#EBEBEB"/>
<path id="Vector_139" d="M74.1014 153.844H68.7363V163.606H74.1014V153.844Z" fill="#EBEBEB"/>
<path id="Vector_140" d="M83.6043 153.844H78.2393V163.606H83.6043V153.844Z" fill="#EBEBEB"/>
<path id="Vector_141" d="M93.1073 153.844H87.7422V163.606H93.1073V153.844Z" fill="#EBEBEB"/>
<path id="Vector_142" d="M102.618 153.844H97.2529V163.606H102.618V153.844Z" fill="#EBEBEB"/>
<path id="Vector_143" d="M112.121 153.844H106.756V163.606H112.121V153.844Z" fill="#EBEBEB"/>
<path id="Vector_144" d="M74.1014 169.705H68.7363V179.467H74.1014V169.705Z" fill="#EBEBEB"/>
<path id="Vector_145" d="M83.6043 169.705H78.2393V179.467H83.6043V169.705Z" fill="#EBEBEB"/>
<path id="Vector_146" d="M93.1073 169.705H87.7422V179.467H93.1073V169.705Z" fill="#EBEBEB"/>
<path id="Vector_147" d="M102.618 169.705H97.2529V179.467H102.618V169.705Z" fill="#EBEBEB"/>
<path id="Vector_148" d="M112.121 169.705H106.756V179.467H112.121V169.705Z" fill="#EBEBEB"/>
<path id="Vector_149" d="M74.1014 185.567H68.7363V195.329H74.1014V185.567Z" fill="#EBEBEB"/>
<path id="Vector_150" d="M83.6043 185.567H78.2393V195.329H83.6043V185.567Z" fill="#EBEBEB"/>
<path id="Vector_151" d="M93.1073 185.567H87.7422V195.329H93.1073V185.567Z" fill="#EBEBEB"/>
<path id="Vector_152" d="M102.618 185.567H97.2529V195.329H102.618V185.567Z" fill="#EBEBEB"/>
<path id="Vector_153" d="M112.121 185.567H106.756V195.329H112.121V185.567Z" fill="#EBEBEB"/>
<path id="Vector_154" d="M74.1014 201.428H68.7363V211.19H74.1014V201.428Z" fill="#EBEBEB"/>
<path id="Vector_155" d="M83.6043 201.428H78.2393V211.19H83.6043V201.428Z" fill="#EBEBEB"/>
<path id="Vector_156" d="M93.1073 201.428H87.7422V211.19H93.1073V201.428Z" fill="#EBEBEB"/>
<path id="Vector_157" d="M102.618 201.428H97.2529V211.19H102.618V201.428Z" fill="#EBEBEB"/>
<path id="Vector_158" d="M112.121 201.428H106.756V211.19H112.121V201.428Z" fill="#EBEBEB"/>
<path id="Vector_159" d="M74.1014 217.298H68.7363V227.06H74.1014V217.298Z" fill="#EBEBEB"/>
<path id="Vector_160" d="M83.6043 217.298H78.2393V227.06H83.6043V217.298Z" fill="#EBEBEB"/>
<path id="Vector_161" d="M93.1073 217.298H87.7422V227.06H93.1073V217.298Z" fill="#EBEBEB"/>
<path id="Vector_162" d="M102.618 217.298H97.2529V227.06H102.618V217.298Z" fill="#EBEBEB"/>
<path id="Vector_163" d="M112.121 217.298H106.756V227.06H112.121V217.298Z" fill="#EBEBEB"/>
<path id="Vector_164" d="M74.1014 233.159H68.7363V261.707H74.1014V233.159Z" fill="#EBEBEB"/>
<path id="Vector_165" d="M83.6043 233.159H78.2393V261.707H83.6043V233.159Z" fill="#EBEBEB"/>
<path id="Vector_166" d="M93.1073 233.159H87.7422V261.707H93.1073V233.159Z" fill="#EBEBEB"/>
<path id="Vector_167" d="M102.618 233.159H97.2529V261.707H102.618V233.159Z" fill="#EBEBEB"/>
<path id="Vector_168" d="M112.121 233.159H106.756V261.707H112.121V233.159Z" fill="#EBEBEB"/>
<path id="Vector_169" d="M150.912 13.4013H116.912V261.707H150.912V13.4013Z" fill="#DBDBDB"/>
<path id="Vector_170" d="M152.391 8.45734H116.912V13.4013H152.391V8.45734Z" fill="#C7C7C7"/>
<path id="Vector_171" d="M127.06 20.6875H121.695V261.707H127.06V20.6875Z" fill="#C7C7C7"/>
<path id="Vector_172" d="M136.571 20.6875H131.206V261.707H136.571V20.6875Z" fill="#C7C7C7"/>
<path id="Vector_173" d="M146.074 20.6875H140.709V261.707H146.074V20.6875Z" fill="#C7C7C7"/>
<path id="Vector_174" d="M127.06 26.9362H121.695V36.6983H127.06V26.9362Z" fill="#DBDBDB"/>
<path id="Vector_175" d="M136.571 26.9362H131.206V36.6983H136.571V26.9362Z" fill="#DBDBDB"/>
<path id="Vector_176" d="M146.074 26.9362H140.709V36.6983H146.074V26.9362Z" fill="#DBDBDB"/>
<path id="Vector_177" d="M127.06 42.7977H121.695V52.5598H127.06V42.7977Z" fill="#DBDBDB"/>
<path id="Vector_178" d="M136.571 42.7977H131.206V52.5598H136.571V42.7977Z" fill="#DBDBDB"/>
<path id="Vector_179" d="M146.074 42.7977H140.709V52.5598H146.074V42.7977Z" fill="#DBDBDB"/>
<path id="Vector_180" d="M127.06 58.6592H121.695V68.4213H127.06V58.6592Z" fill="#DBDBDB"/>
<path id="Vector_181" d="M136.571 58.6592H131.206V68.4213H136.571V58.6592Z" fill="#DBDBDB"/>
<path id="Vector_182" d="M146.074 58.6592H140.709V68.4213H146.074V58.6592Z" fill="#DBDBDB"/>
<path id="Vector_183" d="M127.06 74.5285H121.695V84.2906H127.06V74.5285Z" fill="#DBDBDB"/>
<path id="Vector_184" d="M136.571 74.5285H131.206V84.2906H136.571V74.5285Z" fill="#DBDBDB"/>
<path id="Vector_185" d="M146.074 74.5285H140.709V84.2906H146.074V74.5285Z" fill="#DBDBDB"/>
<path id="Vector_186" d="M127.06 90.39H121.695V100.152H127.06V90.39Z" fill="#DBDBDB"/>
<path id="Vector_187" d="M136.571 90.39H131.206V100.152H136.571V90.39Z" fill="#DBDBDB"/>
<path id="Vector_188" d="M146.074 90.39H140.709V100.152H146.074V90.39Z" fill="#DBDBDB"/>
<path id="Vector_189" d="M127.06 106.251H121.695V116.014H127.06V106.251Z" fill="#DBDBDB"/>
<path id="Vector_190" d="M136.571 106.251H131.206V116.014H136.571V106.251Z" fill="#DBDBDB"/>
<path id="Vector_191" d="M146.074 106.251H140.709V116.014H146.074V106.251Z" fill="#DBDBDB"/>
<path id="Vector_192" d="M127.06 122.113H121.695V131.875H127.06V122.113Z" fill="#DBDBDB"/>
<path id="Vector_193" d="M136.571 122.113H131.206V131.875H136.571V122.113Z" fill="#DBDBDB"/>
<path id="Vector_194" d="M146.074 122.113H140.709V131.875H146.074V122.113Z" fill="#DBDBDB"/>
<path id="Vector_195" d="M127.06 137.982H121.695V147.744H127.06V137.982Z" fill="#DBDBDB"/>
<path id="Vector_196" d="M136.571 137.982H131.206V147.744H136.571V137.982Z" fill="#DBDBDB"/>
<path id="Vector_197" d="M146.074 137.982H140.709V147.744H146.074V137.982Z" fill="#DBDBDB"/>
<path id="Vector_198" d="M127.06 153.844H121.695V163.606H127.06V153.844Z" fill="#DBDBDB"/>
<path id="Vector_199" d="M136.571 153.844H131.206V163.606H136.571V153.844Z" fill="#DBDBDB"/>
<path id="Vector_200" d="M146.074 153.844H140.709V163.606H146.074V153.844Z" fill="#DBDBDB"/>
<path id="Vector_201" d="M127.06 169.705H121.695V179.467H127.06V169.705Z" fill="#DBDBDB"/>
<path id="Vector_202" d="M136.571 169.705H131.206V179.467H136.571V169.705Z" fill="#DBDBDB"/>
<path id="Vector_203" d="M146.074 169.705H140.709V179.467H146.074V169.705Z" fill="#DBDBDB"/>
<path id="Vector_204" d="M127.06 185.567H121.695V195.329H127.06V185.567Z" fill="#DBDBDB"/>
<path id="Vector_205" d="M136.571 185.567H131.206V195.329H136.571V185.567Z" fill="#DBDBDB"/>
<path id="Vector_206" d="M146.074 185.567H140.709V195.329H146.074V185.567Z" fill="#DBDBDB"/>
<path id="Vector_207" d="M127.06 201.428H121.695V211.19H127.06V201.428Z" fill="#DBDBDB"/>
<path id="Vector_208" d="M136.571 201.428H131.206V211.19H136.571V201.428Z" fill="#DBDBDB"/>
<path id="Vector_209" d="M146.074 201.428H140.709V211.19H146.074V201.428Z" fill="#DBDBDB"/>
<path id="Vector_210" d="M127.06 217.298H121.695V227.06H127.06V217.298Z" fill="#DBDBDB"/>
<path id="Vector_211" d="M136.571 217.298H131.206V227.06H136.571V217.298Z" fill="#DBDBDB"/>
<path id="Vector_212" d="M146.074 217.298H140.709V227.06H146.074V217.298Z" fill="#DBDBDB"/>
<path id="Vector_213" d="M127.06 233.159H121.695V261.707H127.06V233.159Z" fill="#DBDBDB"/>
<path id="Vector_214" d="M136.571 233.159H131.206V261.707H136.571V233.159Z" fill="#DBDBDB"/>
<path id="Vector_215" d="M146.074 233.159H140.709V261.707H146.074V233.159Z" fill="#DBDBDB"/>
<path id="Vector_216" d="M53.1688 96.7644H9.64258V261.707H53.1688V96.7644Z" fill="#EBEBEB"/>
<path id="Vector_217" d="M53.1682 85.8312H15.833V96.7723H53.1682V85.8312Z" fill="#C7C7C7"/>
<path id="Vector_218" d="M48.3932 102.479H14.4092V225.779H48.3932V102.479Z" fill="#DBDBDB"/>
<path id="Vector_219" d="M48.3932 114.245H14.4092V117.161H48.3932V114.245Z" fill="white"/>
<path id="Vector_220" d="M48.3932 126.31H14.4092V129.226H48.3932V126.31Z" fill="white"/>
<path id="Vector_221" d="M48.3932 138.383H14.4092V141.299H48.3932V138.383Z" fill="white"/>
<path id="Vector_222" d="M48.3932 150.448H14.4092V153.364H48.3932V150.448Z" fill="white"/>
<path id="Vector_223" d="M48.3932 162.521H14.4092V165.437H48.3932V162.521Z" fill="white"/>
<path id="Vector_224" d="M48.3932 174.586H14.4092V177.502H48.3932V174.586Z" fill="white"/>
<path id="Vector_225" d="M48.3932 186.659H14.4092V189.575H48.3932V186.659Z" fill="white"/>
<path id="Vector_226" d="M48.3932 198.724H14.4092V201.64H48.3932V198.724Z" fill="white"/>
<path id="Vector_227" d="M48.3932 210.797H14.4092V213.713H48.3932V210.797Z" fill="white"/>
<path id="Vector_228" d="M48.3932 222.862H14.4092V225.779H48.3932V222.862Z" fill="white"/>
<path id="Vector_229" d="M80.4348 96.7644H53.1689V261.707H80.4348V96.7644Z" fill="#DBDBDB"/>
<path id="Vector_230" d="M76.3441 85.8312H53.1689V96.7723H76.3441V85.8312Z" fill="#A6A6A6"/>
<path id="Vector_231" d="M77.8934 102.479H56.9287V225.779H77.8934V102.479Z" fill="#C7C7C7"/>
<path id="Vector_232" d="M77.8934 114.245H56.9287V117.161H77.8934V114.245Z" fill="white"/>
<path id="Vector_233" d="M77.8934 126.31H56.9287V129.226H77.8934V126.31Z" fill="white"/>
<path id="Vector_234" d="M77.8934 138.383H56.9287V141.299H77.8934V138.383Z" fill="white"/>
<path id="Vector_235" d="M77.8934 150.448H56.9287V153.364H77.8934V150.448Z" fill="white"/>
<path id="Vector_236" d="M77.8934 162.521H56.9287V165.437H77.8934V162.521Z" fill="white"/>
<path id="Vector_237" d="M77.8934 174.586H56.9287V177.502H77.8934V174.586Z" fill="white"/>
<path id="Vector_238" d="M77.8934 186.659H56.9287V189.575H77.8934V186.659Z" fill="white"/>
<path id="Vector_239" d="M77.8934 198.724H56.9287V201.64H77.8934V198.724Z" fill="white"/>
<path id="Vector_240" d="M77.8934 210.797H56.9287V213.713H77.8934V210.797Z" fill="white"/>
<path id="Vector_241" d="M77.8934 222.862H56.9287V225.779H77.8934V222.862Z" fill="white"/>
<path id="Vector_242" d="M488.471 99.5469H465.225V126.986H488.471V99.5469Z" fill="#DBDBDB"/>
<path id="Vector_243" d="M503.213 99.5469H488.471V127.992H503.213V99.5469Z" fill="#C7C7C7"/>
<path id="Vector_244" d="M504.196 111.667H489.564V127.992H504.196V111.667Z" fill="#DBDBDB"/>
<path id="Vector_245" d="M513.322 111.667H504.196V127.992H513.322V111.667Z" fill="#C7C7C7"/>
<path id="Vector_246" d="M493.899 125.202H456.304V261.707H493.899V125.202Z" fill="#EBEBEB"/>
<path id="Vector_247" d="M472.43 131.073H460.606V135.899H472.43V131.073Z" fill="white"/>
<path id="Vector_248" d="M487.55 131.073H475.727V135.899H487.55V131.073Z" fill="white"/>
<path id="Vector_249" d="M472.43 139.263H460.606V144.09H472.43V139.263Z" fill="white"/>
<path id="Vector_250" d="M487.55 139.263H475.727V144.09H487.55V139.263Z" fill="white"/>
<path id="Vector_251" d="M472.43 147.454H460.606V152.28H472.43V147.454Z" fill="white"/>
<path id="Vector_252" d="M487.55 147.454H475.727V152.28H487.55V147.454Z" fill="white"/>
<path id="Vector_253" d="M472.43 155.652H460.606V160.478H472.43V155.652Z" fill="white"/>
<path id="Vector_254" d="M487.55 155.652H475.727V160.478H487.55V155.652Z" fill="white"/>
<path id="Vector_255" d="M472.43 163.842H460.606V168.668H472.43V163.842Z" fill="white"/>
<path id="Vector_256" d="M487.55 163.842H475.727V168.668H487.55V163.842Z" fill="white"/>
<path id="Vector_257" d="M472.43 172.04H460.606V176.866H472.43V172.04Z" fill="white"/>
<path id="Vector_258" d="M487.55 172.04H475.727V176.866H487.55V172.04Z" fill="white"/>
<path id="Vector_259" d="M472.43 180.23H460.606V185.056H472.43V180.23Z" fill="white"/>
<path id="Vector_260" d="M487.55 180.23H475.727V185.056H487.55V180.23Z" fill="white"/>
<path id="Vector_261" d="M472.43 188.428H460.606V193.254H472.43V188.428Z" fill="white"/>
<path id="Vector_262" d="M487.55 188.428H475.727V193.254H487.55V188.428Z" fill="white"/>
<path id="Vector_263" d="M472.43 196.618H460.606V201.444H472.43V196.618Z" fill="white"/>
<path id="Vector_264" d="M487.55 196.618H475.727V201.444H487.55V196.618Z" fill="white"/>
<path id="Vector_265" d="M472.43 204.808H460.606V209.634H472.43V204.808Z" fill="white"/>
<path id="Vector_266" d="M487.55 204.808H475.727V209.634H487.55V204.808Z" fill="white"/>
<path id="Vector_267" d="M472.43 213.006H460.606V217.832H472.43V213.006Z" fill="white"/>
<path id="Vector_268" d="M487.55 213.006H475.727V217.832H487.55V213.006Z" fill="white"/>
<path id="Vector_269" d="M472.43 221.196H460.606V226.022H472.43V221.196Z" fill="white"/>
<path id="Vector_270" d="M487.55 221.196H475.727V226.022H487.55V221.196Z" fill="white"/>
<path id="Vector_271" d="M472.43 229.394H460.606V234.22H472.43V229.394Z" fill="white"/>
<path id="Vector_272" d="M487.55 229.394H475.727V234.22H487.55V229.394Z" fill="white"/>
<path id="Vector_273" d="M472.43 237.584H460.606V242.41H472.43V237.584Z" fill="white"/>
<path id="Vector_274" d="M487.55 237.584H475.727V242.41H487.55V237.584Z" fill="white"/>
<path id="Vector_275" d="M524.358 125.202H493.898V261.707H524.358V125.202Z" fill="#C7C7C7"/>
<path id="Vector_276" d="M511.598 242.41H521.306V237.584H511.598V242.41Z" fill="#EBEBEB"/>
<path id="Vector_277" d="M499.177 242.41H508.885V237.584H499.177V242.41Z" fill="#EBEBEB"/>
<path id="Vector_278" d="M511.598 234.212H521.306V229.386H511.598V234.212Z" fill="#EBEBEB"/>
<path id="Vector_279" d="M499.177 234.212H508.885V229.386H499.177V234.212Z" fill="#EBEBEB"/>
<path id="Vector_280" d="M511.598 226.022H521.306V221.196H511.598V226.022Z" fill="#EBEBEB"/>
<path id="Vector_281" d="M499.177 226.022H508.885V221.196H499.177V226.022Z" fill="#EBEBEB"/>
<path id="Vector_282" d="M511.598 217.832H521.306V213.006H511.598V217.832Z" fill="#EBEBEB"/>
<path id="Vector_283" d="M499.177 217.832H508.885V213.006H499.177V217.832Z" fill="#EBEBEB"/>
<path id="Vector_284" d="M511.598 209.642H521.306V204.816H511.598V209.642Z" fill="#EBEBEB"/>
<path id="Vector_285" d="M499.177 209.642H508.885V204.816H499.177V209.642Z" fill="#EBEBEB"/>
<path id="Vector_286" d="M511.598 201.444H521.306V196.618H511.598V201.444Z" fill="#EBEBEB"/>
<path id="Vector_287" d="M499.177 201.444H508.885V196.618H499.177V201.444Z" fill="#EBEBEB"/>
<path id="Vector_288" d="M511.598 193.246H521.306V188.42H511.598V193.246Z" fill="#EBEBEB"/>
<path id="Vector_289" d="M499.177 193.246H508.885V188.42H499.177V193.246Z" fill="#EBEBEB"/>
<path id="Vector_290" d="M511.598 185.056H521.306V180.23H511.598V185.056Z" fill="#EBEBEB"/>
<path id="Vector_291" d="M499.177 185.056H508.885V180.23H499.177V185.056Z" fill="#EBEBEB"/>
<path id="Vector_292" d="M511.598 176.858H521.306V172.032H511.598V176.858Z" fill="#EBEBEB"/>
<path id="Vector_293" d="M499.177 176.858H508.885V172.032H499.177V176.858Z" fill="#EBEBEB"/>
<path id="Vector_294" d="M511.598 168.676H521.306V163.85H511.598V168.676Z" fill="#EBEBEB"/>
<path id="Vector_295" d="M499.177 168.676H508.885V163.85H499.177V168.676Z" fill="#EBEBEB"/>
<path id="Vector_296" d="M511.598 160.478H521.306V155.652H511.598V160.478Z" fill="#EBEBEB"/>
<path id="Vector_297" d="M499.177 160.478H508.885V155.652H499.177V160.478Z" fill="#EBEBEB"/>
<path id="Vector_298" d="M511.598 152.287H521.306V147.461H511.598V152.287Z" fill="#EBEBEB"/>
<path id="Vector_299" d="M499.177 152.287H508.885V147.461H499.177V152.287Z" fill="#EBEBEB"/>
<path id="Vector_300" d="M511.598 144.09H521.306V139.263H511.598V144.09Z" fill="#EBEBEB"/>
<path id="Vector_301" d="M499.177 144.09H508.885V139.263H499.177V144.09Z" fill="#EBEBEB"/>
<path id="Vector_302" d="M511.598 135.892H521.306V131.065H511.598V135.892Z" fill="#EBEBEB"/>
<path id="Vector_303" d="M499.177 135.892H508.885V131.065H499.177V135.892Z" fill="#EBEBEB"/>
<path id="Vector_304" d="M186.579 153.121H142.156V261.707H186.579V153.121Z" fill="#C7C7C7"/>
<path id="Vector_305" d="M157 162.521H149.142V169.171H157V162.521Z" fill="#DBDBDB"/>
<path id="Vector_306" d="M157 176.732H149.142V183.382H157V176.732Z" fill="#DBDBDB"/>
<path id="Vector_307" d="M157 190.943H149.142V197.592H157V190.943Z" fill="#DBDBDB"/>
<path id="Vector_308" d="M157 205.146H149.142V211.796H157V205.146Z" fill="#DBDBDB"/>
<path id="Vector_309" d="M157 219.357H149.142V226.006H157V219.357Z" fill="#DBDBDB"/>
<path id="Vector_310" d="M157 233.568H149.142V240.217H157V233.568Z" fill="#DBDBDB"/>
<path id="Vector_311" d="M157 247.779H149.142V254.428H157V247.779Z" fill="#DBDBDB"/>
<path id="Vector_312" d="M168.305 162.521H160.446V169.171H168.305V162.521Z" fill="#DBDBDB"/>
<path id="Vector_313" d="M168.305 176.732H160.446V183.382H168.305V176.732Z" fill="#DBDBDB"/>
<path id="Vector_314" d="M168.305 190.943H160.446V197.592H168.305V190.943Z" fill="#DBDBDB"/>
<path id="Vector_315" d="M168.305 205.146H160.446V211.796H168.305V205.146Z" fill="#DBDBDB"/>
<path id="Vector_316" d="M168.305 219.357H160.446V226.006H168.305V219.357Z" fill="#DBDBDB"/>
<path id="Vector_317" d="M168.305 233.568H160.446V240.217H168.305V233.568Z" fill="#DBDBDB"/>
<path id="Vector_318" d="M168.305 247.779H160.446V254.428H168.305V247.779Z" fill="#DBDBDB"/>
<path id="Vector_319" d="M179.586 162.521H171.728V169.171H179.586V162.521Z" fill="#DBDBDB"/>
<path id="Vector_320" d="M179.586 176.732H171.728V183.382H179.586V176.732Z" fill="#DBDBDB"/>
<path id="Vector_321" d="M179.586 190.943H171.728V197.592H179.586V190.943Z" fill="#DBDBDB"/>
<path id="Vector_322" d="M179.586 205.146H171.728V211.796H179.586V205.146Z" fill="#DBDBDB"/>
<path id="Vector_323" d="M179.586 219.357H171.728V226.006H179.586V219.357Z" fill="#DBDBDB"/>
<path id="Vector_324" d="M179.586 233.568H171.728V240.217H179.586V233.568Z" fill="#DBDBDB"/>
<path id="Vector_325" d="M179.586 247.779H171.728V254.428H179.586V247.779Z" fill="#DBDBDB"/>
<path id="Vector_326" d="M186.572 141.81H157.001V153.121H186.572V141.81Z" fill="#DBDBDB"/>
<path id="Vector_327" d="M186.571 134.807H167.825V141.81H186.571V134.807Z" fill="#EBEBEB"/>
<path id="Vector_328" d="M217.739 153.121H186.571V261.707H217.739V153.121Z" fill="#A6A6A6"/>
<path id="Vector_329" d="M208.149 253.367H214.545V246.718H208.149V253.367Z" fill="#C7C7C7"/>
<path id="Vector_330" d="M208.149 239.164H214.545V232.514H208.149V239.164Z" fill="#C7C7C7"/>
<path id="Vector_331" d="M208.149 224.953H214.545V218.304H208.149V224.953Z" fill="#C7C7C7"/>
<path id="Vector_332" d="M208.149 210.742H214.545V204.093H208.149V210.742Z" fill="#C7C7C7"/>
<path id="Vector_333" d="M208.149 196.531H214.545V189.882H208.149V196.531Z" fill="#C7C7C7"/>
<path id="Vector_334" d="M208.149 182.321H214.545V175.671H208.149V182.321Z" fill="#C7C7C7"/>
<path id="Vector_335" d="M208.149 168.118H214.545V161.468H208.149V168.118Z" fill="#C7C7C7"/>
<path id="Vector_336" d="M198.946 253.367H205.342V246.718H198.946V253.367Z" fill="#C7C7C7"/>
<path id="Vector_337" d="M198.946 239.164H205.342V232.514H198.946V239.164Z" fill="#C7C7C7"/>
<path id="Vector_338" d="M198.946 224.953H205.342V218.304H198.946V224.953Z" fill="#C7C7C7"/>
<path id="Vector_339" d="M198.946 210.742H205.342V204.093H198.946V210.742Z" fill="#C7C7C7"/>
<path id="Vector_340" d="M198.946 196.531H205.342V189.882H198.946V196.531Z" fill="#C7C7C7"/>
<path id="Vector_341" d="M198.946 182.321H205.342V175.671H198.946V182.321Z" fill="#C7C7C7"/>
<path id="Vector_342" d="M198.946 168.118H205.342V161.468H198.946V168.118Z" fill="#C7C7C7"/>
<path id="Vector_343" d="M189.766 253.367H196.161V246.718H189.766V253.367Z" fill="#C7C7C7"/>
<path id="Vector_344" d="M189.766 239.164H196.161V232.514H189.766V239.164Z" fill="#C7C7C7"/>
<path id="Vector_345" d="M189.766 224.953H196.161V218.304H189.766V224.953Z" fill="#C7C7C7"/>
<path id="Vector_346" d="M189.766 210.742H196.161V204.093H189.766V210.742Z" fill="#C7C7C7"/>
<path id="Vector_347" d="M189.766 196.531H196.161V189.882H189.766V196.531Z" fill="#C7C7C7"/>
<path id="Vector_348" d="M189.766 182.321H196.161V175.671H189.766V182.321Z" fill="#C7C7C7"/>
<path id="Vector_349" d="M189.766 168.118H196.161V161.468H189.766V168.118Z" fill="#C7C7C7"/>
<path id="Vector_350" d="M213.019 141.81H186.571V153.121H213.019V141.81Z" fill="#C7C7C7"/>
<path id="Vector_351" d="M200.904 134.807H186.571V141.81H200.904V134.807Z" fill="#DBDBDB"/>
</g>
<g id="freepik--Floor--inject-19">
<path id="Vector_352" d="M8.97363 293.972C174.276 293.485 359.709 293.485 525.027 293.972C359.725 294.451 174.292 294.451 8.97363 293.972Z" fill="#263238"/>
<path id="Vector_353" d="M8.97363 261.707C174.276 261.227 359.709 261.219 525.027 261.707C359.725 262.194 174.292 262.186 8.97363 261.707Z" fill="#263238"/>
</g>
<g id="freepik--Trees--inject-19">
<path id="Vector_354" d="M27.8531 226.289C27.8531 226.289 37.4426 247.566 21.7879 247.59C6.13323 247.614 16.2812 225.582 16.2812 225.582C16.2812 225.582 12.6547 224.01 16.8398 212.11C21.0248 200.21 22.9128 200.226 24.6592 200.226C26.8619 200.226 28.923 205.366 27.4283 213.258C27.4126 213.258 32.9271 223.098 27.8531 226.289Z" fill="#37474F"/>
<path id="Vector_355" d="M20.4189 261.707L21.8979 229.638L23.4397 261.707H20.4189Z" fill="#263238"/>
<path id="Vector_356" d="M21.292 243.078L26.9796 236.437L22.5192 243.959L21.292 243.078Z" fill="#263238"/>
<path id="Vector_357" d="M219.454 228.577C219.454 228.577 214.994 226.816 211.454 232.978C207.827 239.266 212.39 243.456 216.001 240.972C216.001 240.972 218.84 246.914 224.504 245.491C230.168 244.069 231.089 239.541 231.089 239.541C231.089 239.541 236.123 239.887 236.257 236.138C236.391 232.389 232.709 229.064 232.709 229.064C232.709 229.064 232.489 219.718 226.416 219.797C220.343 219.876 219.454 228.577 219.454 228.577Z" fill="#455A64"/>
<path id="Vector_358" d="M223.639 261.691L224.882 233.882L226.188 261.691H223.639Z" fill="#263238"/>
<path id="Vector_359" d="M224.52 244.336L220.595 236.539L225.157 243.118L224.52 244.336Z" fill="#263238"/>
<path id="Vector_360" d="M144.437 228.577C144.437 228.577 139.969 226.816 136.429 232.978C132.81 239.266 137.365 243.456 140.976 240.972C140.976 240.972 143.816 246.914 149.487 245.491C155.159 244.069 156.072 239.541 156.072 239.541C156.072 239.541 161.099 239.887 161.24 236.138C161.382 232.389 157.684 229.064 157.684 229.064C157.684 229.064 157.464 219.718 151.391 219.797C145.318 219.876 144.437 228.577 144.437 228.577Z" fill="#455A64"/>
<path id="Vector_361" d="M148.614 261.691L149.865 233.882L151.171 261.691H148.614Z" fill="#263238"/>
<path id="Vector_362" d="M149.496 244.336L145.578 236.539L150.133 243.118L149.496 244.336Z" fill="#263238"/>
<path id="Vector_363" d="M518.048 226.148C518.048 226.148 527.638 247.425 511.983 247.441C496.329 247.456 506.477 225.433 506.477 225.433C506.477 225.433 502.85 223.861 507.043 211.961C511.236 200.061 513.085 200.092 514.799 200.092C517.01 200.092 519.063 205.225 517.569 213.124C517.6 213.116 523.122 222.957 518.048 226.148Z" fill="#37474F"/>
<path id="Vector_364" d="M510.614 261.565L512.085 229.488L513.627 261.557L510.614 261.565Z" fill="#263238"/>
<path id="Vector_365" d="M511.488 242.937L517.168 236.295L512.715 243.817L511.488 242.937Z" fill="#263238"/>
<path id="Vector_366" d="M457.948 226.148C457.948 226.148 467.537 247.425 451.883 247.441C436.228 247.456 446.376 225.433 446.376 225.433C446.376 225.433 442.749 223.861 446.942 211.961C451.135 200.061 452.992 200.092 454.73 200.092C456.941 200.092 459.002 205.225 457.499 213.124C457.499 213.116 463.022 222.957 457.948 226.148Z" fill="#37474F"/>
<path id="Vector_367" d="M450.514 261.565L451.985 229.488L453.534 261.557L450.514 261.565Z" fill="#263238"/>
<path id="Vector_368" d="M451.387 242.937L457.066 236.295L452.614 243.817L451.387 242.937Z" fill="#263238"/>
<path id="Vector_369" d="M197.923 230.667C197.923 230.667 189.568 249.327 203.28 249.311C216.992 249.296 208.086 230.023 208.086 230.023C208.086 230.023 211.233 228.624 207.559 218.233C203.886 207.842 202.226 207.834 200.692 207.842C198.765 207.842 196.971 212.346 198.332 219.255C198.293 219.247 193.478 227.885 197.923 230.667Z" fill="#37474F"/>
<path id="Vector_370" d="M204.506 261.675L203.153 233.583L201.863 261.675H204.506Z" fill="#263238"/>
<path id="Vector_371" d="M203.704 245.366L198.717 239.549L202.634 246.136L203.704 245.366Z" fill="#263238"/>
<path id="Vector_372" d="M321.579 230.667C321.579 230.667 313.225 249.327 326.936 249.311C340.648 249.296 331.735 230.023 331.735 230.023C331.735 230.023 334.882 228.624 331.216 218.233C327.55 207.842 325.882 207.834 324.348 207.842C322.421 207.842 320.627 212.346 321.988 219.255C321.949 219.247 317.134 227.885 321.579 230.667Z" fill="#37474F"/>
<path id="Vector_373" d="M328.163 261.675L326.81 233.583L325.52 261.675H328.163Z" fill="#263238"/>
<path id="Vector_374" d="M327.361 245.366L322.373 239.549L326.291 246.136L327.361 245.366Z" fill="#263238"/>
<path id="Vector_375" d="M466.538 228.467C466.538 228.467 462.07 226.698 458.53 232.86C454.903 239.188 459.466 243.338 463.077 240.862C463.077 240.862 465.917 246.804 471.588 245.381C477.26 243.959 478.165 239.423 478.165 239.423C478.165 239.423 483.2 239.777 483.333 236.02C483.467 232.263 479.786 228.946 479.786 228.946C479.786 228.946 479.565 219.601 473.492 219.679C467.419 219.758 466.538 228.467 466.538 228.467Z" fill="#455A64"/>
<path id="Vector_376" d="M470.715 261.581L471.958 233.772L473.264 261.573L470.715 261.581Z" fill="#263238"/>
<path id="Vector_377" d="M471.581 244.187L467.671 236.421L472.352 242.992L471.581 244.187Z" fill="#263238"/>
</g>
<g id="freepik--Birds--inject-19">
<path id="Vector_378" d="M343.889 104.9C343.278 104.594 342.648 104.332 342.001 104.114C341.341 103.864 340.65 103.705 339.948 103.642C339.733 103.626 339.517 103.65 339.311 103.713C339.243 103.738 339.178 103.767 339.114 103.799L338.988 103.893C338.909 103.948 338.846 104.011 338.768 104.074C338.491 104.321 338.228 104.583 337.981 104.86C337.525 105.379 337.108 105.921 336.699 106.479L337.21 106.299C336.521 106.102 335.82 105.954 335.11 105.858C334.747 105.808 334.382 105.782 334.016 105.78C333.821 105.778 333.627 105.791 333.434 105.819C333.327 105.835 333.222 105.861 333.119 105.898C333.01 105.938 332.905 105.988 332.805 106.047C332.491 106.266 332.213 106.531 331.979 106.833C331.751 107.116 331.554 107.407 331.357 107.706C330.986 108.304 330.66 108.929 330.382 109.576C330.838 109.034 331.271 108.492 331.735 108.004C331.963 107.745 332.191 107.493 332.435 107.265C332.656 107.043 332.904 106.85 333.174 106.692C333.428 106.609 333.696 106.582 333.961 106.613C334.292 106.635 334.62 106.68 334.944 106.747C335.605 106.865 336.274 107.03 336.919 107.203L337.242 107.289L337.43 107.022C337.808 106.487 338.217 105.953 338.626 105.45C338.821 105.197 339.032 104.955 339.255 104.727L339.421 104.569L339.491 104.507C339.606 104.46 339.729 104.436 339.853 104.436C340.503 104.435 341.151 104.498 341.788 104.624C342.52 104.64 343.22 104.782 343.889 104.9Z" fill="#263238"/>
<path id="Vector_379" d="M336.478 124.895C335.676 124.264 334.832 123.686 333.953 123.166C333.056 122.607 332.088 122.171 331.074 121.869C330.762 121.784 330.436 121.758 330.114 121.791C330.006 121.799 329.899 121.826 329.8 121.869L329.587 121.964C329.446 122.026 329.336 122.097 329.21 122.16C328.756 122.435 328.317 122.734 327.896 123.056C327.062 123.685 326.323 124.361 325.536 125.053L326.323 124.943C325.37 124.453 324.384 124.031 323.373 123.677C322.857 123.502 322.332 123.358 321.799 123.245C321.514 123.19 321.224 123.155 320.934 123.143C320.774 123.131 320.614 123.131 320.454 123.143C320.289 123.143 320.108 123.229 319.951 123.268C319.422 123.5 318.934 123.813 318.503 124.196C318.092 124.543 317.7 124.913 317.331 125.304C316.608 126.07 315.948 126.893 315.356 127.764C316.143 127.104 316.969 126.436 317.803 125.823C318.201 125.508 318.616 125.214 319.046 124.943C319.433 124.679 319.854 124.467 320.297 124.314C320.713 124.264 321.134 124.307 321.532 124.439C322.009 124.567 322.477 124.728 322.932 124.919C323.86 125.288 324.804 125.705 325.701 126.169L326.15 126.389L326.504 126.051C327.212 125.367 327.967 124.707 328.722 124.07C329.086 123.753 329.466 123.457 329.863 123.182C329.957 123.127 330.051 123.056 330.146 123.009L330.272 122.938C330.272 122.938 330.272 122.938 330.319 122.938C330.501 122.906 330.687 122.906 330.87 122.938C331.826 123.125 332.762 123.407 333.662 123.779C334.598 124.125 335.534 124.518 336.478 124.895Z" fill="#263238"/>
<path id="Vector_380" d="M181.875 44.3854C181.327 43.9787 180.752 43.611 180.152 43.285C179.54 42.9369 178.884 42.6726 178.201 42.499C177.988 42.4614 177.77 42.4614 177.556 42.499C177.487 42.5149 177.418 42.536 177.352 42.5619L177.21 42.6326C177.126 42.6751 177.045 42.7223 176.966 42.7741C176.669 42.9646 176.382 43.1719 176.109 43.395C175.566 43.8352 175.07 44.2989 174.575 44.7784L175.102 44.6841C174.455 44.3828 173.79 44.1204 173.112 43.8981C172.765 43.8038 172.411 43.7094 172.042 43.6466C171.85 43.6119 171.655 43.5935 171.46 43.5915C171.352 43.5842 171.244 43.5842 171.137 43.5915C171.025 43.6146 170.914 43.6462 170.807 43.6859C170.458 43.8531 170.137 44.0731 169.855 44.3382C169.591 44.5862 169.342 44.8486 169.107 45.1242C168.641 45.6518 168.215 46.2141 167.833 46.8063C168.368 46.3504 168.887 45.8867 169.406 45.4544C169.674 45.2421 169.949 45.0299 170.193 44.8491C170.435 44.6668 170.699 44.5162 170.98 44.4011C171.256 44.3597 171.538 44.3785 171.806 44.4561C172.126 44.535 172.441 44.6321 172.75 44.747C173.379 44.9749 174.016 45.2421 174.622 45.533L174.929 45.6666L175.157 45.4386C175.613 44.967 176.109 44.5033 176.596 44.0631C176.831 43.8454 177.078 43.6407 177.336 43.4501C177.399 43.4501 177.462 43.3557 177.525 43.3243L177.603 43.2771C177.603 43.2771 177.603 43.2771 177.643 43.2771C177.762 43.2556 177.885 43.2556 178.005 43.2771C178.646 43.386 179.275 43.5544 179.885 43.7802C180.601 43.9138 181.254 44.1575 181.875 44.3854Z" fill="#263238"/>
<path id="Vector_381" d="M204.468 41.6423C203.889 40.7981 203.253 39.9945 202.564 39.2371C201.875 38.4373 201.082 37.7341 200.204 37.1463C199.933 36.9728 199.631 36.8503 199.315 36.7848C199.209 36.7685 199.1 36.7685 198.993 36.7848C198.914 36.7801 198.836 36.7801 198.757 36.7848L198.34 36.8712C197.823 36.9924 197.313 37.1447 196.814 37.3271C195.838 37.6808 194.91 38.1131 193.966 38.5376L194.753 38.6633C193.985 37.9172 193.168 37.2239 192.306 36.5883C191.866 36.2631 191.403 35.9689 190.922 35.708C190.668 35.568 190.405 35.4446 190.135 35.3385C189.98 35.2891 189.823 35.2497 189.663 35.2206C189.49 35.2084 189.317 35.2084 189.144 35.2206C188.573 35.2855 188.015 35.4393 187.492 35.6765C186.988 35.8887 186.516 36.1324 186.044 36.3839C185.127 36.9048 184.251 37.4961 183.425 38.1524C184.4 37.7594 185.368 37.3664 186.335 37.0206C186.811 36.8376 187.297 36.6827 187.791 36.5568C188.239 36.414 188.705 36.3372 189.175 36.3289C189.585 36.3992 189.973 36.5633 190.308 36.8084C190.725 37.0727 191.125 37.3642 191.504 37.6808C192.291 38.3096 193.077 39.0013 193.777 39.693L194.139 40.0388L194.58 39.8187C195.461 39.3786 196.381 38.9699 197.286 38.5847C197.727 38.3908 198.178 38.2229 198.639 38.0817C198.745 38.0465 198.852 38.0177 198.961 37.9952H199.103H199.158C199.342 38.0211 199.52 38.0769 199.685 38.1603C200.539 38.6107 201.348 39.1424 202.1 39.748C202.895 40.3454 203.666 40.9977 204.468 41.6423Z" fill="#263238"/>
<path id="Vector_382" d="M366.167 119.991C365.588 119.147 364.952 118.343 364.264 117.586C363.577 116.784 362.783 116.08 361.904 115.495C361.634 115.317 361.332 115.194 361.015 115.133C360.908 115.121 360.799 115.121 360.692 115.133H360.464C360.307 115.133 360.181 115.188 360.039 115.212C359.525 115.338 359.018 115.493 358.521 115.676C357.538 116.029 356.609 116.462 355.665 116.886L356.452 117.012C355.686 116.263 354.869 115.57 354.005 114.937C353.563 114.612 353.101 114.315 352.621 114.049C352.368 113.908 352.105 113.787 351.834 113.687C351.683 113.635 351.528 113.595 351.37 113.569C351.197 113.557 351.024 113.557 350.851 113.569C350.277 113.632 349.717 113.786 349.191 114.025C348.697 114.231 348.216 114.467 347.751 114.732C346.831 115.251 345.953 115.839 345.124 116.493C346.107 116.108 347.067 115.707 348.043 115.361C348.522 115.188 349.01 115.023 349.49 114.897C349.94 114.762 350.405 114.686 350.875 114.67C351.284 114.747 351.673 114.91 352.015 115.149C352.429 115.418 352.825 115.712 353.203 116.029C353.99 116.65 354.776 117.35 355.477 118.041L355.838 118.387L356.279 118.167C357.16 117.727 358.08 117.318 358.985 116.933C359.426 116.738 359.878 116.568 360.338 116.422L360.661 116.344H360.802C360.802 116.344 360.802 116.344 360.857 116.344C361.042 116.366 361.22 116.422 361.384 116.509C362.242 116.972 363.051 117.52 363.799 118.144C364.594 118.694 365.373 119.346 366.167 119.991Z" fill="#263238"/>
</g>
<g id="freepik--Lines--inject-19">
<path id="Vector_383" d="M62.6469 165.956C53.1305 166.491 43.5916 166.491 34.0752 165.956C43.5916 165.422 53.1305 165.422 62.6469 165.956Z" fill="#263238"/>
<path id="Vector_384" d="M40.5964 175.349C30.7835 175.883 20.9487 175.883 11.1357 175.349C20.9485 174.806 30.7837 174.806 40.5964 175.349Z" fill="#263238"/>
<path id="Vector_385" d="M35.1532 169.517C23.7072 170.051 12.1668 170.051 0.712891 169.517C12.1668 168.974 23.7072 168.974 35.1532 169.517Z" fill="#263238"/>
<path id="Vector_386" d="M255.2 115.699C245.683 116.234 236.144 116.234 226.628 115.699C236.144 115.165 245.683 115.165 255.2 115.699Z" fill="#263238"/>
<path id="Vector_387" d="M213.451 153.962C203.635 154.496 193.798 154.496 183.982 153.962C193.798 153.427 203.635 153.427 213.451 153.962Z" fill="#263238"/>
<path id="Vector_388" d="M229.169 147.084C217.715 147.619 206.175 147.619 194.721 147.084C206.175 146.55 217.715 146.55 229.169 147.084Z" fill="#263238"/>
<g id="Group" opacity="0.8">
<path id="Vector_389" opacity="0.8" d="M9.16211 293.972L14.8261 292.95C14.8261 292.95 8.80024 286.772 12.4661 282.976C16.132 279.179 21.7488 282.536 21.7488 282.536C21.7488 282.536 20.9149 273.504 27.9005 271.618C34.8861 269.732 41.0457 283.235 41.0457 283.235C41.0457 283.235 42.0684 280.091 47.2918 281.309C52.5153 282.528 56.6374 289.657 56.6374 289.657L121.341 293.98" fill="white"/>
<path id="Vector_390" opacity="0.8" d="M9.16211 293.972L14.8182 292.911C13.5361 291.68 12.5142 290.205 11.8132 288.572C9.94091 284.744 12.5998 281.176 16.6826 281.05C18.493 281.054 20.2713 281.528 21.8432 282.425L21.6386 282.551C21.5464 281.188 21.6364 279.819 21.9061 278.48C22.913 272.451 29.1198 268.82 34.123 273.292C37.2697 275.925 39.4173 279.509 41.203 283.156H40.8726C41.2197 282.34 41.8634 281.686 42.6741 281.325C46.812 279.651 51.1308 282.488 53.7661 285.546C54.8825 286.748 55.8492 288.081 56.6453 289.515L121.341 293.956L56.6296 289.759C56.5509 289.759 56.5666 289.759 56.5273 289.696C55.6611 288.298 54.6684 286.983 53.5616 285.766C51.3982 283.353 48.5505 281.191 45.1678 281.207C43.5945 281.144 41.8166 281.789 41.2345 283.306L41.0772 283.675L40.9041 283.322C39.1341 279.745 36.9708 276.248 33.9106 273.599C30.6066 270.58 26.1541 271.186 23.684 274.88C22.3199 277.194 21.7096 279.875 21.9376 282.551V282.795L21.7252 282.677C20.1982 281.797 18.4692 281.325 16.7062 281.309C14.1496 281.309 11.349 283.243 11.412 285.986C11.4749 288.729 13.182 291.04 14.9048 292.997H14.8497L9.17784 293.988L9.16211 293.972Z" fill="#263238"/>
</g>
</g>
<g id="freepik--Character--inject-19">
<g id="Group_2" opacity="0.8">
<path id="Vector_391" opacity="0.8" d="M24.6357 293.972L30.2919 292.95C30.2919 292.95 24.266 286.772 27.9319 282.976C31.5977 279.179 37.2145 282.536 37.2145 282.536C37.2145 282.536 36.3492 273.504 43.3427 271.61C50.3361 269.716 56.48 283.227 56.48 283.227C56.48 283.227 57.5105 280.083 62.7261 281.302C67.9417 282.52 72.0717 289.649 72.0717 289.649L136.775 293.972" fill="white"/>
<path id="Vector_392" opacity="0.8" d="M24.6357 293.972L30.284 292.911C29.0068 291.676 27.9857 290.201 27.2789 288.572C25.4067 284.744 28.0656 281.176 32.1484 281.05C33.9537 281.055 35.7267 281.529 37.2932 282.425L37.0965 282.551C37.0043 281.188 37.0943 279.819 37.364 278.48C38.3631 272.451 44.5699 268.82 49.5731 273.292C52.7197 275.925 54.8752 279.509 56.6531 283.156H56.3305C56.6776 282.34 57.3213 281.686 58.132 281.325C62.2699 279.651 66.5808 282.488 69.2161 285.546C70.3325 286.748 71.2993 288.081 72.0953 289.515L136.791 293.956L72.0796 289.759C72.0009 289.759 72.0167 289.759 71.9852 289.696C71.1139 288.302 70.1215 286.987 69.0195 285.766C66.8561 283.353 64.0005 281.191 60.6257 281.207C59.0524 281.144 57.2745 281.789 56.6924 283.306L56.5429 283.675L56.3699 283.322C54.592 279.745 52.4365 276.248 49.3685 273.599C46.0645 270.58 41.612 271.186 39.1419 274.88C37.7756 277.194 37.1626 279.874 37.3876 282.551V282.795L37.1752 282.677C35.6497 281.793 33.9198 281.321 32.1563 281.309C29.5996 281.309 26.7991 283.243 26.862 285.986C26.9249 288.729 28.632 291.04 30.3627 292.997H30.2997L24.6357 293.988V293.972Z" fill="#263238"/>
</g>
<path id="Vector_393" d="M258.905 145.221C253.736 149.788 248.293 156.076 241.394 157.884C235.981 159.283 230.294 157.687 225.464 155.188C214.836 149.686 204.758 138.139 208.432 125.375C209.903 120.274 216.629 114.214 222.388 116.1C225.338 117.075 227.588 119.244 230.05 121.044C231.534 122.21 233.263 123.028 235.107 123.436C236.95 123.844 238.863 123.833 240.701 123.402C248.395 121.736 251.99 117.955 258.354 113.711C258.957 113.249 259.65 112.917 260.387 112.736C261.125 112.555 261.893 112.528 262.641 112.657C265.91 113.34 268.841 115.134 270.933 117.735C272.774 120.588 272.372 125.06 272.506 128.307C272.64 131.553 271.782 133.809 269.32 136.064C265.882 139.169 262.374 142.172 258.905 145.221Z" fill="#263238"/>
<path id="Vector_394" d="M256.907 147.909C261.375 143.445 265.749 138.894 270.162 134.375C270.162 134.375 270.162 134.296 270.162 134.327C266.425 137.943 262.642 141.504 258.952 145.166C255.263 148.829 251.872 152.704 247.939 155.966C239.144 163.299 228.138 157.035 222.482 149.096C222.223 148.735 221.696 149.183 221.947 149.536C227.139 156.351 235.816 162.49 244.69 158.686C249.512 156.61 253.249 151.564 256.907 147.909Z" fill="#263238"/>
<path id="Vector_395" d="M259.173 113.75C259.267 113.671 259.173 113.538 259.047 113.608C253.957 117.318 248.372 122.129 241.85 122.765C238.638 123.073 235.409 122.404 232.583 120.847C230.349 119.606 228.713 117.703 226.786 116.076C219.257 109.733 209.015 117.821 209.44 126.475C209.44 126.656 209.762 126.648 209.762 126.475C209.762 120.187 214.309 114.41 220.933 114.269C226.251 114.151 229.09 119.826 233.63 121.846C243.038 126.012 252.156 119.621 259.173 113.75Z" fill="#263238"/>
<path id="Vector_396" d="M225.307 176.724C225.307 176.724 224.732 171.293 224.764 170.169C224.795 169.045 230.538 165.17 230.538 165.17C230.538 165.17 231.891 154.795 232.977 152.453C233.276 151.8 243.07 150.881 244.344 152.044C245.618 153.207 251.888 177.149 251.888 177.149L225.307 176.724Z" fill="#FFC727"/>
<path id="Vector_397" opacity="0.5" d="M225.307 176.724C225.307 176.724 224.732 171.293 224.764 170.169C224.795 169.045 230.538 165.17 230.538 165.17C230.538 165.17 231.891 154.795 232.977 152.453C233.276 151.8 243.07 150.881 244.344 152.044C245.618 153.207 251.888 177.149 251.888 177.149L225.307 176.724Z" fill="white"/>
<path id="Vector_398" d="M261.596 149.081C267.102 160.085 276.023 172.716 278.902 174.413C282.592 176.559 301.126 176.386 302.14 176.253C304.65 175.907 304.453 158.89 301.755 159.141C297.656 159.527 286.423 161.114 285.345 160.438C284.267 159.762 276.283 153.529 267.928 146.377C262.193 141.433 258.181 142.258 261.596 149.081Z" fill="#D3766A"/>
<path id="Vector_399" d="M309.347 157.381C312.317 156.749 315.414 157.14 318.134 158.489C320.675 159.747 321.202 164.125 320.745 165.091C320.289 166.058 316.466 171.631 313.909 170.428C311.353 169.226 315.081 165.311 315.239 164.738C315.396 164.164 315.616 163.433 315.113 163.26C314.609 163.087 304.257 163.095 304.257 163.095L309.347 157.381Z" fill="#D3766A"/>
<path id="Vector_400" d="M309.802 157.294C309.944 157.357 318.078 157.892 320.619 159.149C323.16 160.407 323.679 164.785 323.223 165.752C322.767 166.718 318.951 172.291 316.395 171.089C313.838 169.886 317.567 165.972 317.724 165.398C317.881 164.824 318.102 164.101 317.59 163.92C317.079 163.74 306.742 163.755 306.742 163.755L309.802 157.294Z" fill="#D3766A"/>
<path id="Vector_401" d="M315.679 170.35C315.62 169.764 315.718 169.173 315.962 168.636C316.17 168.072 316.461 167.542 316.827 167.064C317.187 166.673 317.513 166.253 317.802 165.807C318.025 165.334 318.123 164.811 318.086 164.29C318.086 163.834 317.629 163.779 317.252 163.74C316.689 163.708 316.124 163.708 315.561 163.74L313.751 163.802C313.125 163.8 312.5 163.836 311.879 163.912C311.87 163.916 311.863 163.922 311.858 163.93C311.853 163.937 311.851 163.946 311.851 163.956C311.851 163.965 311.853 163.974 311.858 163.981C311.863 163.989 311.87 163.995 311.879 163.999C312.403 164.026 312.928 164.026 313.452 163.999C314.042 163.999 314.64 163.999 315.23 163.999C315.82 163.999 316.339 163.999 316.898 163.999C317.166 163.97 317.437 164.011 317.685 164.117C317.858 164.25 317.685 164.777 317.685 164.95C317.576 165.461 317.319 165.929 316.945 166.294C316.593 166.686 316.282 167.113 316.017 167.567C315.76 167.993 315.584 168.462 315.498 168.951C315.467 169.416 315.496 169.884 315.584 170.342C315.584 170.428 315.686 170.413 315.679 170.35Z" fill="#263238"/>
<path id="Vector_402" d="M310.983 157.09C311.14 157.09 319.219 156.045 321.956 156.776C324.694 157.507 326.079 161.688 325.819 162.726C325.559 163.763 322.924 169.988 320.179 169.304C317.433 168.621 320.32 164.062 320.352 163.472C320.383 162.883 320.47 162.12 319.935 162.042C319.4 161.963 309.268 164.03 309.268 164.03L310.983 157.09Z" fill="#D3766A"/>
<path id="Vector_403" d="M319.329 168.731C319.161 168.166 319.142 167.568 319.273 166.994C319.36 166.393 319.541 165.809 319.808 165.264C320.08 164.806 320.317 164.328 320.516 163.834C320.648 163.318 320.648 162.778 320.516 162.262C320.398 161.822 319.958 161.853 319.58 161.892C319.021 161.96 318.467 162.062 317.92 162.199C317.33 162.325 316.748 162.474 316.158 162.608C315.546 162.733 314.942 162.896 314.349 163.095C314.302 163.095 314.31 163.181 314.349 163.174C314.878 163.108 315.403 163.014 315.922 162.891L317.677 162.561C318.219 162.466 318.762 162.34 319.313 162.254C319.571 162.19 319.841 162.19 320.099 162.254C320.296 162.348 320.273 162.891 320.273 163.04C320.267 163.561 320.109 164.07 319.816 164.502C319.545 164.954 319.324 165.433 319.155 165.932C318.991 166.402 318.911 166.897 318.919 167.394C318.985 167.855 319.107 168.307 319.281 168.738C319.25 168.825 319.352 168.786 319.329 168.731Z" fill="#263238"/>
<path id="Vector_404" d="M310.585 183.755L314.38 185.679L327.959 158.947L324.164 157.023L310.585 183.755Z" fill="#263238"/>
<path id="Vector_405" d="M328.62 171.518L321.052 168.715L319.384 173.21L326.952 176.013L328.62 171.518Z" fill="#263238"/>
<path id="Vector_406" d="M331.16 171.437L326.24 169.615L323.9 175.923L328.82 177.746L331.16 171.437Z" fill="#263238"/>
<path id="Vector_407" d="M298.506 160.171C298.506 160.171 307.663 157.609 309.802 157.294C312.634 156.87 317.079 158.261 317.229 160.517C317.229 161.169 314.412 163.905 314.208 164.447C313.626 165.901 313.728 169.163 316.143 170.24C318.558 171.317 321.744 168.558 324.112 169.202C326.48 169.847 323.144 173.179 320.501 174.767C317.822 176.238 314.781 176.919 311.73 176.732C309.307 176.536 301.629 176.268 301.629 176.268L298.506 160.171Z" fill="#D3766A"/>
<path id="Vector_408" d="M319.888 169.925C318.66 170.193 317.221 170.609 316.017 170.098C314.814 169.587 314.357 168.4 314.263 167.143C314.103 165.871 314.435 164.586 315.191 163.551C315.955 162.655 316.96 161.998 318.086 161.657C319.465 161.246 320.896 161.037 322.334 161.036C322.397 161.036 322.381 160.933 322.334 160.933C321.005 160.933 316.938 160.69 314.829 163.378C314.066 164.44 313.737 165.753 313.909 167.049C313.88 167.658 314.004 168.266 314.271 168.815C314.537 169.364 314.938 169.838 315.435 170.193C316.788 170.979 318.542 170.397 319.958 170.02C320.006 169.972 319.951 169.91 319.888 169.925Z" fill="#263238"/>
<path id="Vector_409" d="M301.613 157.892L300.189 178.642C300.189 178.642 282.56 177.919 278.761 175.396C274.961 172.873 265.34 157.459 261.737 149.725C258.134 141.991 262.296 141.205 267.315 145.41C272.333 149.615 284.747 159.77 285.345 159.912C285.943 160.053 301.613 157.892 301.613 157.892Z" fill="#455A64"/>
<path id="Vector_410" d="M296.5 170.46C296.688 168.007 296.893 165.555 296.987 163.095C297.042 161.696 297.105 160.305 297.153 158.906C297.153 158.851 297.058 158.843 297.058 158.906C296.767 161.358 296.492 163.818 296.311 166.286C296.13 168.754 295.949 171.191 295.807 173.643C295.729 175.042 295.689 176.433 295.697 177.832H295.744C296.106 175.388 296.311 172.928 296.5 170.46Z" fill="#263238"/>
<path id="Vector_411" d="M300.299 176.575L300.157 178.642C300.157 178.642 282.52 177.919 278.729 175.404C274.937 172.889 265.308 157.459 261.705 149.725C259.07 144.074 260.588 142.124 263.554 143.138C272.774 151.36 290.19 167.001 300.299 176.575Z" fill="#37474F"/>
<path id="Vector_412" d="M236.532 182.745L277.777 183.421L274.544 171.081C274.544 171.081 277.966 167.937 276.267 161.735C275.283 158.104 270.713 151.25 267.842 147.799C260.832 139.381 254.744 143.186 252.801 145.347C245.382 153.616 236.532 182.745 236.532 182.745Z" fill="#455A64"/>
<path id="Vector_413" d="M254.563 143.885L263.759 144.097L264.129 144.341L254.224 144.113C254.335 144.034 254.413 143.956 254.563 143.885ZM251.353 147.194L267.637 147.564L267.433 147.32L251.526 146.958L251.353 147.194ZM249.41 150.283L270.123 150.763L269.95 150.527L249.552 150.063C249.5 150.133 249.453 150.207 249.41 150.283V150.283ZM247.766 153.427L272.294 153.993C272.239 153.915 272.192 153.828 272.137 153.742L247.876 153.191C247.837 153.239 247.797 153.317 247.766 153.396V153.427ZM246.271 156.571L274.214 157.208L274.08 156.98L246.381 156.343L246.271 156.571ZM244.902 159.715L275.779 160.423C275.779 160.344 275.716 160.265 275.685 160.179L245.005 159.479L244.902 159.715ZM243.612 162.82L276.652 163.606C276.652 163.535 276.652 163.457 276.652 163.378L243.754 162.592C243.667 162.576 243.636 162.655 243.612 162.726V162.82ZM242.377 165.964L276.621 166.75C276.621 166.671 276.621 166.593 276.621 166.514L242.44 165.728L242.377 165.964ZM241.205 169.108L275.551 169.894L275.677 169.666L241.292 168.88L241.205 169.108ZM240.08 172.252L275.008 173.038L274.945 172.802L240.167 172.016C240.127 171.922 240.112 172 240.08 172.079V172.252ZM238.987 175.396L275.834 176.245L275.771 176.009L239.073 174.94C239.05 175.026 239.021 175.11 238.987 175.192V175.396ZM237.948 178.54L276.668 179.428L276.605 179.184L238.058 178.304L237.948 178.54ZM236.941 181.684L277.494 182.611L277.431 182.368L237.012 181.228C236.981 181.283 236.965 181.369 236.941 181.44V181.684Z" fill="white"/>
<path id="Vector_414" d="M263.507 170.358C265.269 170.199 267.042 170.17 268.809 170.271C269.69 170.334 270.555 170.436 271.428 170.554C271.861 170.617 272.302 170.664 272.734 170.703C273.189 170.762 273.649 170.762 274.103 170.703C274.15 170.703 274.158 170.758 274.103 170.766C273.681 170.868 273.253 170.939 272.821 170.979C272.402 171.006 271.981 171.006 271.562 170.979C270.665 170.924 269.776 170.829 268.887 170.758C267.094 170.633 265.3 170.507 263.499 170.507C263.483 170.501 263.47 170.49 263.461 170.476C263.452 170.462 263.447 170.446 263.448 170.429C263.449 170.413 263.455 170.397 263.466 170.384C263.476 170.371 263.491 170.362 263.507 170.358V170.358Z" fill="#263238"/>
<path id="Vector_415" d="M259.495 172.668C260.9 172.262 262.326 171.934 263.767 171.686C264.483 171.56 265.206 171.482 265.938 171.419L266.976 171.348C267.362 171.348 267.763 171.348 268.133 171.348C268.172 171.348 268.188 171.403 268.133 171.403C267.779 171.442 267.417 171.537 267.063 171.592L265.985 171.757L263.822 172.103C262.382 172.315 260.943 172.535 259.511 172.794C259.44 172.802 259.424 172.692 259.495 172.668Z" fill="#263238"/>
<path id="Vector_416" d="M257.662 144.286C257.875 145.025 261.674 149.686 265.081 149.356C266.19 149.246 265.867 143.178 265.867 143.178L265.946 142.73L267 136.426L259.385 132.056L258.284 131.482C258.284 131.482 258.103 133.243 257.89 135.412V135.726C257.89 135.852 257.89 135.97 257.851 136.08C257.812 136.41 257.78 136.74 257.749 137.078C257.717 137.416 257.71 137.574 257.694 137.864C257.678 138.155 257.694 138.391 257.639 138.65C257.519 140.527 257.527 142.41 257.662 144.286V144.286Z" fill="#D3766A"/>
<path id="Vector_417" d="M257.922 135.404C258.645 137.136 259.737 138.691 261.121 139.96C262.505 141.228 264.149 142.182 265.938 142.753L267 136.426L259.385 132.056L258.284 131.482C258.284 131.482 258.134 133.219 257.922 135.404Z" fill="#263238"/>
<path id="Vector_418" d="M275.134 124.998C278.139 135.899 271.988 138.925 269.628 139.57C267.496 140.159 260.148 141.881 256.034 131.348C251.92 120.816 255.987 115.99 260.817 114.418C265.647 112.846 272.129 114.104 275.134 124.998Z" fill="#D3766A"/>
<path id="Vector_419" d="M273.08 123.543C272.813 123.543 272.561 123.543 272.294 123.543C272.025 123.586 271.749 123.542 271.507 123.418C271.438 123.363 271.39 123.287 271.368 123.202C271.347 123.117 271.354 123.027 271.389 122.946C271.483 122.795 271.616 122.671 271.773 122.588C271.931 122.505 272.108 122.466 272.286 122.475C272.65 122.44 273.014 122.541 273.309 122.757C273.383 122.809 273.439 122.883 273.469 122.968C273.499 123.053 273.501 123.145 273.476 123.232C273.451 123.319 273.399 123.395 273.328 123.451C273.257 123.507 273.171 123.539 273.08 123.543V123.543Z" fill="#263238"/>
<path id="Vector_420" d="M265.426 125.092C265.678 124.998 265.891 124.872 266.134 124.754C266.398 124.667 266.624 124.496 266.78 124.267C266.816 124.185 266.825 124.093 266.803 124.007C266.782 123.92 266.732 123.842 266.662 123.787C266.507 123.698 266.332 123.651 266.154 123.651C265.976 123.651 265.801 123.698 265.647 123.787C265.302 123.923 265.021 124.184 264.86 124.518C264.819 124.598 264.805 124.688 264.818 124.776C264.832 124.864 264.873 124.946 264.936 125.009C264.999 125.073 265.08 125.115 265.168 125.13C265.256 125.145 265.346 125.131 265.426 125.092V125.092Z" fill="#263238"/>
<path id="Vector_421" d="M267.968 127.662C267.968 127.662 267.913 127.717 267.928 127.749C268.157 128.48 268.29 129.321 267.692 129.792C267.692 129.792 267.692 129.847 267.692 129.831C268.495 129.493 268.298 128.322 267.968 127.662Z" fill="#263238"/>
<path id="Vector_422" d="M267.087 127.073C265.867 127.308 266.434 129.729 267.566 129.509C268.699 129.289 268.109 126.868 267.087 127.073Z" fill="#263238"/>
<path id="Vector_423" d="M266.638 127.308C266.465 127.497 266.315 127.788 266.064 127.874C265.812 127.961 265.489 127.772 265.277 127.576C265.277 127.576 265.23 127.576 265.277 127.576C265.379 128.047 265.67 128.48 266.181 128.432C266.693 128.385 266.882 127.898 266.889 127.411C266.819 127.348 266.716 127.238 266.638 127.308Z" fill="#263238"/>
<path id="Vector_424" d="M272.098 126.53C272.098 126.53 272.161 126.53 272.168 126.577C272.318 127.363 272.609 128.149 273.348 128.275V128.314C272.507 128.385 272.113 127.269 272.098 126.53Z" fill="#263238"/>
<path id="Vector_425" d="M272.585 125.587C273.773 125.225 274.418 127.623 273.325 127.945C272.231 128.267 271.594 125.894 272.585 125.587Z" fill="#263238"/>
<path id="Vector_426" d="M273.135 125.611C273.356 125.689 273.608 125.87 273.836 125.823C274.064 125.776 274.229 125.461 274.331 125.17C274.331 125.17 274.331 125.17 274.371 125.17C274.47 125.37 274.494 125.599 274.439 125.815C274.384 126.031 274.254 126.221 274.072 126.349C273.686 126.538 273.285 126.224 273.057 125.791C273.01 125.729 273.041 125.587 273.135 125.611Z" fill="#263238"/>
<path id="Vector_427" d="M269.36 133.832C269.553 134.022 269.806 134.139 270.076 134.162C270.36 134.104 270.628 133.986 270.863 133.816C270.863 133.816 270.918 133.816 270.902 133.816C270.824 133.986 270.7 134.131 270.544 134.235C270.389 134.339 270.208 134.398 270.021 134.406C269.858 134.4 269.701 134.345 269.571 134.246C269.442 134.147 269.346 134.011 269.297 133.856C269.242 133.84 269.297 133.816 269.36 133.832Z" fill="#263238"/>
<path id="Vector_428" d="M271.783 130.358C271.995 130.872 272.181 131.397 272.341 131.93C272.341 131.985 272.239 132.04 272.058 132.095C271.627 132.29 271.151 132.363 270.682 132.305C270.213 132.246 269.769 132.06 269.399 131.765C269.352 131.726 269.399 131.655 269.462 131.671C270.247 131.961 271.104 131.994 271.909 131.765C271.909 131.608 271.122 129.942 271.193 129.918C271.61 129.858 272.034 129.858 272.451 129.918C271.617 127.646 270.43 125.532 269.635 123.253C269.634 123.237 269.637 123.22 269.645 123.206C269.653 123.193 269.665 123.181 269.68 123.174C269.695 123.168 269.711 123.165 269.727 123.168C269.743 123.171 269.757 123.178 269.769 123.19C271.113 125.431 272.231 127.801 273.104 130.264C273.199 130.523 272.019 130.397 271.783 130.358Z" fill="#263238"/>
<path id="Vector_429" d="M271.917 131.891C271.738 132.397 271.431 132.849 271.028 133.203C270.804 133.388 270.53 133.5 270.241 133.526C269.604 133.526 269.407 133.023 269.368 132.527C269.337 132.266 269.337 132.003 269.368 131.741C270.18 132.063 271.073 132.115 271.917 131.891V131.891Z" fill="#263238"/>
<path id="Vector_430" d="M271.028 133.203C270.805 133.388 270.53 133.5 270.241 133.526C269.604 133.526 269.407 133.023 269.368 132.527C269.681 132.44 270.013 132.459 270.314 132.582C270.614 132.704 270.866 132.923 271.028 133.203Z" fill="#FF9BBC"/>
<path id="Vector_431" d="M256.529 132.614C257.169 132.114 257.668 131.458 257.98 130.709C258.291 129.96 258.404 129.143 258.307 128.338C260.075 127.074 261.473 125.362 262.359 123.378C262.359 123.622 262.146 125.391 262.02 126.287C268.809 123.481 269.887 117.641 269.887 117.641C271.499 118.596 272.876 119.902 273.915 121.461C273.915 121.461 273.049 117.122 270.202 114.693C269.264 113.832 268.114 113.237 266.869 112.971C265.624 112.704 264.33 112.775 263.122 113.176C261.287 113.125 259.473 113.568 257.868 114.458C256.264 115.349 254.93 116.654 254.004 118.238C250.48 124.18 256.529 132.614 256.529 132.614Z" fill="#263238"/>
<path id="Vector_432" d="M267.149 123.984C266.145 124.845 265.018 125.552 263.806 126.082C263.806 126.082 263.806 126.082 263.806 126.082C265.678 125.12 267.244 123.656 268.329 121.854C268.787 121.084 269.147 120.26 269.399 119.401C269.713 118.471 269.839 117.488 269.769 116.509C269.769 116.438 269.871 116.43 269.879 116.509C270.044 117.469 270.044 118.449 269.879 119.409C269.688 120.356 269.322 121.26 268.801 122.074C268.338 122.795 267.774 123.446 267.125 124.007L267.149 123.984Z" fill="#263238"/>
<path id="Vector_433" d="M253.831 132.496L253.344 132.362C253.407 132.134 253.973 130.154 255.019 129.745C256.066 129.336 262.681 128.558 262.965 128.527L263.02 129.022C261.108 129.25 255.94 129.91 255.2 130.209C254.461 130.507 253.973 131.93 253.831 132.496Z" fill="#A6A6A6"/>
<path id="Vector_434" d="M269.886 128.016L269.493 127.709C269.949 127.128 271.066 126.224 272.191 126.986L271.908 127.395C270.933 126.711 269.934 127.969 269.886 128.016Z" fill="#A6A6A6"/>
<g id="Group_3" opacity="0.9">
<path id="Vector_435" opacity="0.9" d="M267.668 132.347C267.375 132.449 267.072 132.518 266.764 132.551C266.067 132.62 265.365 132.493 264.737 132.183C264.11 131.873 263.582 131.393 263.214 130.798C262.846 130.203 262.653 129.516 262.656 128.817C262.66 128.117 262.86 127.433 263.234 126.842C263.608 126.25 264.141 125.776 264.772 125.472C265.402 125.169 266.106 125.048 266.802 125.125C267.498 125.201 268.158 125.472 268.708 125.905C269.257 126.338 269.674 126.917 269.91 127.576C270.048 127.949 270.122 128.342 270.13 128.739C270.15 129.522 269.923 130.292 269.481 130.939C269.039 131.586 268.405 132.079 267.668 132.347Z" fill="#37474F"/>
<g id="Group_4" opacity="0.1">
<path id="Vector_436" opacity="0.1" d="M267.314 125.21L262.886 130.083C262.658 129.442 262.612 128.752 262.752 128.087L265.301 125.273C265.953 125.068 266.65 125.046 267.314 125.21V125.21Z" fill="white"/>
<path id="Vector_437" opacity="0.1" d="M269.486 126.735L264.64 132.103C264.429 131.984 264.229 131.847 264.042 131.694L269.061 126.192C269.22 126.359 269.362 126.541 269.486 126.735V126.735Z" fill="white"/>
<path id="Vector_438" opacity="0.1" d="M269.973 127.78L265.678 132.496H265.513L269.926 127.623L269.973 127.78Z" fill="white"/>
</g>
</g>
<g id="Group_5" opacity="0.9">
<path id="Vector_439" opacity="0.9" d="M275.378 130.649C275.297 130.656 275.216 130.656 275.134 130.649C273.711 130.79 272.279 129.462 271.87 127.552C271.653 126.648 271.73 125.698 272.09 124.84C272.227 124.468 272.457 124.136 272.757 123.876C273.057 123.615 273.417 123.435 273.806 123.351C274.194 123.267 274.597 123.283 274.978 123.396C275.359 123.509 275.705 123.717 275.984 123.999C276.657 124.629 277.116 125.454 277.298 126.357C277.746 128.425 276.873 130.334 275.378 130.649Z" fill="#37474F"/>
<g id="Group_6" opacity="0.1">
<path id="Vector_440" opacity="0.1" d="M277.29 126.373L273.695 130.303C273.268 130.045 272.901 129.699 272.617 129.289L276.661 124.825C276.962 125.299 277.175 125.823 277.29 126.373V126.373Z" fill="white"/>
<path id="Vector_441" opacity="0.1" d="M275.253 123.543L271.823 127.332C271.82 127.272 271.82 127.211 271.823 127.151L275.142 123.488L275.253 123.543Z" fill="white"/>
</g>
</g>
<path id="Vector_442" d="M256.773 135.137C256.953 135.159 257.136 135.159 257.316 135.137C257.495 135.138 257.674 135.109 257.843 135.051C258.064 134.99 258.269 134.88 258.441 134.728C258.58 134.613 258.702 134.478 258.803 134.327C258.948 134.115 259.052 133.878 259.11 133.628L257.945 130.767C257.945 130.767 254.877 127.749 253.461 128.904C252.045 130.059 254.814 134.791 256.773 135.137Z" fill="#D3766A"/>
<path id="Vector_443" d="M254.303 130.264C254.303 130.264 254.303 130.311 254.303 130.319C254.953 130.503 255.558 130.823 256.077 131.256C256.596 131.689 257.018 132.227 257.316 132.834C257.216 132.718 257.092 132.624 256.953 132.561C256.814 132.497 256.663 132.463 256.509 132.463C256.356 132.463 256.205 132.497 256.066 132.561C255.926 132.624 255.803 132.718 255.703 132.834C255.703 132.834 255.703 132.905 255.758 132.897C255.972 132.782 256.216 132.736 256.457 132.765C256.698 132.795 256.924 132.899 257.103 133.062C257.394 133.343 257.657 133.651 257.89 133.982C257.969 134.084 258.165 133.982 258.094 133.856C257.819 132.182 256.104 130.138 254.303 130.264Z" fill="#263238"/>
<path id="Vector_444" d="M251.707 146.51C245.414 152.798 229.791 176.96 234.322 181.621C238.853 186.282 266.339 180.662 273.765 177.432C275.968 176.473 266.914 162.356 264.325 162.71C262.186 163.009 251.164 166.97 250.873 166.333C250.582 165.697 252.447 160.462 255.389 151.116C258.819 140.356 254.484 143.728 251.707 146.51Z" fill="#D3766A"/>
<path id="Vector_445" d="M259.542 166.954C262.46 164.018 265.704 161.423 269.21 159.22C272.624 157.231 280.53 153.718 290.82 159.472C293.266 160.839 295.776 164.51 290.977 163.732C287.571 163.174 285.581 161.798 283.535 161.837C283.535 161.837 286.179 166.883 284.715 169.273C283.438 171.366 282.013 173.364 280.452 175.254C280.042 175.045 279.645 174.811 279.264 174.555C279.264 174.555 277.69 176.661 273.757 177.439L259.542 166.954Z" fill="#D3766A"/>
<path id="Vector_446" d="M272.774 157.837C274.804 158.222 279.068 159.118 282.356 161.075C285.983 163.244 292.37 168.4 290.734 171.057C289.538 173.006 286.927 171.246 286.927 171.246C286.927 171.246 289.121 173.934 287.65 175.459C286.321 176.842 284.378 175.364 284.378 175.364C284.378 175.364 285.424 177.227 283.882 178.312C282.026 179.617 280.13 175.514 277.109 175.215C276.44 175.144 272.774 157.837 272.774 157.837Z" fill="#D3766A"/>
<path id="Vector_447" d="M279.429 164.518C282.548 165.918 285.166 168.235 286.934 171.159C286.973 171.238 286.934 171.309 286.886 171.246C284.672 168.72 282.16 166.472 279.405 164.549C279.405 164.549 279.405 164.51 279.429 164.518Z" fill="#263238"/>
<path id="Vector_448" d="M277.336 168.228C280.29 169.906 282.736 172.35 284.416 175.302C284.416 175.38 284.416 175.451 284.369 175.388C282.286 172.75 279.911 170.356 277.289 168.251C277.289 168.251 277.321 168.22 277.336 168.228Z" fill="#263238"/>
<path id="Vector_449" d="M283.52 161.798C285.165 161.853 286.787 162.199 288.311 162.82C289.14 163.106 289.986 163.342 290.844 163.527C291.63 163.692 292.779 163.944 293.322 163.158C293.437 162.931 293.488 162.678 293.47 162.424C293.452 162.171 293.365 161.927 293.219 161.719C292.814 161.124 292.321 160.594 291.756 160.147C291.756 160.147 291.756 160.092 291.756 160.108C292.3 160.515 292.801 160.975 293.251 161.484C293.55 161.835 293.736 162.267 293.786 162.726C293.786 163.708 292.779 164.148 291.945 164.125C291.443 164.093 290.945 164.014 290.458 163.889C289.994 163.779 289.53 163.645 289.066 163.504C288.122 163.205 287.201 162.859 286.257 162.553C285.349 162.273 284.425 162.053 283.488 161.892C283.488 161.892 283.52 161.798 283.52 161.798Z" fill="#263238"/>
<path id="Vector_450" d="M288.727 166.553C287.09 164.87 285.346 163.295 283.504 161.837C283.504 161.837 283.504 161.782 283.504 161.79C285.512 163.003 287.362 164.46 289.011 166.129C289.903 167.029 290.606 168.098 291.08 169.273C291.292 169.742 291.314 170.276 291.141 170.761C290.968 171.246 290.613 171.646 290.151 171.875C289.677 172.113 289.137 172.185 288.617 172.079C287.997 171.912 287.417 171.624 286.91 171.23C286.91 171.23 286.91 171.167 286.91 171.183C287.325 171.477 287.801 171.673 288.303 171.755C288.805 171.836 289.319 171.802 289.805 171.655C290.21 171.485 290.533 171.163 290.702 170.758C290.833 170.267 290.783 169.746 290.56 169.289C290.104 168.282 289.485 167.358 288.727 166.553V166.553Z" fill="#263238"/>
<path id="Vector_451" d="M261.108 163.307L268.825 181.087C268.825 181.087 236.021 187.28 233.425 181.519C230.829 175.757 244.21 154.009 250.134 147.776C256.993 140.521 257.749 143.099 256.065 149.678C254.303 156.563 251.015 166.498 251.015 166.498L261.108 163.307Z" fill="#455A64"/>
<path id="Vector_452" d="M240.945 170.821C242.495 169.83 244.114 168.953 245.791 168.196C247.45 167.452 249.162 166.832 250.912 166.341C251.904 166.05 252.91 165.807 253.917 165.555C253.917 165.555 253.957 165.594 253.917 165.602C252.161 166.104 250.435 166.707 248.749 167.41C247.073 168.086 245.406 168.801 243.746 169.54C242.81 169.965 241.897 170.428 240.977 170.876L240.945 170.821Z" fill="#263238"/>
<path id="Vector_453" d="M261.021 163.252C260.856 163.291 251.416 166.003 251.117 166.129C251.157 165.995 253.603 158.599 253.635 158.528C253.808 158.23 254.697 156.603 254.901 156.17C254.673 156.555 253.989 157.483 253.894 157.664C254.075 157.176 254.846 154.693 255.082 153.907C255.082 153.907 255.082 153.907 255.043 153.907C253.823 156.17 250.252 166.939 250.268 166.931C250.283 166.923 260.88 163.441 261.069 163.37C261.084 163.364 261.097 163.352 261.103 163.336C261.11 163.321 261.11 163.303 261.104 163.288C261.098 163.272 261.085 163.259 261.07 163.253C261.055 163.246 261.037 163.246 261.021 163.252V163.252Z" fill="#263238"/>
<path id="Vector_454" d="M261.225 174.688C260.384 172.7 259.55 170.711 258.622 168.762C258.102 167.654 257.583 166.538 257.048 165.429C257.048 165.429 256.954 165.429 256.97 165.429C257.756 167.457 258.543 169.485 259.385 171.474C260.226 173.462 261.092 175.443 261.981 177.408C262.505 178.535 263.043 179.638 263.593 180.717H263.633C262.932 178.681 262.083 176.685 261.225 174.688Z" fill="#263238"/>
<path id="Vector_455" d="M269.242 181.377C268.927 180.827 268.549 180.033 268.219 179.499C268.132 179.357 268.022 179.381 268.093 179.499C268.321 179.994 268.51 180.552 268.738 181.071L267.354 181.291L265.78 181.574C264.742 181.747 263.696 181.912 262.634 182.069C260.536 182.383 258.412 182.645 256.262 182.855C251.996 183.337 247.708 183.599 243.415 183.641C242.219 183.641 241.055 183.641 239.82 183.562C238.636 183.529 237.454 183.432 236.28 183.272C236.28 183.272 236.241 183.319 236.28 183.327C237.288 183.575 238.314 183.746 239.348 183.838C240.434 183.924 241.519 183.987 242.605 184.01C244.768 184.058 246.939 184.01 249.095 183.869C253.382 183.625 257.662 183.193 261.91 182.596C263.106 182.423 264.27 182.242 265.481 182.045L267.275 181.739C267.94 181.675 268.598 181.554 269.242 181.377Z" fill="#263238"/>
<path id="Vector_456" d="M334.898 167.992C333.072 168.937 331.409 170.169 329.973 171.639C328.014 173.8 325.521 180.536 325.521 180.536C325.521 180.536 347.98 182.824 347.917 181.149C347.854 179.475 334.898 167.992 334.898 167.992Z" fill="#263238"/>
<path id="Vector_457" d="M181.159 173.054C181.159 173.054 178.106 153.718 176.824 152.846C175.542 151.973 157.574 151.871 156.371 152.649C155.167 153.427 154.577 161.9 153.555 162.081C152.532 162.262 146.404 162.977 144.429 163.708C142.455 164.439 142.368 170.971 142.368 170.971L181.159 173.054Z" fill="#FFC727"/>
<path id="Vector_458" opacity="0.5" d="M181.159 173.054C181.159 173.054 178.106 153.718 176.824 152.846C175.542 151.973 157.574 151.871 156.371 152.649C155.167 153.427 154.577 161.9 153.555 162.081C152.532 162.262 146.404 162.977 144.429 163.708C142.455 164.439 142.368 170.971 142.368 170.971L181.159 173.054Z" fill="white"/>
<path id="Vector_459" d="M466.986 265.11L369.856 265.754C369.856 265.754 375.048 205.728 421.776 209.76C468.504 213.792 466.986 265.11 466.986 265.11Z" fill="#FFC727"/>
<path id="Vector_460" opacity="0.5" d="M466.986 265.11L369.856 265.754C369.856 265.754 375.048 205.728 421.776 209.76C468.504 213.792 466.986 265.11 466.986 265.11Z" fill="black"/>
<path id="Vector_461" d="M176.266 265.047L79.4111 257.737C79.4111 257.737 89.5041 198.331 135.744 206.183C181.985 214.036 176.266 265.047 176.266 265.047Z" fill="#FFC727"/>
<path id="Vector_462" opacity="0.5" d="M176.266 265.047L79.4111 257.737C79.4111 257.737 89.5041 198.331 135.744 206.183C181.985 214.036 176.266 265.047 176.266 265.047Z" fill="black"/>
<path id="Vector_463" opacity="0.6" d="M391.293 175.443L393.354 176.622C393.354 176.622 380.334 177.825 377.463 177.502C374.592 177.18 323.639 145.63 322.931 145.324C322.223 145.017 289.065 132.496 289.065 132.496C289.065 132.496 334.495 146.951 337.43 148.012C340.364 149.073 391.293 175.443 391.293 175.443Z" fill="white"/>
<path id="Vector_464" d="M508.161 255.741C508.161 255.741 498.359 264.693 495.314 265.526C492.27 266.36 464.084 268.883 462.416 268.333C460.748 267.782 469.354 216.598 421.187 213.729C373.019 210.86 378.313 270.478 377.133 270.455C375.953 270.431 171.333 268.883 170.413 268.042C169.493 267.201 176.596 213.14 129.821 212.55C85.0361 211.984 87.5849 261.479 85.8149 261.534C84.0449 261.589 49.6912 257.47 46.8041 256.684C43.917 255.898 39.7241 247.559 39.4173 246.835C39.1105 246.112 40.0231 244.202 40.0231 244.202C40.0231 244.202 35.5863 230.054 35.3581 224.427C35.13 218.799 45.7421 203.165 45.7421 203.165L53.1919 178.115C53.1919 178.115 49.7148 176.04 49.2585 175.325C48.8023 174.61 48.3067 171.914 48.3067 171.914L120.098 166.019C120.918 165.445 121.793 164.952 122.71 164.549C123.496 164.345 128.114 164.211 128.114 164.211C128.114 164.211 135.635 169.902 138.71 170.641C141.786 171.379 345.667 181.338 346.799 180.976C347.932 180.615 318.755 151.777 315.773 149.041C312.792 146.306 287.39 139.303 287.084 138.556C286.777 137.809 286.706 131.875 287.508 131.962C288.311 132.048 320.367 143.814 324.041 145.858C327.715 147.902 376.748 176.819 378.195 177.392C379.643 177.966 393.221 176.716 393.354 176.606C393.488 176.496 391.293 175.726 391.293 175.443C391.293 175.16 394.904 175.993 395.683 175.993C396.462 175.993 454.982 184.702 464.603 188.121C474.224 191.54 488.588 200.351 495.039 206.545C501.49 212.739 507.429 222.171 508.507 222.807C509.584 223.444 512.18 223.593 512.637 227.704C513.093 231.815 512.511 236.036 511.598 236.916C510.686 237.796 507.751 238.716 507.453 239.054C507.154 239.392 506.76 249.272 506.91 249.634C507.059 249.995 508.247 250.278 508.373 251.151C508.499 252.023 508.758 254.758 508.161 255.741Z" fill="#FFC727"/>
<path id="Vector_465" opacity="0.3" d="M384.842 233.104C383.718 235.257 382.748 237.487 381.939 239.777C346.539 238.669 185.989 233.56 186.303 232.004C186.618 230.447 356.577 232.672 384.842 233.104Z" fill="white"/>
<g id="Wheel-2">
<path id="Vector_466" d="M458.401 260.648C461.334 239.585 446.621 220.134 425.54 217.204C404.458 214.273 384.991 228.973 382.058 250.037C379.126 271.1 393.838 290.551 414.919 293.481C436.001 296.412 455.468 281.712 458.401 260.648Z" fill="#263238"/>
<path id="Vector_467" d="M431.522 281.121C445.764 274.907 452.268 258.334 446.049 244.104C439.83 229.874 423.243 223.375 409 229.589C394.758 235.803 388.255 252.376 394.474 266.606C400.693 280.836 417.28 287.335 431.522 281.121Z" fill="#DBDBDB"/>
<path id="Vector_468" d="M438.601 273.692C448.732 263.569 448.732 247.156 438.601 237.033C428.469 226.909 412.042 226.909 401.91 237.033C391.778 247.156 391.778 263.569 401.91 273.692C412.042 283.815 428.469 283.815 438.601 273.692Z" fill="#A6A6A6"/>
<path id="Vector_469" d="M415.287 249.516L423.35 248.345C420.054 244.815 427.543 229.724 427.543 229.724L423.098 228.938C420.982 234.189 419.779 235.816 417.458 236.154C415.137 236.492 413.525 235.273 409.977 230.848L405.957 232.884C405.957 232.884 417.434 245.193 415.287 249.516Z" fill="#DBDBDB"/>
<path id="Vector_470" d="M424.098 248.738L427.708 256.039C430.068 251.819 446.722 254.271 446.722 254.271L446.109 249.791C440.46 249.406 438.541 248.761 437.502 246.647C436.464 244.532 437.125 242.63 440.24 237.906L437.093 234.707C437.093 234.707 428.881 249.445 424.098 248.738Z" fill="#DBDBDB"/>
<path id="Vector_471" d="M427.567 256.865L421.729 262.555C426.449 263.475 429.289 280.075 429.289 280.075L433.364 278.11C431.988 272.608 432.003 270.604 433.687 268.969C435.37 267.334 437.384 267.358 442.851 268.867L444.913 264.858C444.913 264.858 428.369 261.628 427.567 256.865Z" fill="#DBDBDB"/>
<path id="Vector_472" d="M420.896 262.673L413.682 258.885C414.272 263.679 399.341 271.461 399.341 271.461L402.487 274.723C407.286 271.72 409.213 271.115 411.29 272.2C413.367 273.284 413.965 275.226 414.225 280.885L418.677 281.6C418.677 281.6 416.616 264.913 420.896 262.673Z" fill="#DBDBDB"/>
<path id="Vector_473" d="M413.32 258.13L414.689 250.105C410.315 252.141 398.264 240.367 398.264 240.367L396.132 244.344C400.474 247.983 401.638 249.626 401.245 251.937C400.852 254.247 399.2 255.411 393.89 257.439L394.582 261.895C394.582 261.895 409.859 254.75 413.32 258.13Z" fill="#DBDBDB"/>
<path id="Vector_474" d="M412.777 256.267C412.992 257.74 413.638 259.115 414.636 260.22C415.633 261.325 416.935 262.109 418.379 262.475C419.822 262.84 421.342 262.769 422.745 262.271C424.148 261.774 425.372 260.872 426.262 259.679C427.152 258.486 427.668 257.057 427.745 255.571C427.822 254.085 427.456 252.61 426.694 251.332C425.932 250.054 424.807 249.031 423.463 248.391C422.118 247.752 420.614 247.525 419.141 247.739C418.163 247.882 417.222 248.215 416.373 248.721C415.524 249.227 414.782 249.895 414.191 250.686C413.6 251.478 413.171 252.379 412.929 253.336C412.686 254.294 412.634 255.29 412.777 256.267V256.267Z" fill="#DBDBDB"/>
</g>
<g id="Wheel-1">
<path id="Vector_475" d="M148.904 288.075C166.944 276.79 172.412 253.029 161.118 235.004C149.823 216.979 126.042 211.515 108.002 222.8C89.9615 234.086 84.4931 257.846 95.7879 275.871C107.083 293.896 130.863 299.36 148.904 288.075Z" fill="#263238"/>
<path id="Vector_476" d="M149.804 273.764C159.921 261.978 158.561 244.228 146.765 234.119C134.969 224.01 117.204 225.37 107.086 237.156C96.9686 248.942 98.3293 266.692 110.125 276.801C121.922 286.91 139.686 285.55 149.804 273.764Z" fill="#DBDBDB"/>
<path id="Vector_477" d="M153.345 262.742C157.374 249.003 149.493 234.603 135.742 230.577C121.991 226.552 107.578 234.426 103.55 248.165C99.5208 261.904 107.402 276.305 121.153 280.33C134.903 284.356 149.316 276.481 153.345 262.742Z" fill="#A6A6A6"/>
<path id="Vector_478" d="M123.48 249.61L131.544 248.439C128.248 244.902 135.737 229.819 135.737 229.819L131.284 229.033C129.168 234.283 127.964 235.91 125.644 236.248C123.323 236.586 121.71 235.368 118.17 230.943L114.143 232.978C114.143 232.978 125.628 245.287 123.48 249.61Z" fill="#DBDBDB"/>
<path id="Vector_479" d="M132.291 248.824L135.894 256.118C138.254 251.897 154.916 254.35 154.916 254.35L154.302 249.877C148.654 249.492 146.734 248.848 145.696 246.733C144.657 244.619 145.31 242.717 148.433 237.985L145.287 234.794C145.287 234.794 137.066 249.531 132.291 248.824Z" fill="#DBDBDB"/>
<path id="Vector_480" d="M135.752 256.959L129.923 262.642C134.643 263.569 137.483 280.17 137.483 280.17L141.55 278.205C140.173 272.703 140.197 270.698 141.872 269.056C143.548 267.413 145.578 267.484 151.037 268.961L153.098 264.945C153.098 264.945 136.562 261.722 135.752 256.959Z" fill="#DBDBDB"/>
<path id="Vector_481" d="M129.089 262.768L121.875 258.979C122.457 263.774 107.526 271.555 107.526 271.555L110.673 274.817C115.472 271.815 117.399 271.209 119.476 272.294C121.553 273.379 122.151 275.32 122.402 280.94L126.855 281.663C126.855 281.663 124.802 265 129.089 262.768Z" fill="#DBDBDB"/>
<path id="Vector_482" d="M121.467 258.256L122.843 250.231C118.462 252.267 106.418 240.492 106.418 240.492L104.278 244.47C108.62 248.109 109.785 249.751 109.399 252.062C109.014 254.373 107.346 255.536 102.044 257.525L102.736 261.982C102.736 261.982 118.045 254.845 121.467 258.256Z" fill="#DBDBDB"/>
<path id="Vector_483" d="M120.963 256.362C121.178 257.834 121.824 259.209 122.821 260.314C123.817 261.419 125.119 262.204 126.562 262.569C128.005 262.935 129.525 262.865 130.928 262.368C132.331 261.871 133.555 260.97 134.446 259.778C135.336 258.586 135.853 257.157 135.931 255.672C136.009 254.186 135.644 252.711 134.883 251.433C134.122 250.154 132.999 249.13 131.656 248.49C130.312 247.849 128.809 247.621 127.335 247.834C125.36 248.123 123.58 249.184 122.386 250.782C121.191 252.381 120.68 254.387 120.963 256.362V256.362Z" fill="#DBDBDB"/>
</g>
<path id="Vector_484" d="M52.8773 179.239C50.1554 180.025 44.869 187.382 44.6094 188.821C44.3498 190.259 43.9879 199.723 45.0971 200.964C46.2063 202.206 50.0138 205.13 52.8773 204.832C55.7407 204.533 73.8419 195.966 74.9039 194.614C75.9659 193.262 75.8951 186.227 74.1173 184.215C72.3394 182.203 56.3465 178.273 52.8773 179.239Z" fill="white"/>
<path id="Vector_485" d="M74.9274 194.653C73.8418 195.973 55.7406 204.533 52.9007 204.832C50.7217 205.06 47.9841 203.401 46.3242 202.057C48.5977 203.079 50.6351 203.377 52.1455 203C53.6559 202.623 71.0256 195.211 72.4652 193.442C73.9048 191.674 73.1417 185.889 72.772 184.883C72.4022 183.877 57.959 179.381 57.959 179.381C64.4726 179.97 72.9057 182.863 74.1329 184.223C75.9108 186.258 76.013 193.325 74.9274 194.653Z" fill="#EBEBEB"/>
<path id="Vector_486" d="M458.199 198.261C460.15 202.796 477.952 212.935 484.836 215.128C489.17 216.512 504.431 219.742 505.438 219.058C506.445 218.374 500.545 207.025 497.076 203.959C493.607 200.894 475.333 191.642 469.48 191.053C463.627 190.463 456.224 193.678 458.199 198.261Z" fill="white"/>
<path id="Vector_487" d="M505.447 219.074C504.432 219.75 489.178 216.512 484.836 215.144C477.953 212.943 460.15 202.812 458.192 198.268C456.233 193.725 463.627 190.503 469.48 191.084C469.936 191.13 470.388 191.206 470.833 191.312C465.13 192.507 463.399 196.571 466.341 199.471C469.284 202.371 479.007 209.563 483.058 211.363C486.991 213.1 501.773 217.691 503.228 216.865C503.524 216.605 503.758 216.283 503.913 215.921C504.068 215.559 504.14 215.168 504.125 214.774C505.211 217.03 505.824 218.822 505.447 219.074Z" fill="#EBEBEB"/>
<g id="Group_7" opacity="0.1">
<path id="Vector_488" opacity="0.1" d="M462.094 261.463C462.188 265.55 462.039 268.207 462.416 268.333C464.084 268.883 492.262 266.375 495.315 265.526C498.367 264.678 508.161 255.733 508.161 255.733C508.161 255.733 508.208 255.654 508.224 255.607C497.971 259.041 487.286 261.017 476.482 261.479C474.515 261.549 469.536 261.541 462.094 261.463Z" fill="black"/>
<path id="Vector_489" opacity="0.1" d="M169.98 255.198C170.57 262.461 170.091 267.774 170.374 268.042C171.286 268.906 375.891 270.4 377.086 270.455C377.409 270.455 377.259 266.179 377.802 259.962C315.309 258.657 234.629 256.786 169.98 255.198Z" fill="black"/>
<path id="Vector_490" opacity="0.1" d="M39.4175 246.859C39.7243 247.582 43.9094 255.945 46.8043 256.708C49.6993 257.47 83.9901 261.596 85.7601 261.541C86.2242 261.541 86.3973 258.122 87.1997 253.108C75.8498 252.788 64.5298 251.78 53.3022 250.089C48.5293 249.038 44.0147 247.044 40.0233 244.226C40.0233 244.226 39.1107 246.144 39.4175 246.859Z" fill="black"/>
</g>
<g id="Group_8" opacity="0.2">
<path id="Vector_491" opacity="0.2" d="M361.179 259.608C361.179 247.637 361.58 230.227 361.808 218.076C361.895 214.617 361.981 211.159 362.029 207.7C362.102 207.106 362.048 206.504 361.871 205.932C359.149 200.831 349.89 186.14 346.799 180.976C351.621 188.161 356.388 195.392 360.896 202.788C361.494 203.936 362.469 205.099 362.729 206.364C362.634 224.128 361.942 241.868 361.155 259.608H361.179Z" fill="black"/>
<path id="Vector_492" opacity="0.2" d="M214.592 174.783L212.099 184.734C211.225 188.852 209.739 193.002 209.636 197.207C210.077 211.843 210.502 231.241 210.659 245.939L210.706 256.197L210.274 245.979C209.778 232.326 209.274 213.446 209.031 199.825C209.031 198.316 208.85 196.131 209.227 194.653C210.69 187.94 212.634 181.385 214.592 174.83V174.783Z" fill="black"/>
<path id="Vector_493" opacity="0.2" d="M96.01 228.679C89.0008 225.095 82.086 221.33 75.3128 217.305C74.1215 216.519 73.0732 215.536 72.2133 214.397C71.0019 212.998 69.7904 211.591 68.634 210.145C66.274 207.268 64.0084 204.368 61.7979 201.397L65.4637 205.563C68.2328 208.652 71.9144 213.242 74.8644 216.119C81.8578 220.379 89.0244 224.34 96.01 228.695V228.679Z" fill="black"/>
<path id="Vector_494" opacity="0.2" d="M457.625 195.376C439.083 193.018 420.266 190.495 401.819 187.406C393.795 184.388 386.038 180.843 378.219 177.416C381.9 178.831 398.672 185.63 402.015 186.746C419.519 189.52 440.208 192.397 457.648 195.392L457.625 195.376Z" fill="black"/>
<path id="Vector_495" opacity="0.2" d="M244.186 198.889C243.691 200.595 243.03 202.709 241.283 203.519C238.933 203.78 236.564 203.84 234.203 203.7C231.851 203.656 229.507 203.42 227.194 202.992C226.919 202.932 226.653 202.832 226.407 202.694C225.196 201.585 224.74 199.99 224.244 198.496C224.913 199.809 225.558 201.35 226.691 202.285C227.145 202.432 227.615 202.525 228.091 202.56C232.174 202.898 236.351 203.024 240.449 203.047C240.913 203.102 241.379 202.972 241.747 202.686C242.843 201.621 243.685 200.324 244.21 198.889H244.186Z" fill="black"/>
<path id="Vector_496" opacity="0.2" d="M244.328 196.217C243.927 194.818 243.455 193.073 242.283 192.216C241.805 192.082 241.315 191.995 240.82 191.957C237.681 191.679 234.528 191.603 231.38 191.729C229.248 191.729 227.32 192.13 225.826 193.741C225.054 194.438 224.401 195.256 223.891 196.162C224.284 195.168 224.86 194.256 225.59 193.474C226.3 192.64 227.183 191.969 228.178 191.509C229.219 191.201 230.295 191.024 231.38 190.982C234.56 190.778 237.752 190.904 240.906 191.36C241.461 191.44 242.004 191.582 242.527 191.784C243.848 192.869 244.1 194.653 244.328 196.217V196.217Z" fill="black"/>
<path id="Vector_497" opacity="0.2" d="M243.683 196.052C246.932 196.759 246.727 198.661 243.478 199.054C239.411 199.455 235.321 199.4 231.246 199.416C228.728 199.235 225.944 199.73 223.529 198.63C222.309 198.033 221.955 196.681 223.363 196.005C225.936 195.007 228.807 195.533 231.474 195.423C235.552 195.43 239.627 195.643 243.683 196.06V196.052ZM243.683 196.052C237.649 195.392 231.45 195.745 225.409 196.17C224.41 196.256 222.042 196.956 223.89 197.946C225.212 198.622 226.722 198.489 228.209 198.606C233.26 198.787 238.436 199.212 243.463 198.944C246.68 198.654 246.908 196.791 243.683 196.052V196.052Z" fill="black"/>
</g>
<path id="Vector_498" d="M507.46 239.054C507.46 239.054 489.115 240.681 488.887 240.626C488.659 240.571 488.101 238.048 486.567 237.977C485.033 237.906 479.707 242.45 478.857 246.82C478.008 251.19 479.007 254.467 481.784 254.137C484.561 253.807 488.352 248.195 488.352 248.195C488.352 248.195 502.434 247.409 502.772 247.669C503.337 248.176 503.939 248.641 504.573 249.06C505.34 249.326 506.13 249.518 506.933 249.634L507.46 239.054Z" fill="#263238"/>
<path id="Vector_499" d="M333.237 189.159C331.994 187.296 334.944 173.439 336.305 172.519C337.666 171.599 353.337 173.714 352.825 182.596C352.314 191.477 335.173 192.075 333.237 189.159Z" fill="#FFC727"/>
<path id="Vector_500" opacity="0.1" d="M333.237 189.159C331.994 187.296 334.944 173.439 336.305 172.519C337.666 171.599 353.337 173.714 352.825 182.596C352.314 191.477 335.173 192.075 333.237 189.159Z" fill="black"/>
<g id="Group_9" opacity="0.4">
<path id="Vector_501" opacity="0.4" d="M176.07 235.124C171.971 222.006 162.193 210.703 149.457 205.39C134.628 199.44 116.582 199.597 102.878 208.353C94.4338 213.881 87.8541 221.825 83.998 231.147C85.6599 226.359 88.0708 221.865 91.141 217.832C104.459 199.911 127.941 195.824 148.19 203.409C161.957 208.534 172.577 221.039 176.03 235.14L176.07 235.124Z" fill="white"/>
<path id="Vector_502" opacity="0.4" d="M467.522 235.989C463.423 222.862 453.645 211.56 440.909 206.246C426.08 200.296 408.034 200.461 394.33 209.217C385.884 214.744 379.304 222.688 375.45 232.011C377.125 227.213 379.552 222.711 382.64 218.673C395.959 200.76 419.441 196.665 439.689 204.25C453.456 209.375 464.076 221.888 467.53 235.989H467.522Z" fill="white"/>
<path id="Vector_503" opacity="0.4" d="M332.703 198.52C271.107 196.162 208.889 192.743 147.411 188.302C209.007 190.66 271.225 194.087 332.703 198.52Z" fill="white"/>
</g>
</g>
</g>
</svg>
