<svg width="473" height="106" viewBox="0 0 473 106" fill="none" xmlns="http://www.w3.org/2000/svg">
<g id="Graph">
<g id="Group">
<path id="Vector" d="M3.13871 3.6528L54.9804 92.5242L106.822 103.386L158.664 65.8628L210.505 10.565L262.347 59.938L314.189 2.66534L366.03 88.5744L417.872 12.5399L469.714 92.5242" stroke="#EF7CF4" stroke-width="0.740595"/>
<g id="Group_2">
<path id="Vector_2" d="M3.13873 5.8746C4.36579 5.8746 5.36052 4.87987 5.36052 3.65282C5.36052 2.42576 4.36579 1.43103 3.13873 1.43103C1.91167 1.43103 0.916946 2.42576 0.916946 3.65282C0.916946 4.87987 1.91167 5.8746 3.13873 5.8746Z" fill="white" stroke="#EF7CF4" stroke-width="0.740595"/>
<path id="Vector_3" d="M54.9804 94.746C56.2074 94.746 57.2022 93.7513 57.2022 92.5242C57.2022 91.2972 56.2074 90.3024 54.9804 90.3024C53.7533 90.3024 52.7586 91.2972 52.7586 92.5242C52.7586 93.7513 53.7533 94.746 54.9804 94.746Z" fill="white" stroke="#EF7CF4" stroke-width="0.740595"/>
<path id="Vector_4" d="M106.822 105.608C108.049 105.608 109.044 104.613 109.044 103.386C109.044 102.159 108.049 101.165 106.822 101.165C105.595 101.165 104.6 102.159 104.6 103.386C104.6 104.613 105.595 105.608 106.822 105.608Z" fill="white" stroke="#EF7CF4" stroke-width="0.740595"/>
<path id="Vector_5" d="M158.664 68.0846C159.891 68.0846 160.886 67.0899 160.886 65.8628C160.886 64.6357 159.891 63.641 158.664 63.641C157.437 63.641 156.442 64.6357 156.442 65.8628C156.442 67.0899 157.437 68.0846 158.664 68.0846Z" fill="white" stroke="#EF7CF4" stroke-width="0.740595"/>
<path id="Vector_6" d="M210.505 12.7868C211.732 12.7868 212.727 11.7921 212.727 10.565C212.727 9.33799 211.732 8.34326 210.505 8.34326C209.278 8.34326 208.284 9.33799 208.284 10.565C208.284 11.7921 209.278 12.7868 210.505 12.7868Z" fill="white" stroke="#EF7CF4" stroke-width="0.740595"/>
<path id="Vector_7" d="M262.347 62.1598C263.574 62.1598 264.569 61.1651 264.569 59.938C264.569 58.711 263.574 57.7162 262.347 57.7162C261.12 57.7162 260.125 58.711 260.125 59.938C260.125 61.1651 261.12 62.1598 262.347 62.1598Z" fill="white" stroke="#EF7CF4" stroke-width="0.740595"/>
<path id="Vector_8" d="M314.189 4.88711C315.416 4.88711 316.41 3.89239 316.41 2.66533C316.41 1.43827 315.416 0.443542 314.189 0.443542C312.962 0.443542 311.967 1.43827 311.967 2.66533C311.967 3.89239 312.962 4.88711 314.189 4.88711Z" fill="white" stroke="#EF7CF4" stroke-width="0.740595"/>
<path id="Vector_9" d="M366.03 90.7962C367.257 90.7962 368.252 89.8015 368.252 88.5744C368.252 87.3474 367.257 86.3526 366.03 86.3526C364.803 86.3526 363.809 87.3474 363.809 88.5744C363.809 89.8015 364.803 90.7962 366.03 90.7962Z" fill="white" stroke="#EF7CF4" stroke-width="0.740595"/>
<path id="Vector_10" d="M417.872 14.7617C419.099 14.7617 420.094 13.767 420.094 12.54C420.094 11.3129 419.099 10.3182 417.872 10.3182C416.645 10.3182 415.65 11.3129 415.65 12.54C415.65 13.767 416.645 14.7617 417.872 14.7617Z" fill="white" stroke="#EF7CF4" stroke-width="0.740595"/>
<path id="Vector_11" d="M469.714 94.746C470.941 94.746 471.936 93.7513 471.936 92.5242C471.936 91.2972 470.941 90.3024 469.714 90.3024C468.487 90.3024 467.492 91.2972 467.492 92.5242C467.492 93.7513 468.487 94.746 469.714 94.746Z" fill="white" stroke="#EF7CF4" stroke-width="0.740595"/>
</g>
</g>
<circle id="Ellipse 1" cx="103.86" cy="41.9169" r="11.8495" fill="#6EDC2A" fill-opacity="0.6"/>
<circle id="Ellipse 2" cx="200.878" cy="89.315" r="11.8495" fill="#6EDC2A" fill-opacity="0.6"/>
<circle id="Ellipse 3" cx="368.252" cy="30.0674" r="11.8495" fill="#6EDC2A" fill-opacity="0.6"/>
</g>
</svg>
