<svg width="194" height="162" viewBox="0 0 194 162" fill="none" xmlns="http://www.w3.org/2000/svg">
<path d="M26.6213 132.608C26.6213 142.604 20.6619 146.094 13.3106 146.094C5.95937 146.094 0 142.604 0 132.608C0 122.612 13.3106 109.896 13.3106 109.896C13.3106 109.896 26.6213 122.612 26.6213 132.608Z" fill="#F2F2F2"/>
<path d="M12.8258 144.565L12.9622 136.199L18.6355 125.85L12.9834 134.887L13.0449 131.125L16.9549 123.638L13.0611 130.13L13.1712 123.365L17.3582 117.404L13.1886 122.301L13.2575 109.896L12.8246 126.318L12.8603 125.641L8.60325 119.143L12.792 126.941L12.3953 134.497L12.3835 134.296L7.47607 127.459L12.3685 135.005L12.3191 135.949L12.3102 135.964L12.3141 136.041L11.3078 155.211H12.6524L12.8138 145.309L17.6944 137.782L12.8258 144.565Z" fill="#F2F2F2"/>
<path d="M26.6213 132.608C26.6213 142.604 20.6619 146.094 13.3106 146.094C5.95937 146.094 0 142.604 0 132.608C0 122.612 13.3106 109.896 13.3106 109.896C13.3106 109.896 26.6213 122.612 26.6213 132.608Z" fill="#F2F2F2"/>
<path d="M12.8258 144.565L12.9622 136.199L18.6355 125.85L12.9834 134.887L13.0449 131.125L16.9549 123.638L13.0611 130.13L13.1712 123.365L17.3582 117.404L13.1886 122.301L13.2575 109.896L12.8246 126.318L12.8603 125.641L8.60325 119.143L12.792 126.941L12.3953 134.497L12.3835 134.296L7.47607 127.459L12.3685 135.005L12.3191 135.949L12.3102 135.964L12.3141 136.041L11.3078 155.211H12.6524L12.8138 145.309L17.6944 137.782L12.8258 144.565Z" fill="#3F3D56"/>
<path d="M97.0179 162C150.233 162 193.372 159.172 193.372 155.684C193.372 152.196 150.233 149.369 97.0179 149.369C43.8029 149.369 0.663574 152.196 0.663574 155.684C0.663574 159.172 43.8029 162 97.0179 162Z" fill="#3F3D56"/>
<path opacity="0.1" d="M44.8952 159.101C58.199 159.101 68.9838 157.218 68.9838 154.895C68.9838 152.572 58.199 150.689 44.8952 150.689C31.5915 150.689 20.8066 152.572 20.8066 154.895C20.8066 157.218 31.5915 159.101 44.8952 159.101Z" fill="black"/>
<path opacity="0.1" d="M145.818 159.515C159.122 159.515 169.907 157.893 169.907 155.891C169.907 153.89 159.122 152.268 145.818 152.268C132.514 152.268 121.729 153.89 121.729 155.891C121.729 157.893 132.514 159.515 145.818 159.515Z" fill="black"/>
<path d="M49.0156 80.3215L56.1457 80.595C56.1457 80.595 62.4531 83.603 62.4531 86.0641C62.4531 88.5251 55.0488 83.3295 55.0488 83.3295L49.0156 83.0561L49.0156 80.3215Z" fill="#FFB9B9"/>
<path opacity="0.1" d="M49.0156 80.3215L56.1457 80.595C56.1457 80.595 62.4531 83.603 62.4531 86.0641C62.4531 88.5251 55.0488 83.3295 55.0488 83.3295L49.0156 83.0561L49.0156 80.3215Z" fill="black"/>
<path d="M49.2901 78.1339C49.2901 78.1339 50.6613 81.4153 50.387 83.056C50.1128 84.6968 39.6919 84.1499 39.6919 84.1499L41.3373 79.2277L49.2901 78.1339Z" fill="#FFB9B9"/>
<path d="M39.4176 137.474L38.8691 144.857L43.5311 145.13L44.3537 138.02L39.4176 137.474Z" fill="#FFB9B9"/>
<path d="M39.4177 82.5091L38.3207 85.2437C38.3207 85.2437 35.8526 87.7048 36.4011 93.7208C36.9496 99.7368 37.2238 100.01 37.2238 100.01C37.2238 100.01 35.0299 138.02 36.9496 138.294C38.8692 138.567 49.5644 143.763 50.6613 137.747C51.7582 131.731 52.3067 107.393 52.3067 107.393L39.6919 84.6968L39.4177 82.5091Z" fill="#2F2E41"/>
<path opacity="0.1" d="M39.4177 82.5091L38.3207 85.2437C38.3207 85.2437 35.8526 87.7048 36.4011 93.7208C36.9496 99.7368 37.2238 100.01 37.2238 100.01C37.2238 100.01 35.0299 138.02 36.9496 138.294C38.8692 138.567 49.5644 143.763 50.6613 137.747C51.7582 131.731 52.3067 107.393 52.3067 107.393L39.6919 84.6968L39.4177 82.5091Z" fill="black"/>
<path d="M51.7581 133.098L49.29 136.653L53.4036 138.294L56.9687 132.551L51.7581 133.098Z" fill="#FFB9B9"/>
<path d="M49.2898 57.0779C52.7733 57.0779 55.5972 54.262 55.5972 50.7884C55.5972 47.3149 52.7733 44.499 49.2898 44.499C45.8063 44.499 42.9824 47.3149 42.9824 50.7884C42.9824 54.262 45.8063 57.0779 49.2898 57.0779Z" fill="#FFB9B9"/>
<path d="M44.354 48.6008C44.354 48.6008 38.8693 54.3433 37.2239 54.6168C35.5785 54.8902 42.9829 59.539 42.9829 59.539V57.8982C42.9829 57.8982 45.451 55.4372 46.8221 55.1637C48.1933 54.8902 44.354 48.6008 44.354 48.6008Z" fill="#FFB9B9"/>
<path d="M39.9659 81.1419L38.3205 85.2437C38.3205 85.2437 35.0297 93.4473 39.6917 97.8226C44.3537 102.198 57.7911 115.871 57.2427 118.879C56.6942 121.887 48.5655 132.519 51.1216 133.902C53.6776 135.286 81.6495 130.364 81.9238 127.082C82.0266 125.852 81.0111 123.467 79.7015 120.968C77.2292 116.283 74.1866 111.92 70.6426 107.978L52.0322 87.1579C52.0322 87.1579 50.1126 83.056 50.661 82.2357C50.661 82.2357 48.4671 80.048 41.8855 81.6888L39.9659 81.1419Z" fill="#2F2E41"/>
<path d="M38.5947 144.036C38.5947 144.036 37.2235 148.412 36.6751 148.685C36.1266 148.958 35.5781 151.967 36.1266 152.513C36.6751 153.06 36.9493 155.521 36.9493 155.521H37.4978L37.772 152.787C37.772 152.787 43.4535 156.207 44.3536 156.615C45.8619 157.299 52.5807 157.162 52.3064 155.795C52.0322 154.428 44.0794 150.052 44.3536 148.959C44.6279 147.865 43.8052 144.583 43.8052 144.583L38.5947 144.036Z" fill="#2F2E41"/>
<path d="M54.2264 138.02L48.7417 135.833C48.7417 135.833 47.3705 138.02 45.7251 138.02C44.0797 138.02 42.8007 140.009 42.8917 140.109C42.9828 140.208 40.5146 143.489 40.5146 143.489L40.9578 144.284L44.0797 142.396L44.9546 146.06C45.4361 148.129 46.3842 150.062 47.7268 151.711C48.8026 153.016 50.1433 154.124 51.484 153.881C51.484 153.881 52.0325 153.881 51.484 150.052C50.9356 146.224 52.0325 142.122 52.0325 142.122L54.2264 138.02Z" fill="#2F2E41"/>
<path d="M39.9659 54.3433C39.9659 54.3433 40.5144 55.7106 41.0628 55.9841C41.6113 56.2575 43.2567 57.3513 43.5309 58.4452C43.8052 59.539 45.1763 62.8204 45.1763 62.8204C45.1763 62.8204 48.1929 64.4611 47.9187 67.4691C47.6444 70.4771 47.3702 72.9382 47.9187 73.2117C48.4671 73.4851 49.0156 73.4851 48.7414 74.3055C48.4672 75.1259 49.2899 75.9462 49.5641 76.2197C49.8383 76.4931 50.3868 75.9462 49.8383 76.7666C49.2899 77.5869 49.5641 77.8604 49.8383 78.1339C50.1126 78.4073 50.3868 78.4073 50.1126 78.9542C49.8383 79.5011 39.6916 83.056 39.1432 83.056C38.5947 83.056 38.5947 82.5091 38.8689 81.6888C39.1432 80.8684 40.2401 80.048 39.1432 79.7746C38.0462 79.5011 37.772 79.5011 37.772 78.1338C37.772 76.7666 33.11 68.563 33.11 68.563C33.11 68.563 31.1904 62.2735 33.11 59.539C35.0297 56.8044 36.4008 54.8903 37.4978 54.3433C38.5947 53.7964 39.9659 54.3433 39.9659 54.3433Z" fill="#6C63FF"/>
<path d="M30.9162 67.1957L27.6254 76.2197L21.0437 95.6349C21.0437 95.6349 14.1879 105.206 18.8498 104.659C23.5118 104.112 24.0603 95.6349 24.0603 95.6349L30.3677 80.595L36.1266 69.1099L30.9162 67.1957Z" fill="#FFB9B9"/>
<path d="M34.2071 59.2655L33.1102 59.539C33.1102 59.539 29.2709 67.1957 30.0936 68.0161C30.9163 68.8364 35.3041 71.0241 36.1267 70.7506C36.9494 70.4772 38.0464 62.547 38.0464 62.547L34.2071 59.2655Z" fill="#6C63FF"/>
<path d="M34.5301 48.4007C36.6578 47.4678 39.2324 45.4256 41.6773 43.7403C42.4696 43.1941 43.2412 42.6209 44.0089 42.0408C45.5562 40.8715 49.2797 40.4659 52.4934 42.5207C56.1666 44.8692 57.959 48.6163 56.9646 50.1627C56.1424 51.4413 53.4133 51.2171 50.4167 49.7742C49.9953 52.5736 49.032 55.3634 47.9796 57C45.5982 60.7034 43.5947 57.212 39.8807 54.8373C36.1667 52.4627 30.4914 50.1715 34.5301 48.4007Z" fill="#2F2E41"/>
<path d="M84.3509 111.268C91.3468 111.268 97.0181 105.613 97.0181 98.6368C97.0181 91.6608 91.3468 86.0056 84.3509 86.0056C77.3549 86.0056 71.6836 91.6608 71.6836 98.6368C71.6836 105.613 77.3549 111.268 84.3509 111.268Z" fill="#6C63FF"/>
<path d="M131.205 156.394L132.2 156.939C132.2 156.939 130.873 157.593 130.527 157.473C130.181 157.354 129.119 156.6 129.119 156.6L128.205 157.582L127.886 156.591L131.205 156.394Z" fill="#3F3D56"/>
<path d="M134.09 155.056C134.09 155.056 130.729 152.953 133.659 153.456C135.457 153.759 137.285 153.846 139.104 153.715L139.534 155.315L134.09 155.056Z" fill="#3F3D56"/>
<path d="M138.331 158.224C138.331 158.224 135.213 157.529 137.632 157.136C139.122 156.888 140.58 156.473 141.976 155.898L142.675 156.986L138.331 158.224Z" fill="#3F3D56"/>
</svg>
