<svg width="316" height="294" viewBox="0 0 316 294" fill="none" xmlns="http://www.w3.org/2000/svg">
<g id="Superhero">
<g id="freepik--background-complete--inject-12">
<path id="Vector" d="M66.9848 151.548L0.0507812 151.449C0.0507812 151.449 3.38182 147.117 7.05666 146.582C7.05666 146.582 14.223 125.351 26.1567 125.19C37.2576 125.068 41.6888 138.285 41.6888 138.285C41.6888 138.285 46.8458 132.364 51.7583 135.084C56.6708 137.804 59.4441 145.581 59.4441 145.581C59.4441 145.581 64.9831 148.584 66.9848 151.548Z" fill="#EBEBEB"/>
<path id="Vector_2" d="M231.344 47.2776L315.988 47.4075C315.988 47.4075 315.988 41.9984 304.337 40.9211C304.337 40.9211 293.725 17.2371 277.467 20.4154C267.306 22.3788 262.111 36.276 262.111 36.276C262.111 36.276 254.471 25.3279 248.359 27.4365C242.247 29.5452 238.587 41.1885 238.587 41.1885C238.587 41.1885 232.269 44.2216 231.344 47.2776Z" fill="#EBEBEB"/>
<path id="Vector_3" d="M45.2949 226.382L129.938 226.512C129.938 226.512 129.938 221.103 118.287 220.026C118.287 220.026 107.676 196.342 91.4176 199.52C81.2946 201.483 76.1376 215.373 76.1376 215.373C76.1376 215.373 68.4976 204.425 62.3856 206.533C56.2736 208.642 52.614 220.285 52.614 220.285C52.614 220.285 46.2576 223.326 45.2949 226.382Z" fill="#EBEBEB"/>
<path id="Vector_4" d="M87.6206 22.2413L145.173 22.333C145.173 22.333 139.748 17.2677 137.334 17.26C134.92 17.2524 127.906 0.276326 118.899 0.986846C109.891 1.69737 105.101 14.3263 105.101 14.3263C105.101 14.3263 94.1604 10.8806 87.6206 22.2413Z" fill="#EBEBEB"/>
<path id="Vector_5" d="M206.033 253.947L263.585 254.031C263.585 254.031 258.168 248.974 255.754 248.966C253.34 248.958 246.318 231.982 237.311 232.685C228.303 233.388 223.513 246.025 223.513 246.025C223.513 246.025 212.58 242.556 206.033 253.947Z" fill="#EBEBEB"/>
<path id="Vector_6" d="M221.152 149.058L270.369 149.134C270.369 149.134 267.924 145.941 265.227 145.543C265.227 145.543 260.009 129.912 251.223 129.782C243.056 129.667 239.763 139.378 239.763 139.378C239.763 139.378 235.989 135.015 232.368 137.002C228.746 138.988 226.699 144.688 226.699 144.688C226.699 144.688 222.627 146.865 221.152 149.058Z" fill="#EBEBEB"/>
</g>
<g id="freepik--Lines--inject-12">
<path id="Vector_7" d="M93.9231 180.955C88.8578 184.843 83.7466 188.671 78.6431 192.483L63.2332 203.852L47.7011 215.052L39.9083 220.614L32.062 226.107L39.702 220.308L47.342 214.578L62.7519 203.21L78.2687 191.987C83.4792 188.312 88.6744 184.591 93.9231 180.955Z" fill="#263238"/>
<path id="Vector_8" d="M68.4362 259.67C64.7079 262.58 60.9337 265.43 57.1519 268.272C53.3701 271.114 49.5119 273.895 45.7454 276.676C41.9789 279.457 38.0901 282.284 34.2319 285.011L28.4332 289.114C26.4926 290.451 24.5597 291.819 22.5962 293.148C24.4527 291.681 26.3474 290.253 28.2192 288.809L33.8881 284.576C37.7081 281.734 41.5281 278.953 45.2946 276.134C49.0612 273.315 52.9346 270.58 56.8081 267.837C60.6816 265.094 64.5245 262.328 68.4362 259.67Z" fill="#263238"/>
<path id="Vector_9" d="M222.565 195.081C218.837 198 215.063 200.849 211.281 203.691C207.499 206.533 203.679 209.314 199.874 212.134C196.07 214.953 192.234 217.688 188.369 220.431L182.578 224.526C180.629 225.87 178.696 227.238 176.733 228.56C178.597 227.1 180.484 225.672 182.356 224.228L188.017 219.957C191.837 217.115 195.657 214.326 199.424 211.515C203.19 208.703 207.064 205.96 210.937 203.218C214.811 200.475 218.654 197.747 222.565 195.081Z" fill="#263238"/>
<path id="Vector_10" d="M287.192 97.6558C283.464 100.574 279.69 103.424 275.908 106.258C272.126 109.093 268.268 111.889 264.501 114.701C260.735 117.512 256.861 120.263 252.988 122.998L247.197 127.1C245.249 128.445 243.323 129.805 241.36 131.134C243.216 129.667 245.103 128.246 246.975 126.795L252.644 122.524C256.426 119.69 260.246 116.901 264.051 114.12C267.855 111.339 271.691 108.558 275.557 105.815C279.422 103.073 283.296 100.314 287.192 97.6558Z" fill="#263238"/>
<path id="Vector_11" d="M61.0711 94.2331C57.3428 97.1515 53.5686 100.001 49.7868 102.836C46.005 105.67 42.1468 108.466 38.3803 111.24C34.6138 114.013 30.7403 116.802 26.8745 119.537L21.0834 123.639C19.1352 124.984 17.2022 126.344 15.2388 127.673C17.1029 126.206 18.99 124.785 20.8618 123.334L26.5231 119.063C30.3431 116.229 34.163 113.44 37.9296 110.659C41.6961 107.878 45.5696 105.097 49.443 102.362C53.3165 99.6269 57.1518 96.8918 61.0711 94.2331Z" fill="#263238"/>
<path id="Vector_12" d="M278.254 93.9733C276.015 95.7993 273.731 97.5641 271.439 99.3213C269.147 101.079 266.809 102.767 264.502 104.501C262.194 106.236 259.826 107.878 257.458 109.536L253.897 112.004C252.698 112.768 251.514 113.623 250.299 114.403C251.407 113.478 252.553 112.6 253.683 111.698L257.114 109.055C259.406 107.305 261.698 105.609 264.051 103.882C266.404 102.156 268.726 100.498 271.095 98.8476C273.463 97.1974 275.832 95.5472 278.254 93.9733Z" fill="#263238"/>
<path id="Vector_13" d="M57.6637 87.4029C55.4329 89.2289 53.1409 90.9937 50.8489 92.7509C48.5569 94.5081 46.2649 96.2042 43.9117 97.9308C41.5586 99.6575 39.2361 101.315 36.8677 102.966L33.3151 105.433C32.1079 106.236 30.9237 107.053 29.709 107.832C30.8244 106.915 32.001 106.029 33.0935 105.128L36.5239 102.484C38.8159 100.735 41.1079 99.031 43.461 97.3043C45.8141 95.5777 48.1367 93.9198 50.5051 92.2696C52.8735 90.6193 55.2419 88.992 57.6637 87.4029Z" fill="#263238"/>
<path id="Vector_14" d="M93.5413 167.539C89.813 170.45 86.0389 173.299 82.2571 176.141C78.4753 178.984 74.6171 181.765 70.8505 184.584C67.084 187.403 63.2105 190.138 59.3447 192.881L53.5536 196.983C51.6054 198.328 49.6725 199.688 47.709 201.017C49.5731 199.55 51.4602 198.122 53.332 196.678L58.9933 192.407C62.8133 189.565 66.6333 186.784 70.3998 183.965C74.1663 181.146 78.0398 178.411 81.9133 175.668C85.7867 172.925 89.6297 170.198 93.5413 167.539Z" fill="#263238"/>
<path id="Vector_15" d="M187.566 206.938L175.381 216.091L163.141 225.183L138.594 243.259L113.947 261.198L101.586 270.113L89.1709 278.968L101.364 269.816L113.596 260.724L138.143 242.648L162.798 224.709L175.159 215.793L187.566 206.938Z" fill="#263238"/>
</g>
<g id="freepik--Character--inject-12">
<path id="Vector_16" d="M228.716 62.8403C222.795 68.4404 216.63 76.1568 208.539 78.5863C202.19 80.4734 195.398 78.8231 189.569 76.0727C176.764 70.0142 164.357 56.7665 168.177 41.4865C169.705 35.3745 177.398 27.9255 184.29 29.9119C187.827 30.9433 190.577 33.4186 193.572 35.4432C195.382 36.7543 197.464 37.641 199.664 38.0378C201.863 38.4346 204.124 38.3312 206.278 37.7352C215.316 35.4432 219.395 30.8057 226.753 25.5112C227.444 24.935 228.249 24.5101 229.115 24.2641C229.981 24.018 230.889 23.9561 231.78 24.0825C233.854 24.2525 235.843 24.9841 237.533 26.1988C239.23 27.013 240.697 28.2365 241.804 29.7591C244.096 33.0595 243.821 38.377 244.096 42.2199C244.371 46.0628 243.477 48.7903 240.658 51.5407C236.692 55.376 232.689 59.0737 228.716 62.8403Z" fill="#263238"/>
<path id="Vector_17" d="M226.47 66.1102C231.566 60.6247 236.555 55.0551 241.574 49.5085C241.574 49.5085 241.574 49.4244 241.528 49.455C237.265 53.9015 232.941 58.2792 228.731 62.7792C224.522 67.2791 220.648 72.0083 216.163 76.0422C206.071 85.0956 192.777 78.1432 185.749 68.9828C185.428 68.5703 184.801 69.128 185.137 69.5329C191.563 77.3868 202.098 84.2857 212.435 79.3961C218.096 76.768 222.298 70.5872 226.47 66.1102Z" fill="#263238"/>
<path id="Vector_18" d="M227.692 25.58C227.799 25.4883 227.654 25.3279 227.54 25.4196C221.672 30.0036 215.262 35.9628 207.576 36.9942C203.789 37.4978 199.937 36.8426 196.529 35.1147C193.832 33.7472 191.815 31.5621 189.47 29.7209C180.302 22.524 168.513 32.54 169.384 42.7776C169.384 42.9916 169.774 42.9686 169.766 42.7776C169.468 35.2981 174.633 28.2616 182.464 27.8338C188.751 27.4747 192.396 34.0757 197.812 36.2378C209.12 40.7683 219.64 32.8074 227.692 25.58Z" fill="#263238"/>
<path id="Vector_19" d="M66.5034 39.9966C68.6349 36.2989 120.923 40.3863 165.266 44.9168H165.304C185.313 46.9643 204.719 47.3387 216.736 49.3633C224.376 50.6468 228.196 53.9473 228.96 55.1009C231.512 59.0126 235.638 71.0685 213.505 83.155C196.773 92.323 177.872 100.016 162.752 115.243C147.633 130.47 137.792 150.647 137.082 165.102C136.371 179.557 145.211 194.47 144.347 192.858C144.08 192.369 140.184 192.155 135.133 188.388C128.937 183.804 122.145 174.736 117.21 171.748C107.102 165.636 92.5787 164.788 82.6314 152.075C72.134 138.652 71.668 117.13 67.9397 99.688C63.4092 78.5099 48.1215 71.9242 66.5034 39.9966Z" fill="#37474F"/>
<path id="Vector_20" d="M69.4147 107.557C68.9639 104.876 68.4902 102.209 67.9401 99.688C66.7921 94.7697 65.1355 89.9842 62.9971 85.4088C62.9971 85.4088 111.014 79.167 123.972 86.3944C131.062 90.3443 108.998 89.756 69.4147 107.557Z" fill="#263238"/>
<path id="Vector_21" d="M124.797 178.533C122.039 175.675 119.449 173.093 117.203 171.741C114.599 170.238 111.872 168.96 109.051 167.921C114.277 148.874 119.212 135.871 128.609 127.956C134.629 122.875 117.355 154.016 124.797 178.533Z" fill="#263238"/>
<path id="Vector_22" d="M71.8289 122.509C71.401 120.087 71.0114 117.65 70.6294 115.212C86.3831 110.865 100.135 103.554 100.051 105.624C99.9364 107.878 82.4408 117.138 71.8289 122.509Z" fill="#263238"/>
<path id="Vector_23" d="M47.7627 80.8936C47.7627 80.8936 45.6922 61.2741 61.4306 39.7445C62.9586 37.6512 86.2683 30.7217 101.258 31.1877C116.248 31.6538 127.035 37.3456 144.378 41.9525C161.721 46.5594 209.318 46.2691 220.343 49.9974C227.944 52.5568 228.93 55.1162 228.93 55.1162C228.93 55.1162 220.152 51.1893 214.658 50.6468C192.953 48.5076 153.179 55.5517 143.102 54.2453C130.809 52.6409 117.226 49.9516 106.957 51.1893C95.4516 52.595 55.1124 74.6441 47.7627 80.8936Z" fill="#455A64"/>
<path id="Vector_24" d="M220.511 96.525C219.525 101.978 217.525 107.198 214.613 111.912C201.923 132.349 175.61 165.766 169.613 175.087C158.703 192.086 107.271 226.512 107.271 226.512L91.2266 201.583C91.2266 201.583 140.436 157.79 141.062 156.652C144.63 150.188 172.967 108.726 173.043 107.397C173.731 93.7975 185.504 82.116 185.504 82.116L220.511 96.525Z" fill="#263238"/>
<path id="Vector_25" d="M220.503 96.525C219.623 101.479 217.897 106.245 215.4 110.613C198.76 111.706 179.431 107.259 173.158 105.67C174.717 92.812 185.504 82.116 185.504 82.116L220.503 96.525Z" fill="#455A64"/>
<path id="Vector_26" d="M83.4569 263.016C82.1963 261.755 66.519 216.863 66.7406 214.693C66.7406 214.319 72.3484 211.973 81.5011 208.367C82.1352 208.115 127.463 168.043 127.463 168.043L149.062 198.152L92.3499 236.979C92.3499 236.979 89.4008 256.079 88.8966 258.424C88.3924 260.77 84.7175 264.277 83.4569 263.016Z" fill="#FFC727"/>
<path id="Vector_27" opacity="0.3" d="M149.061 198.152L141.261 203.5L120.121 174.56L127.463 168.074L149.061 198.152Z" fill="white"/>
<path id="Vector_28" opacity="0.1" d="M149.069 198.152L122.459 216.358L122.619 172.329C125.599 169.693 127.471 168.051 127.471 168.051L149.069 198.152Z" fill="black"/>
<path id="Vector_29" opacity="0.1" d="M174.182 110.972C172.114 114.752 169.957 118.477 167.711 122.15C165.488 125.832 163.188 129.469 160.873 133.098C158.558 136.727 156.174 140.302 153.737 143.847C151.3 147.392 148.832 150.922 146.166 154.322L149.413 148.737C150.513 146.88 151.613 145.031 152.736 143.198C154.967 139.523 157.275 135.894 159.612 132.273C161.95 128.651 164.311 125.06 166.733 121.508C169.155 117.955 171.615 114.433 174.182 110.972Z" fill="white"/>
<path id="Vector_30" d="M158.527 190.902L154.593 161.572C154.593 161.572 201.082 147.782 202.274 145.138C202.748 144.107 172.608 124.296 172.906 102.11C173.059 91.0319 185.328 82.1236 185.328 82.1236L213.291 93.8128C213.291 93.8128 209.295 103.561 210.525 105.204C213.192 108.78 248.267 136.528 246.296 153.955C244.248 172.016 158.527 190.902 158.527 190.902Z" fill="#263238"/>
<path id="Vector_31" d="M210.525 105.189C197.736 100.819 183.38 105.953 174.182 110.537C173.32 107.819 172.89 104.984 172.906 102.133C173.059 91.0548 185.328 82.1465 185.328 82.1465L213.298 93.8357C213.298 93.8357 209.303 103.508 210.525 105.189Z" fill="#455A64"/>
<path id="Vector_32" d="M200.7 97.1591C202.714 97.9258 204.574 99.0461 206.193 100.467C207.014 101.158 207.792 101.898 208.524 102.683C209.254 103.466 209.923 104.304 210.525 105.189C208.883 103.821 207.324 102.4 205.704 101.048C204.902 100.368 204.085 99.7109 203.252 99.0615C202.419 98.4121 201.586 97.7627 200.7 97.1591Z" fill="#263238"/>
<path id="Vector_33" d="M205.789 98.7101C206.413 98.9427 206.988 99.2899 207.485 99.7338C207.989 100.168 208.44 100.661 208.829 101.201C209.602 102.284 210.098 103.541 210.273 104.86C209.899 104.31 209.586 103.752 209.242 103.218C208.898 102.683 208.562 102.156 208.203 101.644C207.47 100.609 206.663 99.6282 205.789 98.7101Z" fill="#263238"/>
<path id="Vector_34" d="M202.312 145.123C203.348 145.5 204.336 146.001 205.253 146.613C206.177 147.214 207.057 147.877 207.889 148.599C208.719 149.315 209.505 150.08 210.242 150.891C210.978 151.709 211.652 152.58 212.259 153.496C210.594 152.053 209.028 150.57 207.393 149.157C206.583 148.446 205.75 147.759 204.91 147.079C204.069 146.399 203.183 145.75 202.312 145.123Z" fill="#37474F"/>
<path id="Vector_35" d="M174.182 110.521C174.609 111.969 175.177 113.371 175.878 114.708C176.206 115.388 176.565 116.053 176.924 116.718C177.283 117.382 177.688 118.024 178.078 118.658C178.468 119.292 178.88 119.934 179.3 120.56L180.576 122.425C181.485 123.632 182.364 124.854 183.334 126.015C185.191 128.399 187.246 130.599 189.294 132.83L192.464 136.07C193.541 137.132 194.642 138.171 195.711 139.24C194.55 138.27 193.419 137.261 192.266 136.276L188.973 133.136C186.822 130.985 184.782 128.725 182.861 126.367C180.944 124.007 179.208 121.507 177.665 118.887C176.088 116.291 174.913 113.47 174.182 110.521V110.521Z" fill="#37474F"/>
<path id="Vector_36" opacity="0.1" d="M183.877 85.172C181.973 87.423 180.413 89.9435 179.247 92.6516C178.073 95.3097 177.379 98.1552 177.199 101.056C177.058 103.933 177.508 106.809 178.521 109.505C179.039 110.85 179.659 112.153 180.378 113.402C181.088 114.678 181.86 115.923 182.67 117.138C184.297 119.577 186.062 121.921 187.957 124.159C189.836 126.451 191.838 128.582 193.885 130.706C195.933 132.83 198.072 134.87 200.249 136.857C202.427 138.843 204.665 140.799 206.95 142.686C202.005 139.38 197.356 135.653 193.052 131.547C188.689 127.478 184.785 122.943 181.409 118.024C180.579 116.781 179.8 115.508 179.071 114.204C178.323 112.881 177.684 111.498 177.161 110.071C176.129 107.182 175.735 104.104 176.008 101.048C176.668 94.9912 179.457 89.3655 183.877 85.172V85.172Z" fill="white"/>
<path id="Vector_37" d="M127.387 215.564C126.684 213.921 128.846 166.423 129.87 164.49C130.038 164.154 136.081 164.055 145.914 164.116C146.602 164.116 191.28 149.31 191.28 149.31L206.896 180.282L145.349 194.714C145.349 194.714 135.508 211.331 134.164 213.333C132.819 215.335 128.09 217.199 127.387 215.564Z" fill="#FFC727"/>
<path id="Vector_38" opacity="0.3" d="M206.896 180.282L197.125 182.574L182.853 152.106L191.28 149.348L206.896 180.282Z" fill="white"/>
<path id="Vector_39" d="M222.94 63.4515C231.107 80.9394 242.109 97.3731 247.961 98.16C255.838 99.2143 273.563 93.0106 282.463 88.9462C285.076 87.7467 275.358 67.5542 272.531 68.853C269.147 70.381 251.789 78.6474 251.414 78.6933C250.65 78.7926 233.842 64.269 229.9 60.7011C223.36 54.7419 219.304 55.6892 222.94 63.4515Z" fill="#AD6359"/>
<path id="Vector_40" d="M295.52 82.1542C292.082 85.4776 282.387 89.5115 279.675 89.5879C276.963 89.6643 269.544 73.4064 270.82 70.9387C272.096 68.4709 284.572 58.1875 289.431 57.7444C294.29 57.3013 299.065 78.7085 295.52 82.1542Z" fill="#AD6359"/>
<path id="Vector_41" d="M282.097 59.96C281.448 62.4048 284.702 61.7707 284.702 61.7707C284.702 61.7707 280.233 63.8182 280.538 66.5991C280.844 69.3801 284.748 68.3793 285.031 68.3181C284.794 68.4251 280.737 70.4115 281.333 73.1772C281.929 75.9429 285.726 74.4683 285.97 74.369C285.779 74.5371 283.312 76.8826 284.236 78.8843C285.841 82.3146 292.319 76.5006 295.375 76.7909C295.375 76.7909 295.467 82.0243 295.498 82.1771C295.498 82.1771 301.778 76.768 301.946 72.6271C301.978 72.0247 301.805 71.4292 301.453 70.9389C301.102 70.4485 300.594 70.0927 300.013 69.9302C300.013 69.9302 302.228 68.4022 301.831 66.2171C301.625 65.0941 299.638 64.4294 299.638 64.4294C300.122 64.0536 300.493 63.5517 300.71 62.9788C300.927 62.406 300.982 61.7844 300.868 61.1824C300.494 59.6544 298.576 59.2189 298.576 59.2189C298.576 59.2189 299.654 57.2096 298.76 55.758C296.957 52.8319 283.487 54.6884 282.097 59.96Z" fill="#AD6359"/>
<path id="Vector_42" d="M298.278 59.1043C298.288 59.1043 298.298 59.1003 298.305 59.0931C298.313 59.086 298.317 59.0762 298.317 59.0661C298.317 59.056 298.313 59.0463 298.305 59.0391C298.298 59.0319 298.288 59.0279 298.278 59.0279C293.523 58.5264 288.728 59.4801 284.526 61.763C284.389 61.8394 284.458 62.0839 284.618 62.0304C289.006 60.3986 293.607 59.413 298.278 59.1043V59.1043Z" fill="#263238"/>
<path id="Vector_43" d="M299.699 64.3683C299.753 64.3683 299.745 64.2766 299.699 64.2689C294.449 63.7632 289.192 65.1535 284.878 68.1883C284.725 68.2952 284.71 68.5473 284.878 68.4327C287.88 66.5075 295.314 64.5975 299.699 64.3683Z" fill="#263238"/>
<path id="Vector_44" d="M285.741 74.6746C289.989 71.7485 294.749 70.4803 299.822 69.8767C299.883 69.8767 299.867 69.7774 299.822 69.7697C297.255 69.3877 294.061 70.1059 291.624 70.8775C289.349 71.5513 287.289 72.8075 285.649 74.5218C285.588 74.5906 285.657 74.7358 285.741 74.6746Z" fill="#263238"/>
<path id="Vector_45" d="M284.702 61.7477C283.892 62.2216 283.125 62.7662 282.41 63.3751C281.684 63.941 281.123 64.6899 280.783 65.5448C280.651 65.9452 280.67 66.38 280.836 66.7672C281.006 67.1514 281.268 67.4875 281.6 67.7452C281.961 67.9707 282.365 68.1173 282.786 68.1753C283.208 68.2332 283.637 68.2012 284.045 68.0813L286.062 67.5847L284.343 68.7536C283.572 69.2648 282.89 69.8998 282.326 70.6331C282.047 70.9568 281.838 71.3356 281.715 71.7449C281.591 72.1542 281.555 72.5849 281.608 73.0091C281.656 73.4092 281.842 73.7802 282.133 74.0588C282.424 74.3374 282.803 74.5064 283.205 74.5371C284.097 74.5832 284.986 74.3991 285.787 74.0023L288.033 72.948L286.245 74.6212C285.749 75.0902 285.313 75.6189 284.946 76.195C284.578 76.7273 284.378 77.3583 284.373 78.0057C284.382 78.2968 284.472 78.5797 284.632 78.8226C284.793 79.0655 285.018 79.2588 285.283 79.3809C285.914 79.5649 286.584 79.5649 287.216 79.3809C288.59 79.0006 289.934 78.5153 291.234 77.9293C291.899 77.6619 292.564 77.3868 293.251 77.1653C293.922 76.8795 294.646 76.7414 295.375 76.7604C294.659 76.8231 293.961 77.0228 293.32 77.3486C292.67 77.639 292.029 77.9675 291.379 78.2884C290.096 78.9765 288.75 79.5418 287.361 79.9768C286.619 80.2201 285.823 80.244 285.069 80.0456C284.664 79.8915 284.313 79.6217 284.061 79.2699C283.808 78.9181 283.664 78.4997 283.648 78.0668C283.629 77.2539 283.858 76.4545 284.305 75.7748C284.699 75.1268 285.174 74.5313 285.718 74.0023L286.184 74.6746C285.24 75.1572 284.187 75.3837 283.128 75.3317C282.553 75.281 282.013 75.0327 281.6 74.6288C281.195 74.2096 280.929 73.6763 280.836 73.1008C280.765 72.5633 280.81 72.0168 280.967 71.4978C281.123 70.9788 281.389 70.4991 281.745 70.0906C282.376 69.2934 283.135 68.6066 283.991 68.0584L284.289 68.7307C283.777 68.8578 283.244 68.8724 282.725 68.7735C282.207 68.6746 281.716 68.4645 281.287 68.1577C280.88 67.8229 280.567 67.3886 280.378 66.8971C280.192 66.4046 280.192 65.8616 280.378 65.3691C280.792 64.4694 281.448 63.7023 282.272 63.1535C283.026 62.5942 283.841 62.1226 284.702 61.7477Z" fill="#263238"/>
<path id="Vector_46" d="M272.6 68.8147C272.6 68.8147 280.477 50.112 286.276 56.7741C288.002 58.7529 292.716 68.937 290.692 69.9302C288.071 71.1984 285.344 67.3173 283.968 64.5822C283.968 64.5822 282.181 71.3206 277.092 71.4582C276.174 71.4702 275.269 71.2302 274.477 70.7642C273.685 70.2981 273.036 69.6239 272.6 68.8147V68.8147Z" fill="#AD6359"/>
<path id="Vector_47" d="M285.795 56.2546C286.563 56.9485 287.224 57.7516 287.758 58.6383C288.329 59.5117 288.839 60.4229 289.286 61.3657C290.191 63.238 290.93 65.186 291.494 67.1874C291.642 67.7196 291.714 68.2701 291.708 68.8224C291.703 69.1406 291.627 69.4537 291.486 69.7392C291.409 69.8935 291.308 70.0352 291.189 70.1594C291.066 70.2825 290.92 70.381 290.761 70.4497C290.197 70.7144 289.558 70.7686 288.958 70.6025C288.408 70.4387 287.891 70.1802 287.43 69.8385C286.575 69.1807 285.839 68.3824 285.252 67.4777C284.674 66.6114 284.163 65.7021 283.724 64.7579L284.389 64.6815C284.159 65.4421 283.858 66.1789 283.487 66.8818C283.125 67.5831 282.692 68.2461 282.196 68.8606C281.694 69.4712 281.105 70.0042 280.447 70.4421C279.794 70.8746 279.066 71.1804 278.3 71.3436C279.022 71.0879 279.695 70.7135 280.294 70.2358C280.876 69.7574 281.39 69.2022 281.822 68.5855C282.258 67.971 282.634 67.316 282.945 66.6297C283.263 65.9488 283.519 65.2405 283.709 64.5134L283.923 63.6119L284.374 64.437C284.847 65.327 285.375 66.1869 285.955 67.0117C286.483 67.8129 287.133 68.5269 287.88 69.128C288.644 69.6628 289.607 70.0219 290.318 69.6628C291.028 69.3037 290.852 68.2799 290.638 67.3708C290.405 66.3861 290.119 65.4145 289.783 64.4599C289.454 63.4897 289.118 62.527 288.736 61.5797C288.038 59.6629 287.045 57.8664 285.795 56.2546Z" fill="#263238"/>
<path id="Vector_48" d="M260.086 74.2773L267.099 96.5785C267.099 96.5785 251.155 100.207 246.357 97.8696C241.559 95.5318 229.167 79.0065 223.788 66.6908C218.41 54.3751 222.535 53.3208 232.727 62.4048C242.919 71.4887 251.063 77.9751 251.43 77.8681C251.797 77.7612 260.086 74.2773 260.086 74.2773Z" fill="#FFC727"/>
<path id="Vector_49" d="M256.618 77.0507C256.618 76.9819 256.48 77.0125 256.495 77.0507C257.769 83.5678 259.399 90.0103 261.377 96.3493C261.377 96.4181 261.515 96.3875 261.5 96.3493C260.226 89.8322 258.596 83.3897 256.618 77.0507Z" fill="#263238"/>
<path id="Vector_50" opacity="0.1" d="M238.648 90.3595C233.346 83.8655 227.188 74.4454 223.788 66.6755C219.426 56.7435 221.305 54.1154 227.608 58.3097L238.648 90.3595Z" fill="black"/>
<path id="Vector_51" d="M223.101 87.9147L220.511 96.525L211.075 100.108L185.504 82.116C185.504 82.116 199.478 57.668 214.727 53.1909C222.367 50.9448 227.547 54.5738 228.907 60.151C229.243 61.5644 232.078 75.1024 230.015 81.0311C229.419 82.6045 228.494 84.0325 227.301 85.2196C226.109 86.4068 224.677 87.3256 223.101 87.9147V87.9147Z" fill="#FFC727"/>
<path id="Vector_52" d="M213.245 81.7722C214.753 82.4593 216.191 83.2909 217.539 84.2552C218.211 84.7518 218.853 85.2866 219.487 85.852C219.808 86.127 220.129 86.3868 220.457 86.6542C220.785 86.9332 221.153 87.1599 221.55 87.3265C221.588 87.3265 221.55 87.4105 221.55 87.4029C221.162 87.3075 220.784 87.1771 220.419 87.0132C220.064 86.8365 219.727 86.6268 219.411 86.3868C218.723 85.8978 218.066 85.3553 217.379 84.8587C216.011 83.8426 214.636 82.8265 213.192 81.9479C213.1 81.9021 213.169 81.7416 213.245 81.7722Z" fill="#263238"/>
<path id="Vector_53" d="M208.822 82.4063C210.156 82.6294 211.471 82.9538 212.756 83.3766C213.396 83.5976 214.023 83.8526 214.636 84.1406L215.507 84.5761C215.828 84.7365 216.118 84.9581 216.439 85.1185C216.477 85.1185 216.439 85.2026 216.439 85.1873C216.133 85.0574 215.797 84.9886 215.484 84.874L214.529 84.5379C213.895 84.3163 213.253 84.0947 212.626 83.8655C211.358 83.3995 210.09 82.9564 208.806 82.5438C208.707 82.5285 208.753 82.391 208.822 82.4063Z" fill="#263238"/>
<path id="Vector_54" opacity="0.1" d="M222.245 79.0753L214.704 67.9591L215.354 64.1467L229.778 70.3733V72.8105L222.245 79.0753Z" fill="black"/>
<path id="Vector_55" opacity="0.1" d="M222.245 77.8682L215.927 68.555L216.462 65.3538L228.563 70.572V72.6118L222.245 77.8682Z" fill="black"/>
<path id="Vector_56" d="M212.725 50.6774C193.809 48.5764 178.521 50.8913 174.594 54.7877C171.347 58.0194 160.758 72.5431 155.945 81.5888C154.6 84.1329 174.716 96.1048 175.809 93.2016C177.505 88.7551 189.721 67.684 189.866 67.3326C190.164 66.5686 210.059 60.9608 215.078 59.6926C224.407 57.4617 222.757 51.7928 212.725 50.6774Z" fill="#AD6359"/>
<path id="Vector_57" d="M159.146 116.496C158.47 116.321 157.863 115.943 157.407 115.413C156.951 114.883 156.667 114.227 156.595 113.532C155.479 113.934 154.257 113.934 153.141 113.532C151.216 112.714 151.652 109.337 151.652 109.337C150.403 109.502 149.134 109.289 148.007 108.726C146.242 107.763 146.197 104.287 146.197 104.287C144.968 103.81 143.951 102.907 143.332 101.743C141.804 98.5573 144.684 94.0115 146.487 91.093C148.29 88.1745 156.136 81.6118 157.504 80.206L176.336 91.559C176.336 91.559 171.966 106.923 169.353 110.048C167.123 112.676 161.752 117.031 159.146 116.496Z" fill="#AD6359"/>
<path id="Vector_58" d="M156.976 113.547C159.987 111.308 162.164 108.306 164.509 105.426C164.563 105.365 164.464 105.28 164.41 105.349C162.118 108.237 159.268 110.628 156.854 113.417C156.785 113.493 156.9 113.608 156.976 113.547Z" fill="#263238"/>
<path id="Vector_59" d="M151.934 109.36C152.568 108.787 153.123 108.132 153.584 107.412C154.119 106.648 154.646 105.945 155.158 105.204C156.182 103.676 157.175 102.186 158.122 100.62C158.161 100.551 158.069 100.467 158.023 100.544C156.999 102.026 155.953 103.5 154.86 104.944C154.32 105.662 153.77 106.381 153.21 107.099C152.642 107.737 152.148 108.436 151.735 109.184C151.712 109.211 151.7 109.245 151.702 109.28C151.705 109.316 151.721 109.348 151.747 109.372C151.773 109.395 151.808 109.407 151.843 109.405C151.878 109.403 151.911 109.387 151.934 109.36V109.36Z" fill="#263238"/>
<path id="Vector_60" d="M146.242 104.165C146.808 103.638 147.278 103.018 147.633 102.331C148.091 101.644 148.542 100.956 149.008 100.269C149.925 98.9011 150.849 97.5259 151.82 96.1889C151.865 96.1277 151.766 96.0437 151.72 96.1125C150.727 97.4648 149.719 98.8094 148.741 100.169C148.259 100.842 147.778 101.506 147.304 102.186C146.815 102.761 146.432 103.418 146.174 104.127C146.158 104.165 146.212 104.188 146.242 104.165Z" fill="#263238"/>
<path id="Vector_61" d="M181.967 83.3537L161.82 70.3504C161.82 70.3504 170.751 55.185 175.404 52.5874C180.057 49.9898 198.767 48.8285 212.076 50.494C225.63 52.1901 225.561 57.6069 212.283 60.7851C199.004 63.9633 190.325 67.2256 190.211 67.5847C190.096 67.9438 181.967 83.3537 181.967 83.3537Z" fill="#FFC727"/>
<path id="Vector_62" d="M183.434 81.0235C184.618 78.8995 190.31 67.6993 190.47 67.6229C190.799 67.4625 195.948 65.6518 197.476 65.117C198.775 64.6586 200.081 64.2231 201.388 63.7953C202.465 63.6959 203.542 63.5966 204.604 63.398C204.62 63.398 204.636 63.3915 204.647 63.3801C204.659 63.3686 204.665 63.3531 204.665 63.3369C204.665 63.3207 204.659 63.3051 204.647 63.2936C204.636 63.2822 204.62 63.2757 204.604 63.2757C203.86 63.2901 203.117 63.3539 202.381 63.4667C203.817 63.0007 205.254 62.5423 206.682 62.0686C206.682 62.0686 206.682 62.0151 206.682 62.0228C203.481 62.7409 190.218 66.8895 190.172 67.0728C190.126 67.2562 183.38 80.5269 183.296 80.8248C183.273 80.9089 183.396 81.0846 183.434 81.0235Z" fill="#263238"/>
<path id="Vector_63" d="M182.632 77.532C182.693 77.5702 182.754 77.4632 182.693 77.425C177.251 73.6223 171.607 70.118 165.786 66.9276C165.771 66.9231 165.755 66.9235 165.741 66.929C165.726 66.9345 165.714 66.9447 165.706 66.9579C165.698 66.9711 165.695 66.9866 165.697 67.0019C165.699 67.0172 165.706 67.0314 165.717 67.0423C171.159 70.8452 176.806 74.3471 182.632 77.532V77.532Z" fill="#263238"/>
<path id="Vector_64" d="M215.033 50.9601C215.033 50.9601 218.486 63.4668 223.635 64.8267C228.785 66.1866 230.947 60.8692 230.947 60.8692C230.947 60.8692 225.003 52.1061 215.033 50.9601Z" fill="#AD6359"/>
<path id="Vector_65" d="M221.053 53.764C220.946 54.5662 222.657 60.724 226.103 61.8547C227.226 62.2214 229.495 56.1782 229.495 56.1782L229.77 55.7656L233.537 50.0586L227.998 42.5637L227.173 41.5399C227.173 41.5399 226.241 43.1673 225.11 45.2072L224.949 45.4975C224.88 45.6062 224.816 45.7184 224.758 45.8336C224.583 46.1316 224.407 46.4448 224.239 46.7581C224.071 47.0713 223.979 47.2241 223.857 47.4762L223.46 48.2402C222.536 50.0262 221.732 51.8715 221.053 53.764V53.764Z" fill="#AD6359"/>
<path id="Vector_66" d="M225.11 45.2072C225.071 47.2002 225.468 49.1778 226.273 51.0015C227.078 52.8252 228.272 54.4511 229.77 55.7656L233.537 50.0586L227.998 42.5637L227.173 41.5399C227.173 41.5399 226.241 43.152 225.11 45.2072Z" fill="#263238"/>
<path id="Vector_67" d="M245.746 39.3931C246.785 51.3574 239.741 53.3285 237.158 53.55C234.813 53.7563 226.814 54.146 224.537 42.3498C222.26 30.5536 227.494 26.3058 232.827 25.5418C238.159 24.7778 244.699 27.4212 245.746 39.3931Z" fill="#AD6359"/>
<path id="Vector_68" d="M240 45.444C239.71 45.9651 239.292 46.4041 238.786 46.7199C238.502 46.8785 238.177 46.9478 237.854 46.9185C237.151 46.8421 237.036 46.2233 237.09 45.6656C237.113 45.3736 237.175 45.086 237.273 44.8099C238.093 45.3035 239.047 45.5254 240 45.444Z" fill="#263238"/>
<path id="Vector_69" d="M238.786 46.7275C238.502 46.8861 238.177 46.9554 237.854 46.9261C237.151 46.8497 237.036 46.2309 237.09 45.6732C237.449 45.6341 237.812 45.7167 238.119 45.9078C238.427 46.0989 238.661 46.3875 238.786 46.7275V46.7275Z" fill="#FF9BBC"/>
<path id="Vector_70" d="M242.277 37.72C242.01 37.8116 241.743 37.8575 241.475 37.9262C241.201 38.0374 240.899 38.0588 240.612 37.9874C240.526 37.9452 240.457 37.8757 240.416 37.7899C240.374 37.7041 240.363 37.6069 240.383 37.5137C240.445 37.3367 240.554 37.1796 240.698 37.0587C240.842 36.9378 241.015 36.8575 241.2 36.8261C241.569 36.7082 241.969 36.7299 242.323 36.8872C242.401 36.928 242.465 36.9904 242.509 37.0668C242.552 37.1433 242.573 37.2306 242.568 37.3183C242.563 37.4061 242.533 37.4906 242.482 37.5618C242.43 37.633 242.359 37.6879 242.277 37.72V37.72Z" fill="#263238"/>
<path id="Vector_71" d="M233.995 38.2318C234.255 38.1388 234.511 38.0316 234.759 37.9109C235.046 37.8361 235.299 37.6665 235.477 37.4296C235.521 37.3456 235.535 37.2493 235.517 37.1564C235.499 37.0635 235.45 36.9794 235.378 36.9177C235.22 36.8145 235.038 36.7558 234.85 36.7477C234.661 36.7397 234.474 36.7826 234.308 36.8719C233.937 37.0099 233.632 37.2827 233.453 37.6359C233.426 37.7138 233.42 37.7977 233.437 37.8785C233.453 37.9594 233.491 38.0342 233.547 38.0953C233.602 38.1563 233.673 38.2012 233.752 38.2252C233.831 38.2493 233.915 38.2515 233.995 38.2318V38.2318Z" fill="#263238"/>
<path id="Vector_72" d="M235.722 40.5238C235.722 40.5238 235.661 40.5697 235.669 40.6002C235.783 41.4101 235.783 42.3574 235.073 42.7089C235.073 42.7089 235.073 42.7624 235.073 42.7547C235.974 42.5332 235.928 41.2726 235.722 40.5238Z" fill="#263238"/>
<path id="Vector_73" d="M234.904 39.7598C233.583 39.8056 233.774 42.4338 234.996 42.3956C236.218 42.3574 236.005 39.714 234.904 39.7598Z" fill="#263238"/>
<path id="Vector_74" d="M234.4 39.9355C234.186 40.096 233.98 40.3787 233.697 40.4245C233.414 40.4703 233.117 40.2182 232.895 39.9737H232.849C232.849 40.478 233.109 40.9822 233.659 41.0204C234.209 41.0586 234.476 40.5773 234.568 40.0654C234.576 39.9967 234.484 39.8668 234.4 39.9355Z" fill="#263238"/>
<path id="Vector_75" d="M240.742 39.798C240.742 39.798 240.803 39.798 240.803 39.8592C240.803 40.6843 241.001 41.6164 241.758 41.8379V41.8838C240.841 41.815 240.635 40.5773 240.742 39.798Z" fill="#263238"/>
<path id="Vector_76" d="M241.414 38.8965C242.72 38.7132 242.987 41.3337 241.78 41.5094C240.573 41.6851 240.313 39.0493 241.414 38.8965Z" fill="#263238"/>
<path id="Vector_77" d="M241.979 39.0111C242.201 39.1257 242.43 39.3626 242.682 39.3549C242.934 39.3473 243.156 39.034 243.309 38.7437C243.309 38.7437 243.309 38.7437 243.354 38.7437C243.416 39.248 243.309 39.7828 242.835 39.9279C242.361 40.0731 242.033 39.6682 241.865 39.1639C241.834 39.1104 241.888 38.9653 241.979 39.0111Z" fill="#263238"/>
<path id="Vector_78" d="M240.031 43.7326C240.031 43.7326 240.306 44.9397 240.352 45.5127C240.352 45.5662 240.222 45.6044 240.023 45.6273C239.541 45.7635 239.031 45.7642 238.548 45.6294C238.066 45.4946 237.63 45.2296 237.288 44.8633C237.242 44.8175 237.288 44.7487 237.372 44.7793C238.147 45.2171 239.041 45.3939 239.924 45.2835C239.924 45.1231 239.389 43.236 239.481 43.2284C239.93 43.23 240.377 43.2917 240.81 43.4117C240.314 40.8905 239.427 38.4687 238.977 35.9475C238.977 35.8558 239.091 35.8176 239.122 35.894C240.15 38.4643 240.918 41.1313 241.414 43.8549C241.49 44.1452 240.268 43.809 240.031 43.7326Z" fill="#263238"/>
<path id="Vector_79" d="M225.561 42.9075C227.509 42.9075 227.639 38.8125 227.639 38.8125C227.639 38.8125 231.574 38.5298 232.445 32.7692C232.461 34.475 231.978 36.1483 231.054 37.5824C231.054 37.5824 237.93 36.3142 240.413 30.2939C240.413 30.2939 239.473 33.3499 238.465 34.473C240.185 33.8003 241.626 32.564 242.552 30.9662C242.552 30.9662 244.019 34.2285 245.02 35.0765C245.02 35.0765 243.813 22.9671 232.666 25.1445C232.666 25.1445 225.668 26.1454 223.559 31.9136C221.451 37.6818 225.561 42.9075 225.561 42.9075Z" fill="#263238"/>
<path id="Vector_80" d="M226.913 42.9457C226.913 42.9457 224.468 39.0722 222.726 39.8897C220.984 40.7072 222.726 46.2615 224.652 47.1019C224.896 47.2268 225.163 47.3011 225.436 47.3201C225.71 47.3391 225.985 47.3026 226.244 47.2126C226.503 47.1227 226.741 46.9812 226.944 46.7967C227.147 46.6123 227.311 46.3886 227.425 46.1392L226.913 42.9457Z" fill="#AD6359"/>
<path id="Vector_81" d="M223.253 41.5017C223.253 41.5017 223.215 41.5017 223.253 41.5552C224.621 42.1817 225.301 43.5187 225.752 44.8863C225.676 44.7426 225.571 44.6168 225.442 44.5175C225.314 44.4182 225.166 44.3476 225.008 44.3107C224.85 44.2737 224.686 44.2712 224.527 44.3033C224.368 44.3353 224.217 44.4013 224.086 44.4966C224.048 44.4966 224.086 44.5807 224.124 44.573C224.374 44.5085 224.638 44.5223 224.88 44.6125C225.122 44.7026 225.33 44.8649 225.477 45.0773C225.721 45.4349 225.923 45.8194 226.08 46.2233C226.141 46.3455 226.37 46.292 226.325 46.1469C226.432 44.3285 225.163 41.7691 223.253 41.5017Z" fill="#263238"/>
<path id="Vector_82" d="M222.107 51.9991C221.695 50.5857 219.815 53.2521 220.855 55.0551C222.383 57.7138 225.484 61.0219 226.203 61.1213C226.921 61.2206 229.755 58.4778 230.122 57.8513C230.489 57.2249 229.992 55.6587 229.74 55.7733C229.488 55.8879 227.012 58.8751 226.684 58.9897C226.355 59.1043 223.001 55.0475 222.107 51.9991Z" fill="#455A64"/>
</g>
<g id="freepik--Sparkles--inject-12">
<path id="Vector_83" d="M116.141 226.527L120.526 227.345L121.504 231.967L122.482 227.345L126.867 226.527L122.505 225.465L121.504 221.095L120.503 225.465L116.141 226.527Z" fill="#FFC727"/>
<path id="Vector_84" d="M149.26 36.0315L153.645 36.8414L154.631 41.4636L155.609 36.8414L159.994 36.0239L155.624 34.9619L154.631 30.5918L153.63 34.9619L149.26 36.0315Z" fill="#FFC727"/>
<path id="Vector_85" d="M275.305 183.3L279.69 184.11L280.668 188.732L281.646 184.11L286.031 183.3L281.669 182.231L280.668 177.868L279.667 182.231L275.305 183.3Z" fill="#FFC727"/>
<path id="Vector_86" d="M234.568 133.518L238.954 134.328L239.932 138.958L240.91 134.328L245.295 133.518L240.932 132.448L239.932 128.086L238.931 132.448L234.568 133.518Z" fill="#FFC727"/>
<path id="Vector_87" d="M51.873 133.518L54.3255 133.976L54.8679 136.559L55.418 133.976L57.8705 133.518L55.4256 132.922L54.8679 130.485L54.3102 132.922L51.873 133.518Z" fill="#FFC727"/>
<path id="Vector_88" d="M285.924 119.162L288.377 119.621L288.927 122.203L289.469 119.621L291.922 119.162L289.485 118.566L288.927 116.129L288.361 118.566L285.924 119.162Z" fill="#FFC727"/>
<path id="Vector_89" d="M117.218 48.5535L119.67 49.0119L120.22 51.5942L120.763 49.0119L123.215 48.5535L120.778 47.9575L120.22 45.5204L119.663 47.9575L117.218 48.5535Z" fill="#FFC727"/>
<path id="Vector_90" d="M66.0146 180L68.4671 180.45L69.0172 183.033L69.5596 180.45L72.012 180L69.5672 179.396L69.0172 176.959L68.4518 179.396L66.0146 180Z" fill="#FFC727"/>
<path id="Vector_91" d="M24.0786 79.0141L26.5311 79.4649L27.0735 82.0472L27.6236 79.4649L30.076 79.0141L27.6312 78.4182L27.0735 75.9734L26.5158 78.4182L24.0786 79.0141Z" fill="#FFC727"/>
<path id="Vector_92" d="M95.3901 82.0549L97.8426 82.5056L98.3927 85.088L98.9427 82.5056L101.395 82.0472L98.9504 81.4513L98.3927 79.0142L97.8349 81.4513L95.3901 82.0549Z" fill="#FFC727"/>
<path id="Vector_93" d="M222.062 29.7744L224.506 30.2327L225.056 32.8151L225.606 30.2327L228.059 29.7744L225.614 29.1784L225.056 26.7413L224.499 29.1784L222.062 29.7744Z" fill="#FFC727"/>
<path id="Vector_94" d="M255.112 69.7697L257.557 70.2281L258.107 72.8105L258.657 70.2281L261.102 69.7697L258.665 69.1738L258.107 66.7366L257.549 69.1738L255.112 69.7697Z" fill="#FFC727"/>
<path id="Vector_95" d="M217.531 199.451L219.984 199.902L220.534 202.492L221.076 199.902L223.529 199.451L221.091 198.855L220.534 196.41L219.968 198.855L217.531 199.451Z" fill="#FFC727"/>
<path id="Vector_96" d="M98.6143 183.568C98.8028 183.568 98.9835 183.642 99.1167 183.776C99.25 183.909 99.3248 184.09 99.3248 184.278C99.3248 184.467 99.25 184.647 99.1167 184.781C98.9835 184.914 98.8028 184.989 98.6143 184.989C98.4259 184.989 98.2452 184.914 98.1119 184.781C97.9787 184.647 97.9038 184.467 97.9038 184.278C97.9038 184.09 97.9787 183.909 98.1119 183.776C98.2452 183.642 98.4259 183.568 98.6143 183.568V183.568Z" fill="#FFC727"/>
<path id="Vector_97" d="M100.395 95.104C100.583 95.104 100.764 95.1789 100.897 95.3121C101.03 95.4453 101.105 95.6261 101.105 95.8145C101.105 96.0029 101.03 96.1837 100.897 96.3169C100.764 96.4502 100.583 96.525 100.395 96.525C100.206 96.525 100.025 96.4502 99.8922 96.3169C99.7589 96.1837 99.6841 96.0029 99.6841 95.8145C99.6841 95.6261 99.7589 95.4453 99.8922 95.3121C100.025 95.1789 100.206 95.104 100.395 95.104V95.104Z" fill="#FFC727"/>
<path id="Vector_98" d="M198.828 42.9686C199.003 42.9868 199.165 43.0691 199.283 43.1996C199.4 43.3302 199.465 43.4996 199.465 43.6753C199.465 43.851 199.4 44.0205 199.283 44.151C199.165 44.2815 199.003 44.3638 198.828 44.382C198.654 44.3638 198.492 44.2815 198.374 44.151C198.257 44.0205 198.191 43.851 198.191 43.6753C198.191 43.4996 198.257 43.3302 198.374 43.1996C198.492 43.0691 198.654 42.9868 198.828 42.9686V42.9686Z" fill="#FFC727"/>
<path id="Vector_99" d="M235.775 118.452C235.964 118.452 236.145 118.527 236.278 118.66C236.411 118.793 236.486 118.974 236.486 119.162C236.486 119.351 236.411 119.532 236.278 119.665C236.145 119.798 235.964 119.873 235.775 119.873C235.587 119.873 235.406 119.798 235.273 119.665C235.14 119.532 235.065 119.351 235.065 119.162C235.065 118.974 235.14 118.793 235.273 118.66C235.406 118.527 235.587 118.452 235.775 118.452V118.452Z" fill="#FFC727"/>
<path id="Vector_100" d="M261.538 159.28C261.726 159.28 261.907 159.355 262.04 159.488C262.173 159.621 262.248 159.802 262.248 159.991C262.248 160.179 262.173 160.36 262.04 160.493C261.907 160.626 261.726 160.701 261.538 160.701C261.349 160.701 261.169 160.626 261.035 160.493C260.902 160.36 260.827 160.179 260.827 159.991C260.827 159.802 260.902 159.621 261.035 159.488C261.169 159.355 261.349 159.28 261.538 159.28V159.28Z" fill="#FFC727"/>
<path id="Vector_101" d="M286.94 151.434C287.074 151.434 287.202 151.487 287.297 151.581C287.391 151.676 287.445 151.804 287.445 151.938C287.445 152.072 287.391 152.2 287.297 152.294C287.202 152.389 287.074 152.442 286.94 152.442C286.807 152.442 286.678 152.389 286.584 152.294C286.489 152.2 286.436 152.072 286.436 151.938C286.436 151.804 286.489 151.676 286.584 151.581C286.678 151.487 286.807 151.434 286.94 151.434V151.434Z" fill="#FFC727"/>
<path id="Vector_102" d="M248.733 60.617C248.866 60.617 248.995 60.6702 249.089 60.7647C249.184 60.8593 249.237 60.9875 249.237 61.1213C249.237 61.255 249.184 61.3833 249.089 61.4778C248.995 61.5724 248.866 61.6255 248.733 61.6255C248.599 61.6255 248.471 61.5724 248.376 61.4778C248.282 61.3833 248.229 61.255 248.229 61.1213C248.229 60.9875 248.282 60.8593 248.376 60.7647C248.471 60.6702 248.599 60.617 248.733 60.617V60.617Z" fill="#FFC727"/>
<path id="Vector_103" d="M172.463 115.197C172.585 115.212 172.697 115.272 172.779 115.364C172.86 115.456 172.905 115.575 172.905 115.698C172.905 115.821 172.86 115.939 172.779 116.032C172.697 116.124 172.585 116.183 172.463 116.198C172.341 116.183 172.228 116.124 172.147 116.032C172.065 115.939 172.021 115.821 172.021 115.698C172.021 115.575 172.065 115.456 172.147 115.364C172.228 115.272 172.341 115.212 172.463 115.197V115.197Z" fill="#FFC727"/>
<path id="Vector_104" d="M236.196 214.899C236.329 214.899 236.458 214.952 236.552 215.047C236.647 215.141 236.7 215.27 236.7 215.403C236.7 215.537 236.647 215.665 236.552 215.76C236.458 215.855 236.329 215.908 236.196 215.908C236.062 215.908 235.934 215.855 235.839 215.76C235.745 215.665 235.691 215.537 235.691 215.403C235.691 215.27 235.745 215.141 235.839 215.047C235.934 214.952 236.062 214.899 236.196 214.899V214.899Z" fill="#FFC727"/>
<path id="Vector_105" d="M156.762 205.548C157.107 205.574 157.428 205.728 157.663 205.981C157.897 206.234 158.028 206.567 158.028 206.912C158.028 207.257 157.897 207.589 157.663 207.842C157.428 208.095 157.107 208.25 156.762 208.275C156.418 208.25 156.097 208.095 155.862 207.842C155.627 207.589 155.497 207.257 155.497 206.912C155.497 206.567 155.627 206.234 155.862 205.981C156.097 205.728 156.418 205.574 156.762 205.548Z" fill="#FFC727"/>
<path id="Vector_106" d="M69.0093 139.462C69.37 139.462 69.7159 139.605 69.971 139.86C70.226 140.115 70.3693 140.461 70.3693 140.822C70.3693 141.182 70.226 141.528 69.971 141.783C69.7159 142.038 69.37 142.182 69.0093 142.182C68.6487 142.182 68.3028 142.038 68.0477 141.783C67.7927 141.528 67.6494 141.182 67.6494 140.822C67.6494 140.461 67.7927 140.115 68.0477 139.86C68.3028 139.605 68.6487 139.462 69.0093 139.462V139.462Z" fill="#FFC727"/>
<path id="Vector_107" d="M140.222 26.4204C140.582 26.4204 140.928 26.5637 141.183 26.8187C141.438 27.0737 141.582 27.4196 141.582 27.7803C141.582 28.141 141.438 28.4869 141.183 28.7419C140.928 28.9969 140.582 29.1402 140.222 29.1402C139.861 29.1402 139.515 28.9969 139.26 28.7419C139.005 28.4869 138.862 28.141 138.862 27.7803C138.862 27.4196 139.005 27.0737 139.26 26.8187C139.515 26.5637 139.861 26.4204 140.222 26.4204V26.4204Z" fill="#FFC727"/>
<path id="Vector_108" d="M214.322 22.7455C214.666 22.7713 214.988 22.9262 215.222 23.1791C215.457 23.432 215.587 23.7643 215.587 24.1093C215.587 24.4543 215.457 24.7866 215.222 25.0395C214.988 25.2924 214.666 25.4473 214.322 25.473C213.978 25.4473 213.656 25.2924 213.422 25.0395C213.187 24.7866 213.057 24.4543 213.057 24.1093C213.057 23.7643 213.187 23.432 213.422 23.1791C213.656 22.9262 213.978 22.7713 214.322 22.7455Z" fill="#FFC727"/>
<path id="Vector_109" d="M192.296 215.747C192.64 215.773 192.962 215.928 193.197 216.181C193.431 216.434 193.562 216.766 193.562 217.111C193.562 217.456 193.431 217.788 193.197 218.041C192.962 218.294 192.64 218.449 192.296 218.475C191.952 218.449 191.631 218.294 191.396 218.041C191.161 217.788 191.031 217.456 191.031 217.111C191.031 216.766 191.161 216.434 191.396 216.181C191.631 215.928 191.952 215.773 192.296 215.747Z" fill="#FFC727"/>
</g>
</g>
</svg>
