<svg width="257" height="257" viewBox="0 0 257 257" fill="none" xmlns="http://www.w3.org/2000/svg">
<path d="M122.537 173.629H23.2841C22.5057 173.629 21.7592 173.32 21.2087 172.77C20.6583 172.219 20.3491 171.473 20.3491 170.694V31.1792C20.3559 30.4053 20.6681 29.6654 21.2178 29.1205C21.7675 28.5757 22.5101 28.27 23.2841 28.27H122.537C122.923 28.27 123.305 28.3459 123.661 28.4934C124.017 28.6409 124.34 28.8571 124.613 29.1296C124.885 29.4022 125.102 29.7257 125.249 30.0818C125.396 30.4379 125.472 30.8195 125.472 31.2049V170.694C125.472 171.08 125.396 171.461 125.249 171.817C125.102 172.173 124.885 172.497 124.613 172.77C124.34 173.042 124.017 173.258 123.661 173.406C123.305 173.553 122.923 173.629 122.537 173.629ZM23.2841 28.3728C22.5402 28.3742 21.8271 28.6703 21.3011 29.1963C20.7751 29.7223 20.479 30.4353 20.4776 31.1792V170.694C20.479 171.438 20.7751 172.151 21.3011 172.677C21.8271 173.203 22.5402 173.499 23.2841 173.501H122.537C123.281 173.499 123.994 173.203 124.52 172.677C125.046 172.151 125.343 171.438 125.344 170.694V31.1792C125.343 30.4353 125.046 29.7223 124.52 29.1963C123.994 28.6703 123.281 28.3742 122.537 28.3728H23.2841Z" fill="#EBEBEB"/>
<path d="M233.716 173.629H134.462C133.684 173.629 132.937 173.32 132.387 172.77C131.837 172.219 131.527 171.473 131.527 170.694V31.1792C131.534 30.4053 131.846 29.6654 132.396 29.1205C132.946 28.5757 133.688 28.27 134.462 28.27H233.716C234.494 28.27 235.241 28.5792 235.791 29.1296C236.341 29.68 236.651 30.4265 236.651 31.2049V170.694C236.651 171.473 236.341 172.219 235.791 172.77C235.241 173.32 234.494 173.629 233.716 173.629ZM134.462 28.3728C133.718 28.3742 133.005 28.6703 132.479 29.1963C131.953 29.7223 131.657 30.4353 131.656 31.1792V170.694C131.657 171.438 131.953 172.151 132.479 172.677C133.005 173.203 133.718 173.499 134.462 173.501H233.716C234.46 173.499 235.173 173.203 235.699 172.677C236.225 172.151 236.521 171.438 236.522 170.694V31.1792C236.521 30.4353 236.225 29.7223 235.699 29.1963C235.173 28.6703 234.46 28.3742 233.716 28.3728H134.462Z" fill="#EBEBEB"/>
<path d="M257 196.554H0V196.682H257V196.554Z" fill="#EBEBEB"/>
<path d="M197.659 196.034H27.7559C27.782 195.504 27.9021 194.981 28.1105 194.492C28.1105 194.492 109.996 106.737 114.164 102.754C114.226 102.697 114.288 102.641 114.355 102.589C114.598 102.387 114.879 102.234 115.182 102.142C115.626 102.021 116.097 102.037 116.532 102.189C116.966 102.34 117.345 102.62 117.618 102.99L197.659 196.034Z" fill="#FAFAFA"/>
<path opacity="0.2" d="M119.906 127.549C114.308 135.316 34.736 194.112 27.7559 196.034L28.1105 194.492L114.355 102.589L115.182 102.142C114.236 104.198 113.378 108.922 115.321 111.667C118.035 115.486 125.498 119.762 119.906 127.549Z" fill="#E6E6E6"/>
<path d="M234.492 196.034L45.9004 196.004C45.9004 196.004 138.487 129.883 142.83 126.788L142.99 126.675L143.617 126.238C143.823 126.1 144.018 125.971 144.198 125.843C145.275 125.084 146.555 124.667 147.873 124.645C149.52 124.687 151.097 125.318 152.319 126.423C169.029 140.476 234.492 196.034 234.492 196.034Z" fill="#FAFAFA"/>
<path opacity="0.2" d="M153.809 136.405C153.439 139.096 152.251 141.608 150.407 143.601C148.906 145.359 147.261 146.963 146.295 149.697C145.328 152.432 145.39 156.76 146.942 158.343C147.898 159.325 149.127 159.011 150.098 159.947C151.666 161.453 151.866 165.734 150.951 168.53C150.037 171.326 148.381 172.951 146.773 174.375C133.511 186.222 119.171 193.038 104.501 196.009C90.0682 196.009 45.9053 196.009 45.9053 196.009L142.984 126.68C143.205 126.526 143.416 126.387 143.617 126.244C143.817 126.1 144.018 125.976 144.198 125.843C146.068 125.241 147.965 124.969 149.769 125.951C152.226 127.292 154.37 131.81 153.809 136.405Z" fill="#E0E0E0"/>
<path d="M234.204 196.23C234.204 196.23 214.338 180.635 206.828 180.368C199.319 180.1 145.102 196.045 145.102 196.045L234.204 196.23Z" fill="#F0F0F0"/>
<path d="M94.9206 196.024C94.9206 196.024 55.4197 183.863 49.3442 183.591C43.2687 183.318 22.6162 195.834 22.6162 195.834L94.9206 196.024Z" fill="#F0F0F0"/>
<path d="M114.663 87.38C114.412 87.3209 114.166 87.2418 113.928 87.1436C113.486 86.9688 112.9 86.681 112.33 86.3931C111.845 86.152 111.324 85.9939 110.788 85.9254C110.371 85.8791 110.089 85.9254 110.047 85.8174C110.006 85.7095 110.253 85.5039 110.762 85.4114C111.414 85.3196 112.079 85.4327 112.664 85.7352C113.202 86.0338 113.689 86.4154 114.108 86.866C114.457 87.1795 114.663 87.38 114.663 87.38Z" fill="#E6E6E6"/>
<path d="M117.233 85.324L116.719 85.5296C116.406 85.6581 116.005 85.8431 115.563 86.0436C114.674 86.4342 113.918 86.8403 113.795 86.6655C113.738 86.5833 113.856 86.388 114.113 86.1515C114.451 85.8283 114.845 85.5688 115.275 85.3857C115.716 85.1945 116.201 85.127 116.678 85.1904C116.822 85.208 116.963 85.2407 117.1 85.288L117.233 85.324Z" fill="#E6E6E6"/>
<path d="M109.713 90.1865L109.554 90.0939C109.456 90.0271 109.307 89.9449 109.127 89.8472C108.67 89.6032 108.194 89.3952 107.704 89.2253C106.573 88.8243 105.56 88.9117 105.529 88.7421C105.529 88.665 105.761 88.5314 106.197 88.4697C106.772 88.4026 107.354 88.4677 107.899 88.6599C108.443 88.8516 108.93 89.1789 109.312 89.6108C109.428 89.7394 109.531 89.8788 109.621 90.0271C109.677 90.1299 109.713 90.1865 109.713 90.1865Z" fill="#E6E6E6"/>
<path d="M110.824 87.8529L110.418 88.0842L109.513 88.5982C108.829 88.9683 108.305 89.4103 108.177 89.2921C108.048 89.1739 108.177 89.0557 108.351 88.8192C108.586 88.5096 108.884 88.2538 109.225 88.0688C109.57 87.8865 109.955 87.7929 110.346 87.7963C110.507 87.7944 110.668 87.8134 110.824 87.8529Z" fill="#E6E6E6"/>
<path d="M108.639 86.352C106.68 85.2994 104.986 83.8161 103.684 82.0138C103.749 82.68 103.975 83.3204 104.343 83.8793C104.711 84.4383 105.21 84.8989 105.797 85.2212C106.655 85.6838 107.565 86.5113 108.516 86.7375C108.567 86.6398 108.742 86.4085 108.639 86.352Z" fill="#E6E6E6"/>
<path d="M106.938 85.0567L110.484 81.8442C110.312 82.5346 110.001 83.1826 109.57 83.7483C109.139 84.314 108.596 84.7855 107.976 85.1338C107.785 85.2439 107.573 85.3106 107.354 85.3291C107.264 85.3382 107.173 85.3161 107.098 85.2665C107.022 85.217 106.965 85.1429 106.938 85.0567Z" fill="#E6E6E6"/>
<path d="M106.244 94.1699C104.806 93.3981 103.561 92.3103 102.604 90.9883C102.654 91.4756 102.82 91.9439 103.088 92.3536C103.356 92.7633 103.719 93.1025 104.146 93.3424C104.774 93.6816 105.447 94.2882 106.141 94.4526C106.192 94.3807 106.316 94.2111 106.244 94.1699Z" fill="#E6E6E6"/>
<path d="M104.995 93.219L107.595 90.8649C107.47 91.3704 107.242 91.8449 106.927 92.2594C106.611 92.6739 106.214 93.0197 105.76 93.2756C105.618 93.3564 105.461 93.4055 105.298 93.4195C105.232 93.4251 105.166 93.4084 105.111 93.372C105.056 93.3356 105.015 93.2817 104.995 93.219Z" fill="#E6E6E6"/>
<path d="M113.836 92.2322C112.646 91.5915 111.616 90.6901 110.824 89.5953C110.864 89.9999 111.002 90.3886 111.226 90.7279C111.45 91.0673 111.753 91.3471 112.109 91.5434C112.623 91.8261 113.183 92.3298 113.759 92.4635C113.79 92.4018 113.892 92.263 113.836 92.2322Z" fill="#E6E6E6"/>
<path d="M112.797 91.4457L114.956 89.4925C114.849 89.9134 114.657 90.3079 114.392 90.6518C114.127 90.9956 113.794 91.2816 113.414 91.492C113.297 91.5566 113.167 91.5968 113.034 91.6102C112.982 91.6118 112.931 91.5967 112.888 91.5671C112.846 91.5374 112.814 91.4949 112.797 91.4457Z" fill="#E6E6E6"/>
<path d="M194.323 131.723C194.063 131.658 193.809 131.574 193.562 131.471C193.105 131.296 192.534 130.993 191.902 130.695C191.392 130.432 190.841 130.259 190.273 130.181C189.841 130.135 189.548 130.181 189.507 130.068C189.466 129.955 189.718 129.744 190.247 129.646C190.926 129.553 191.617 129.671 192.226 129.985C192.798 130.281 193.318 130.666 193.768 131.127C194.112 131.491 194.323 131.723 194.323 131.723Z" fill="#E6E6E6"/>
<path d="M197.001 129.564L196.451 129.78C196.122 129.914 195.705 130.104 195.243 130.294C194.323 130.7 193.536 131.127 193.408 130.941C193.351 130.854 193.47 130.649 193.737 130.392C194.09 130.058 194.499 129.79 194.945 129.6C195.404 129.401 195.908 129.33 196.405 129.394C196.554 129.416 196.702 129.451 196.847 129.497L197.001 129.564Z" fill="#E6E6E6"/>
<path d="M189.358 133.326L189.209 133.234C189.116 133.172 188.972 133.095 188.803 133.003C188.371 132.77 187.92 132.574 187.456 132.417C186.382 132.031 185.4 132.113 185.4 131.954C185.4 131.882 185.616 131.754 186.032 131.697C186.577 131.633 187.129 131.695 187.646 131.877C188.164 132.058 188.626 132.37 188.988 132.782C189.095 132.903 189.191 133.034 189.275 133.172L189.358 133.326Z" fill="#E6E6E6"/>
<path d="M190.411 131.111L190.026 131.332L189.173 131.81C188.525 132.165 188.027 132.581 187.903 132.468C187.78 132.355 187.903 132.247 188.068 132.021C188.291 131.727 188.575 131.486 188.9 131.312C189.226 131.139 189.59 131.05 189.959 131.055C190.112 131.054 190.264 131.073 190.411 131.111Z" fill="#E6E6E6"/>
<path d="M188.474 129.847C188.474 129.847 188.109 129.718 187.554 129.487C186.999 129.256 186.248 128.921 185.431 128.649C184.739 128.418 184.011 128.316 183.282 128.351C182.722 128.387 182.362 128.49 182.311 128.392C182.259 128.294 182.558 128.012 183.185 127.827C184.004 127.613 184.869 127.648 185.667 127.929C186.436 128.201 187.145 128.62 187.754 129.163C188.006 129.378 188.246 129.606 188.474 129.847Z" fill="#E6E6E6"/>
<path d="M190.936 126.716L190.73 126.778C190.597 126.809 190.412 126.865 190.185 126.937C189.624 127.124 189.074 127.34 188.535 127.585C187.292 128.145 186.479 128.973 186.315 128.839C186.238 128.778 186.315 128.474 186.659 128.079C187.081 127.577 187.607 127.173 188.201 126.896C188.803 126.623 189.465 126.509 190.124 126.562C190.322 126.575 190.518 126.608 190.71 126.66L190.936 126.716Z" fill="#E6E6E6"/>
<path d="M82.8671 109.03C85.3548 108.305 86.7889 105.308 86.4651 102.738C86.1413 100.168 83.8128 97.9581 81.2531 97.5983C81.3354 96.5703 81.69 95.8713 81.69 94.8279C81.6753 92.5849 81.0883 90.3827 79.9847 88.43C78.881 86.4773 77.2972 84.8385 75.3832 83.6689C71.5385 81.3765 65.3911 81.2531 62.5332 83.4325C61.0963 84.5923 59.9416 86.0634 59.1563 87.7347C57.6089 86.8545 55.8555 86.4011 54.0755 86.421C52.2954 86.4408 50.5526 86.9332 49.0253 87.8477C46.003 89.7033 44.2554 93.4658 44.4713 97.0072C43.183 96.5878 41.8206 96.4451 40.4734 96.5886C39.1261 96.7321 37.8244 97.1585 36.6533 97.8399C34.3609 99.2688 32.8549 102.008 33.1941 104.692C33.5334 107.375 35.2193 109.246 38.5963 109.801C38.6168 109.775 58.7142 116.077 82.8671 109.03Z" fill="#F0F0F0"/>
<path d="M201.488 58.4675C202.338 57.9787 203.3 57.7192 204.281 57.7145C205.261 57.7098 206.226 57.9601 207.08 58.4408C207.934 58.9215 208.649 59.6161 209.154 60.4564C209.659 61.2967 209.937 62.2538 209.96 63.2339C209.983 64.2139 209.751 65.1832 209.287 66.0466C208.823 66.9099 208.142 67.6377 207.311 68.1586C206.481 68.6794 205.529 68.9753 204.55 69.0173C203.57 69.0592 202.597 68.8458 201.725 68.398C199.514 74.4169 192.267 74.4169 190.576 71.8109C187.723 73.7539 183.724 74.8538 180.327 74.2473C176.929 73.6408 175.043 72.7464 172.535 70.3769C171.64 69.4736 170.882 68.4452 170.283 67.3237C168.397 68.1204 164.455 68.2027 162.727 67.1078C162.236 66.7511 161.819 66.301 161.501 65.7833C161.183 65.2655 160.971 64.6902 160.875 64.0903C160.78 63.4903 160.804 62.8774 160.945 62.2866C161.086 61.6958 161.343 61.1386 161.699 60.6469C163.437 58.3184 166.67 58.7091 168.315 59.5212C167.975 57.5423 168.474 55.5017 170.191 54.4737C170.99 53.9523 171.931 53.6924 172.884 53.7301C173.838 53.7679 174.756 54.1014 175.511 54.6845C176.883 51.2355 180.805 48.1258 184.501 48.4753C186.36 48.6788 188.108 49.4626 189.496 50.7155C190.885 51.9684 191.843 53.6269 192.236 55.4555C193.639 53.8826 195.541 52.8392 197.53 53.5382C199.52 54.2373 201.385 56.3601 201.488 58.4675Z" fill="#F0F0F0"/>
<path d="M222.207 104.512C222.198 104.088 222.094 103.673 221.902 103.295C221.711 102.918 221.437 102.588 221.101 102.33C220.765 102.073 220.375 101.894 219.961 101.807C219.547 101.72 219.118 101.728 218.707 101.829C219.026 99.5721 217.545 96.8222 215.371 96.1746C213.197 95.5269 210.663 96.74 209.655 98.7857C209.202 98.2695 208.636 97.8646 208.001 97.6023C207.366 97.3399 206.68 97.2272 205.994 97.2728C205.309 97.3183 204.643 97.521 204.049 97.8651C203.454 98.2092 202.947 98.6855 202.566 99.2571C202.185 99.8287 201.941 100.48 201.852 101.161C201.763 101.843 201.832 102.535 202.054 103.185C202.276 103.835 202.644 104.426 203.131 104.911C203.617 105.396 204.209 105.762 204.86 105.982C204.643 106.732 204.707 107.536 205.04 108.243C205.373 108.95 205.952 109.511 206.669 109.821C207.913 110.335 209.881 110.335 210.709 108.917C211.737 110.603 213.834 111.281 215.792 110.973C217.638 110.674 219.761 109.204 219.252 107.375C219.252 107.375 219.169 107.01 219.169 107.005C219.169 106.999 222.274 107.426 222.207 104.512Z" fill="#F0F0F0"/>
<path d="M231.248 204.824H214.225V204.952H231.248V204.824Z" fill="#EBEBEB"/>
<path d="M209.265 212.277H192.241V212.405H209.265V212.277Z" fill="#EBEBEB"/>
<path d="M170.247 206.222H165.78V206.35H170.247V206.222Z" fill="#EBEBEB"/>
<path d="M165.066 215.258H160.599V215.387H165.066V215.258Z" fill="#EBEBEB"/>
<path d="M213.711 200.054H203.847V200.182H213.711V200.054Z" fill="#EBEBEB"/>
<path d="M163.123 213.068H153.259V213.197H163.123V213.068Z" fill="#EBEBEB"/>
<path d="M49.164 200.917H26.9644V201.046H49.164V200.917Z" fill="#EBEBEB"/>
<path d="M55.4038 208.797H33.2041V208.926H55.4038V208.797Z" fill="#EBEBEB"/>
<path d="M56.9973 200.917H53.7437V201.046H56.9973V200.917Z" fill="#EBEBEB"/>
<path d="M56.9406 210.915H53.687V211.043H56.9406V210.915Z" fill="#EBEBEB"/>
<path d="M115.727 203.087H67.5757V203.215H115.727V203.087Z" fill="#EBEBEB"/>
<path d="M136.621 204.891H88.4697V205.019H136.621V204.891Z" fill="#EBEBEB"/>
<path d="M164.125 106.319C165.672 99.7656 161.613 93.1991 155.06 91.6523C148.506 90.1056 141.94 94.1643 140.393 100.718C138.846 107.271 142.905 113.838 149.458 115.384C156.012 116.931 162.578 112.872 164.125 106.319Z" fill="#407BFF"/>
<path opacity="0.95" d="M164.125 106.319C165.672 99.7656 161.613 93.1991 155.06 91.6523C148.506 90.1056 141.94 94.1643 140.393 100.718C138.846 107.271 142.905 113.838 149.458 115.384C156.012 116.931 162.578 112.872 164.125 106.319Z" fill="white"/>
<path d="M234.996 140.445H22.1689V140.831H234.996V140.445Z" fill="#407BFF"/>
<path d="M77.6452 140.008H76.6172V153.095H77.6452V140.008Z" fill="#263238"/>
<path d="M180.558 140.008H179.53V153.378H180.558V140.008Z" fill="#263238"/>
<path d="M126.141 134.462H122.995V154.072H126.141V134.462Z" fill="#263238"/>
<path d="M128.628 140.122H124.491V141.15H128.628V140.122Z" fill="#263238"/>
<path d="M36.355 145.462L25.0882 149.702C23.7877 150.216 23.798 152.272 25.0882 152.751C26.555 153.267 28.1027 153.516 29.6576 153.486H83.7818V144.151H43.3917C40.9863 144.161 38.6025 144.605 36.355 145.462Z" fill="#407BFF"/>
<path opacity="0.5" d="M83.7817 144.151V153.465H29.6678C28.1129 153.496 26.5652 153.247 25.0983 152.73C23.7979 152.242 23.7876 150.16 25.0983 149.682L25.9567 149.358L31.1995 147.384L31.4771 147.282L36.247 145.488C36.247 145.488 36.247 145.488 36.2881 145.488L36.3652 145.457C38.341 144.71 40.4229 144.281 42.5332 144.187C42.821 144.187 43.114 144.187 43.407 144.187L83.7817 144.151Z" fill="white"/>
<path opacity="0.3" d="M83.7817 144.172V145.462H36.2778L36.3549 145.431C38.3307 144.684 40.4127 144.255 42.5229 144.162L83.7817 144.172Z" fill="white"/>
<path opacity="0.3" d="M42.5178 144.172L42.0038 144.861C42.0038 144.861 38.2207 149.348 33.9443 149.358C30.2846 149.358 26.8716 149.358 25.9618 149.358H25.6997C25.6997 149.358 28.3417 148.423 31.1789 147.384L31.4565 147.282C33.1784 146.654 34.9517 145.991 36.2264 145.488C36.264 145.468 36.3036 145.452 36.3446 145.441C38.322 144.694 40.4058 144.265 42.5178 144.172Z" fill="white"/>
<path d="M83.7821 151.337V153.465H29.6681C28.1132 153.496 26.5654 153.247 25.0987 152.73C24.8172 152.619 24.5746 152.428 24.4009 152.18C24.2273 151.933 24.1303 151.639 24.1221 151.337H83.7821Z" fill="#407BFF"/>
<path d="M30.7578 147.677L36.7716 145.462H40.4004C40.5598 145.463 40.7157 145.508 40.8505 145.593C40.9853 145.678 41.0936 145.799 41.1632 145.943C41.2327 146.086 41.2607 146.246 41.244 146.405C41.2273 146.563 41.1666 146.714 41.0687 146.84C40.8631 147.101 40.6008 147.312 40.3016 147.457C40.0024 147.602 39.6741 147.678 39.3416 147.677H30.7578Z" fill="#263238"/>
<g opacity="0.2">
<path opacity="0.2" d="M42.5332 151.142L45.1957 144.861H42.5332V151.142Z" fill="white"/>
</g>
<g opacity="0.2">
<path opacity="0.2" d="M46.6812 151.142L49.3437 144.861H46.6812V151.142Z" fill="white"/>
</g>
<path d="M44.3067 145.395H43.3301V147.611H44.3067V145.395Z" fill="#263238"/>
<path d="M48.0331 145.395H47.9869C47.4958 145.395 47.0977 145.793 47.0977 146.284V146.721C47.0977 147.212 47.4958 147.611 47.9869 147.611H48.0331C48.5242 147.611 48.9224 147.212 48.9224 146.721V146.284C48.9224 145.793 48.5242 145.395 48.0331 145.395Z" fill="#263238"/>
<path d="M80.3173 145.395H80.2711C79.78 145.395 79.3818 145.793 79.3818 146.284V146.721C79.3818 147.212 79.78 147.611 80.2711 147.611H80.3173C80.8084 147.611 81.2065 147.212 81.2065 146.721V146.284C81.2065 145.793 80.8084 145.395 80.3173 145.395Z" fill="#263238"/>
<path d="M53.1732 146.603H51.7957C51.367 146.603 51.0195 146.951 51.0195 147.379V147.847C51.0195 148.276 51.367 148.623 51.7957 148.623H53.1732C53.6018 148.623 53.9493 148.276 53.9493 147.847V147.379C53.9493 146.951 53.6018 146.603 53.1732 146.603Z" fill="#263238"/>
<path d="M56.9408 146.603H55.5633C55.1346 146.603 54.7871 146.951 54.7871 147.379V147.847C54.7871 148.276 55.1346 148.623 55.5633 148.623H56.9408C57.3694 148.623 57.7169 148.276 57.7169 147.847V147.379C57.7169 146.951 57.3694 146.603 56.9408 146.603Z" fill="#263238"/>
<path d="M60.7084 146.603H59.3308C58.9022 146.603 58.5547 146.951 58.5547 147.379V147.847C58.5547 148.276 58.9022 148.623 59.3308 148.623H60.7084C61.137 148.623 61.4845 148.276 61.4845 147.847V147.379C61.4845 146.951 61.137 146.603 60.7084 146.603Z" fill="#263238"/>
<path d="M64.4759 146.603H63.0984C62.6698 146.603 62.3223 146.951 62.3223 147.379V147.847C62.3223 148.276 62.6698 148.623 63.0984 148.623H64.4759C64.9046 148.623 65.2521 148.276 65.2521 147.847V147.379C65.2521 146.951 64.9046 146.603 64.4759 146.603Z" fill="#263238"/>
<path d="M68.2435 146.603H66.866C66.4373 146.603 66.0898 146.951 66.0898 147.379V147.847C66.0898 148.276 66.4373 148.623 66.866 148.623H68.2435C68.6722 148.623 69.0196 148.276 69.0196 147.847V147.379C69.0196 146.951 68.6722 146.603 68.2435 146.603Z" fill="#263238"/>
<path d="M72.0062 146.603H70.6287C70.2 146.603 69.8525 146.951 69.8525 147.379V147.847C69.8525 148.276 70.2 148.623 70.6287 148.623H72.0062C72.4349 148.623 72.7824 148.276 72.7824 147.847V147.379C72.7824 146.951 72.4349 146.603 72.0062 146.603Z" fill="#263238"/>
<path d="M75.7738 146.603H74.3963C73.9676 146.603 73.6201 146.951 73.6201 147.379V147.847C73.6201 148.276 73.9676 148.623 74.3963 148.623H75.7738C76.2024 148.623 76.5499 148.276 76.5499 147.847V147.379C76.5499 146.951 76.2024 146.603 75.7738 146.603Z" fill="#263238"/>
<path d="M52.7977 145.395H52.1758V146.017H52.7977V145.395Z" fill="#263238"/>
<path d="M75.3983 145.395H74.7764V146.017H75.3983V145.395Z" fill="#263238"/>
<path d="M49.4876 151.466H46.5732V144.732H49.4876V151.466ZM46.8302 151.209H49.2306V144.989H46.8302V151.209Z" fill="white"/>
<path d="M45.3243 151.466H42.4048V144.732H45.3243V151.466ZM42.6618 151.209H45.0673V144.989H42.6618V151.209Z" fill="white"/>
<path d="M81.7564 151.466H78.8369V144.732H81.7564V151.466ZM79.0939 151.209H81.4994V144.989H79.0939V151.209Z" fill="white"/>
<path d="M220.645 145.462L231.911 149.702C233.212 150.216 233.202 152.272 231.911 152.751C230.445 153.267 228.897 153.516 227.342 153.486H173.218V144.151H213.608C216.013 144.161 218.397 144.605 220.645 145.462Z" fill="#407BFF"/>
<path opacity="0.5" d="M220.645 145.462L231.911 149.702C233.212 150.216 233.202 152.272 231.911 152.751C230.445 153.267 228.897 153.516 227.342 153.486H173.218V144.151H213.608C216.013 144.161 218.397 144.605 220.645 145.462Z" fill="white"/>
<path opacity="0.3" d="M214.466 144.228L214.98 144.917C214.98 144.917 218.763 149.404 223.04 149.415C226.699 149.415 230.112 149.415 231.022 149.415H231.3C231.3 149.415 228.658 148.479 225.821 147.441L225.543 147.338C223.821 146.711 222.048 146.048 220.773 145.544C220.736 145.524 220.696 145.509 220.655 145.498C218.673 144.749 216.584 144.32 214.466 144.228Z" fill="white"/>
<path d="M173.218 151.337V153.465H227.332C228.887 153.496 230.434 153.247 231.901 152.73C232.183 152.619 232.425 152.428 232.599 152.18C232.773 151.933 232.87 151.639 232.878 151.337H173.218Z" fill="#407BFF"/>
<path d="M226.242 147.677L220.228 145.462H216.599C216.44 145.463 216.284 145.508 216.149 145.593C216.014 145.678 215.906 145.799 215.837 145.943C215.767 146.086 215.739 146.246 215.756 146.405C215.772 146.563 215.833 146.714 215.931 146.84C216.137 147.101 216.399 147.312 216.698 147.457C216.997 147.602 217.326 147.678 217.658 147.677H226.242Z" fill="#263238"/>
<path d="M212.698 147.611H213.675V145.395H212.698V147.611Z" fill="#263238"/>
<path d="M208.961 147.611H209.008C209.499 147.611 209.897 147.212 209.897 146.721V146.284C209.897 145.793 209.499 145.395 209.008 145.395H208.961C208.47 145.395 208.072 145.793 208.072 146.284V146.721C208.072 147.212 208.47 147.611 208.961 147.611Z" fill="#263238"/>
<path d="M176.677 147.611H176.723C177.214 147.611 177.612 147.212 177.612 146.721V146.284C177.612 145.793 177.214 145.395 176.723 145.395H176.677C176.186 145.395 175.788 145.793 175.788 146.284V146.721C175.788 147.212 176.186 147.611 176.677 147.611Z" fill="#263238"/>
<path d="M205.204 146.603H203.826C203.398 146.603 203.05 146.951 203.05 147.379V147.847C203.05 148.276 203.398 148.623 203.826 148.623H205.204C205.633 148.623 205.98 148.276 205.98 147.847V147.379C205.98 146.951 205.633 146.603 205.204 146.603Z" fill="#263238"/>
<path d="M201.436 146.603H200.059C199.63 146.603 199.283 146.951 199.283 147.379V147.847C199.283 148.276 199.63 148.623 200.059 148.623H201.436C201.865 148.623 202.212 148.276 202.212 147.847V147.379C202.212 146.951 201.865 146.603 201.436 146.603Z" fill="#263238"/>
<path d="M197.669 146.603H196.291C195.863 146.603 195.515 146.951 195.515 147.379V147.847C195.515 148.276 195.863 148.623 196.291 148.623H197.669C198.097 148.623 198.445 148.276 198.445 147.847V147.379C198.445 146.951 198.097 146.603 197.669 146.603Z" fill="#263238"/>
<path d="M193.901 146.603H192.524C192.095 146.603 191.748 146.951 191.748 147.379V147.847C191.748 148.276 192.095 148.623 192.524 148.623H193.901C194.33 148.623 194.677 148.276 194.677 147.847V147.379C194.677 146.951 194.33 146.603 193.901 146.603Z" fill="#263238"/>
<path d="M190.134 146.603H188.756C188.327 146.603 187.98 146.951 187.98 147.379V147.847C187.98 148.276 188.327 148.623 188.756 148.623H190.134C190.562 148.623 190.91 148.276 190.91 147.847V147.379C190.91 146.951 190.562 146.603 190.134 146.603Z" fill="#263238"/>
<path d="M186.366 146.603H184.989C184.56 146.603 184.212 146.951 184.212 147.379V147.847C184.212 148.276 184.56 148.623 184.989 148.623H186.366C186.795 148.623 187.142 148.276 187.142 147.847V147.379C187.142 146.951 186.795 146.603 186.366 146.603Z" fill="#263238"/>
<path d="M182.598 146.603H181.221C180.792 146.603 180.445 146.951 180.445 147.379V147.847C180.445 148.276 180.792 148.623 181.221 148.623H182.598C183.027 148.623 183.375 148.276 183.375 147.847V147.379C183.375 146.951 183.027 146.603 182.598 146.603Z" fill="#263238"/>
<path d="M204.202 146.012H204.824V145.39H204.202V146.012Z" fill="#263238"/>
<path d="M181.601 146.012H182.223V145.39H181.601V146.012Z" fill="#263238"/>
<path d="M210.426 151.466H207.512V144.732H210.426V151.466ZM207.769 151.209H210.169V144.989H207.769V151.209Z" fill="white"/>
<path d="M214.595 151.466H211.675V144.732H214.595V151.466ZM211.932 151.209H214.338V144.989H211.932V151.209Z" fill="white"/>
<path d="M178.163 151.466H175.243V144.732H178.163V151.466ZM175.5 151.209H177.906V144.989H175.5V151.209Z" fill="white"/>
<path d="M127.826 144.151H84.7583V153.465H127.826V144.151Z" fill="#407BFF"/>
<path opacity="0.5" d="M127.826 144.151H84.7583V153.465H127.826V144.151Z" fill="white"/>
<path opacity="0.3" d="M127.826 145.524L84.7583 145.472V144.151L127.826 144.203V145.524Z" fill="white"/>
<path d="M127.826 151.337H84.7583V153.465H127.826V151.337Z" fill="#407BFF"/>
<path d="M88.5157 145.395H87.5391V147.611H88.5157V145.395Z" fill="#263238"/>
<path d="M92.2475 145.395H92.2012C91.7101 145.395 91.312 145.793 91.312 146.284V146.721C91.312 147.212 91.7101 147.611 92.2012 147.611H92.2475C92.7386 147.611 93.1367 147.212 93.1367 146.721V146.284C93.1367 145.793 92.7386 145.395 92.2475 145.395Z" fill="#263238"/>
<path d="M124.532 145.395H124.485C123.994 145.395 123.596 145.793 123.596 146.284V146.721C123.596 147.212 123.994 147.611 124.485 147.611H124.532C125.023 147.611 125.421 147.212 125.421 146.721V146.284C125.421 145.793 125.023 145.395 124.532 145.395Z" fill="#263238"/>
<path d="M97.3822 146.603H96.0047C95.576 146.603 95.2285 146.951 95.2285 147.379V147.847C95.2285 148.276 95.576 148.623 96.0047 148.623H97.3822C97.8108 148.623 98.1583 148.276 98.1583 147.847V147.379C98.1583 146.951 97.8108 146.603 97.3822 146.603Z" fill="#263238"/>
<path d="M101.15 146.603H99.7722C99.3436 146.603 98.9961 146.951 98.9961 147.379V147.847C98.9961 148.276 99.3436 148.623 99.7722 148.623H101.15C101.578 148.623 101.926 148.276 101.926 147.847V147.379C101.926 146.951 101.578 146.603 101.15 146.603Z" fill="#263238"/>
<path d="M104.917 146.603H103.54C103.111 146.603 102.764 146.951 102.764 147.379V147.847C102.764 148.276 103.111 148.623 103.54 148.623H104.917C105.346 148.623 105.693 148.276 105.693 147.847V147.379C105.693 146.951 105.346 146.603 104.917 146.603Z" fill="#263238"/>
<path d="M108.685 146.603H107.307C106.879 146.603 106.531 146.951 106.531 147.379V147.847C106.531 148.276 106.879 148.623 107.307 148.623H108.685C109.114 148.623 109.461 148.276 109.461 147.847V147.379C109.461 146.951 109.114 146.603 108.685 146.603Z" fill="#263238"/>
<path d="M112.453 146.603H111.075C110.647 146.603 110.299 146.951 110.299 147.379V147.847C110.299 148.276 110.647 148.623 111.075 148.623H112.453C112.882 148.623 113.229 148.276 113.229 147.847V147.379C113.229 146.951 112.882 146.603 112.453 146.603Z" fill="#263238"/>
<path d="M116.221 146.603H114.843C114.414 146.603 114.067 146.951 114.067 147.379V147.847C114.067 148.276 114.414 148.623 114.843 148.623H116.221C116.649 148.623 116.997 148.276 116.997 147.847V147.379C116.997 146.951 116.649 146.603 116.221 146.603Z" fill="#263238"/>
<path d="M119.988 146.603H118.611C118.182 146.603 117.834 146.951 117.834 147.379V147.847C117.834 148.276 118.182 148.623 118.611 148.623H119.988C120.417 148.623 120.764 148.276 120.764 147.847V147.379C120.764 146.951 120.417 146.603 119.988 146.603Z" fill="#263238"/>
<path d="M97.0072 145.395H96.3853V146.017H97.0072V145.395Z" fill="#263238"/>
<path d="M119.608 145.395H118.986V146.017H119.608V145.395Z" fill="#263238"/>
<path d="M93.7022 151.466H90.7827V144.732H93.7022V151.466ZM91.0397 151.209H93.4452V144.989H91.0397V151.209Z" fill="white"/>
<path d="M89.5333 151.466H86.6138V144.732H89.5333V151.466ZM86.8708 151.209H89.2763V144.989H86.8656L86.8708 151.209Z" fill="white"/>
<path d="M125.966 151.466H123.046V144.732H125.966V151.466ZM123.303 151.209H125.709V144.989H123.303V151.209Z" fill="white"/>
<path d="M172.051 144.151H128.983V153.465H172.051V144.151Z" fill="#407BFF"/>
<path opacity="0.5" d="M172.051 144.151H128.983V153.465H172.051V144.151Z" fill="white"/>
<path opacity="0.3" d="M172.036 145.524L128.968 145.472V144.151L172.036 144.203V145.524Z" fill="white"/>
<path d="M172.051 151.337H128.983V153.465H172.051V151.337Z" fill="#407BFF"/>
<path d="M132.74 145.395H131.764V147.611H132.74V145.395Z" fill="#263238"/>
<path d="M136.472 145.395H136.426C135.935 145.395 135.537 145.793 135.537 146.284V146.721C135.537 147.212 135.935 147.611 136.426 147.611H136.472C136.963 147.611 137.361 147.212 137.361 146.721V146.284C137.361 145.793 136.963 145.395 136.472 145.395Z" fill="#263238"/>
<path d="M168.756 145.395H168.71C168.219 145.395 167.821 145.793 167.821 146.284V146.721C167.821 147.212 168.219 147.611 168.71 147.611H168.756C169.247 147.611 169.645 147.212 169.645 146.721V146.284C169.645 145.793 169.247 145.395 168.756 145.395Z" fill="#263238"/>
<path d="M141.607 146.603H140.229C139.801 146.603 139.453 146.951 139.453 147.379V147.847C139.453 148.276 139.801 148.623 140.229 148.623H141.607C142.035 148.623 142.383 148.276 142.383 147.847V147.379C142.383 146.951 142.035 146.603 141.607 146.603Z" fill="#263238"/>
<path d="M145.374 146.603H143.997C143.568 146.603 143.221 146.951 143.221 147.379V147.847C143.221 148.276 143.568 148.623 143.997 148.623H145.374C145.803 148.623 146.15 148.276 146.15 147.847V147.379C146.15 146.951 145.803 146.603 145.374 146.603Z" fill="#263238"/>
<path d="M149.142 146.603H147.764C147.336 146.603 146.988 146.951 146.988 147.379V147.847C146.988 148.276 147.336 148.623 147.764 148.623H149.142C149.571 148.623 149.918 148.276 149.918 147.847V147.379C149.918 146.951 149.571 146.603 149.142 146.603Z" fill="#263238"/>
<path d="M152.91 146.603H151.532C151.103 146.603 150.756 146.951 150.756 147.379V147.847C150.756 148.276 151.103 148.623 151.532 148.623H152.91C153.338 148.623 153.686 148.276 153.686 147.847V147.379C153.686 146.951 153.338 146.603 152.91 146.603Z" fill="#263238"/>
<path d="M156.677 146.603H155.3C154.871 146.603 154.523 146.951 154.523 147.379V147.847C154.523 148.276 154.871 148.623 155.3 148.623H156.677C157.106 148.623 157.453 148.276 157.453 147.847V147.379C157.453 146.951 157.106 146.603 156.677 146.603Z" fill="#263238"/>
<path d="M160.445 146.603H159.068C158.639 146.603 158.292 146.951 158.292 147.379V147.847C158.292 148.276 158.639 148.623 159.068 148.623H160.445C160.874 148.623 161.221 148.276 161.221 147.847V147.379C161.221 146.951 160.874 146.603 160.445 146.603Z" fill="#263238"/>
<path d="M164.213 146.603H162.835C162.407 146.603 162.059 146.951 162.059 147.379V147.847C162.059 148.276 162.407 148.623 162.835 148.623H164.213C164.641 148.623 164.989 148.276 164.989 147.847V147.379C164.989 146.951 164.641 146.603 164.213 146.603Z" fill="#263238"/>
<path d="M141.232 145.395H140.61V146.017H141.232V145.395Z" fill="#263238"/>
<path d="M163.837 145.395H163.215V146.017H163.837V145.395Z" fill="#263238"/>
<path d="M137.926 151.466H135.007V144.732H137.926V151.466ZM135.264 151.209H137.669V144.989H135.264V151.209Z" fill="white"/>
<path d="M133.758 151.466H130.844V144.732H133.758V151.466ZM131.101 151.209H133.501V144.989H131.101V151.209Z" fill="white"/>
<path d="M170.19 151.466H167.276V144.732H170.19V151.466ZM167.533 151.209H169.933V144.989H167.533V151.209Z" fill="white"/>
<path opacity="0.2" d="M32.6543 147.677H36.0056L40.0148 145.462H36.7714L32.6543 147.677Z" fill="white"/>
<path opacity="0.2" d="M38.9814 147.677L41.243 146.212C41.243 146.212 41.4795 146.798 40.323 147.446C40.0602 147.593 39.7654 147.672 39.4646 147.677H38.9814Z" fill="white"/>
<path opacity="0.2" d="M224.376 147.677H221.025L217.016 145.462H220.259L224.376 147.677Z" fill="white"/>
<path opacity="0.2" d="M218.049 147.677L215.787 146.212C215.787 146.212 215.551 146.798 216.708 147.446C216.97 147.593 217.265 147.672 217.566 147.677H218.049Z" fill="white"/>
<path opacity="0.2" d="M44.3067 145.395L43.3301 147.611V145.395H44.3067Z" fill="white"/>
<path opacity="0.2" d="M51.7954 148.623L52.7926 146.598L53.322 146.613L52.3814 148.623H51.7954Z" fill="white"/>
<path opacity="0.2" d="M52.0732 146.603L51.1635 148.289C51.0689 148.161 51.0184 148.006 51.0195 147.847V147.379C51.0189 147.277 51.0385 147.176 51.0772 147.081C51.116 146.987 51.1731 146.901 51.2454 146.829C51.3176 146.757 51.4034 146.7 51.4979 146.661C51.5923 146.622 51.6936 146.602 51.7957 146.603H52.0732Z" fill="white"/>
<path opacity="0.2" d="M48.146 145.462L47.2362 147.148C47.1417 147.02 47.0912 146.865 47.0923 146.706V146.238C47.0916 146.136 47.1112 146.035 47.15 145.94C47.1888 145.846 47.2459 145.76 47.3181 145.688C47.3903 145.616 47.4761 145.558 47.5706 145.52C47.6651 145.481 47.7663 145.461 47.8684 145.462H48.146Z" fill="white"/>
<path opacity="0.2" d="M80.4307 145.462L79.5209 147.148C79.4264 147.02 79.3759 146.865 79.377 146.706V146.238C79.3763 146.136 79.3959 146.035 79.4347 145.94C79.4734 145.846 79.5306 145.76 79.6028 145.688C79.675 145.616 79.7608 145.558 79.8553 145.52C79.9498 145.481 80.051 145.461 80.1531 145.462H80.4307Z" fill="white"/>
<path opacity="0.2" d="M55.563 148.623L56.5601 146.598L57.0896 146.613L56.1438 148.623H55.563Z" fill="white"/>
<path opacity="0.2" d="M55.8408 146.603L54.9311 148.289C54.8365 148.161 54.786 148.006 54.7871 147.847V147.379C54.7864 147.277 54.8061 147.176 54.8448 147.081C54.8836 146.987 54.9407 146.901 55.0129 146.829C55.0851 146.757 55.171 146.7 55.2654 146.661C55.3599 146.622 55.4612 146.602 55.5633 146.603H55.8408Z" fill="white"/>
<path opacity="0.2" d="M59.3257 148.623L60.328 146.598L60.8574 146.613L59.9116 148.623H59.3257Z" fill="white"/>
<path opacity="0.2" d="M59.624 146.603L58.7143 148.289C58.6197 148.161 58.5692 148.006 58.5703 147.847V147.379C58.5696 147.277 58.5893 147.176 58.628 147.081C58.6668 146.987 58.7239 146.901 58.7961 146.829C58.8683 146.757 58.9542 146.7 59.0486 146.661C59.1431 146.622 59.2443 146.602 59.3465 146.603H59.624Z" fill="white"/>
<path opacity="0.2" d="M63.0933 148.623L64.0956 146.598L64.625 146.613L63.6792 148.623H63.0933Z" fill="white"/>
<path opacity="0.2" d="M63.376 146.603L62.4662 148.289C62.3717 148.161 62.3212 148.006 62.3223 147.847V147.379C62.3216 147.277 62.3412 147.176 62.38 147.081C62.4187 146.987 62.4759 146.901 62.5481 146.829C62.6203 146.757 62.7061 146.7 62.8006 146.661C62.8951 146.622 62.9963 146.602 63.0984 146.603H63.376Z" fill="white"/>
<path opacity="0.2" d="M66.8608 148.623L67.8631 146.598L68.3926 146.613L67.4468 148.623H66.8608Z" fill="white"/>
<path opacity="0.2" d="M67.1437 146.603L66.2339 148.289C66.1373 148.162 66.0866 148.006 66.09 147.847V147.379C66.0893 147.277 66.1089 147.176 66.1477 147.081C66.1865 146.987 66.2436 146.901 66.3158 146.829C66.388 146.757 66.4739 146.7 66.5683 146.661C66.6628 146.622 66.764 146.602 66.8661 146.603H67.1437Z" fill="white"/>
<path opacity="0.2" d="M70.5361 148.623L71.5384 146.598L72.0679 146.613L71.1221 148.623H70.5361Z" fill="white"/>
<path opacity="0.2" d="M70.8135 146.603L69.9037 148.289C69.8092 148.161 69.7587 148.006 69.7598 147.847V147.379C69.7591 147.277 69.7787 147.176 69.8175 147.081C69.8562 146.987 69.9134 146.901 69.9856 146.829C70.0578 146.757 70.1436 146.7 70.2381 146.661C70.3326 146.622 70.4338 146.602 70.5359 146.603H70.8135Z" fill="white"/>
<path opacity="0.2" d="M74.4014 148.623L75.3985 146.598L75.9279 146.613L74.9822 148.623H74.4014Z" fill="white"/>
<path opacity="0.2" d="M74.6787 146.603L73.7689 148.289C73.6744 148.161 73.6239 148.006 73.625 147.847V147.379C73.6243 147.277 73.6439 147.176 73.6827 147.081C73.7215 146.987 73.7786 146.901 73.8508 146.829C73.923 146.757 74.0089 146.7 74.1033 146.661C74.1978 146.622 74.299 146.602 74.4011 146.603H74.6787Z" fill="white"/>
<path opacity="0.2" d="M88.459 145.4L87.4824 147.621V145.4H88.459Z" fill="white"/>
<path opacity="0.2" d="M95.9482 148.633L96.9505 146.608L97.4748 146.624L96.5342 148.633H95.9482Z" fill="white"/>
<path opacity="0.2" d="M96.2256 146.613L95.3158 148.299C95.2213 148.171 95.1708 148.016 95.1719 147.857V147.39C95.1712 147.287 95.1908 147.186 95.2296 147.092C95.2683 146.997 95.3255 146.911 95.3977 146.839C95.4699 146.767 95.5557 146.71 95.6502 146.671C95.7447 146.632 95.8459 146.613 95.948 146.613H96.2256Z" fill="white"/>
<path opacity="0.2" d="M92.2988 145.462L91.3891 147.148C91.2945 147.02 91.244 146.865 91.2451 146.706V146.238C91.2438 146.035 91.323 145.839 91.4655 145.693C91.608 145.548 91.8023 145.465 92.0058 145.462H92.2988Z" fill="white"/>
<path opacity="0.2" d="M124.583 145.462L123.673 147.148C123.579 147.02 123.528 146.865 123.529 146.706V146.238C123.529 146.136 123.548 146.035 123.587 145.94C123.626 145.846 123.683 145.76 123.755 145.688C123.827 145.616 123.913 145.558 124.008 145.52C124.102 145.481 124.203 145.461 124.305 145.462H124.583Z" fill="white"/>
<path opacity="0.2" d="M99.7158 148.633L100.713 146.608L101.242 146.624L100.297 148.633H99.7158Z" fill="white"/>
<path opacity="0.2" d="M99.9932 146.613L99.0834 148.299C98.9889 148.171 98.9384 148.016 98.9395 147.857V147.39C98.9388 147.287 98.9584 147.186 98.9972 147.092C99.0359 146.997 99.0931 146.911 99.1653 146.839C99.2375 146.767 99.3233 146.71 99.4178 146.671C99.5123 146.632 99.6135 146.613 99.7156 146.613H99.9932Z" fill="white"/>
<path opacity="0.2" d="M103.483 148.633L104.481 146.608L105.01 146.624L104.064 148.633H103.483Z" fill="white"/>
<path opacity="0.2" d="M103.761 146.613L102.851 148.299C102.757 148.171 102.706 148.016 102.708 147.857V147.39C102.707 147.287 102.726 147.186 102.765 147.092C102.804 146.997 102.861 146.911 102.933 146.839C103.006 146.767 103.091 146.71 103.186 146.671C103.28 146.632 103.382 146.613 103.484 146.613H103.761Z" fill="white"/>
<path opacity="0.2" d="M107.251 148.633L108.248 146.608L108.778 146.624L107.832 148.633H107.251Z" fill="white"/>
<path opacity="0.2" d="M107.529 146.613L106.619 148.299C106.525 148.171 106.474 148.016 106.475 147.857V147.39C106.474 147.287 106.494 147.186 106.533 147.092C106.572 146.997 106.629 146.911 106.701 146.839C106.773 146.767 106.859 146.71 106.953 146.671C107.048 146.632 107.149 146.613 107.251 146.613H107.529Z" fill="white"/>
<path opacity="0.2" d="M111.019 148.633L112.016 146.608L112.545 146.624L111.599 148.633H111.019Z" fill="white"/>
<path opacity="0.2" d="M111.296 146.613L110.387 148.299C110.292 148.171 110.242 148.016 110.243 147.857V147.39C110.242 147.287 110.262 147.186 110.3 147.092C110.339 146.997 110.396 146.911 110.469 146.839C110.541 146.767 110.627 146.71 110.721 146.671C110.815 146.632 110.917 146.613 111.019 146.613H111.296Z" fill="white"/>
<path opacity="0.2" d="M114.688 148.633L115.691 146.608L116.22 146.624L115.274 148.633H114.688Z" fill="white"/>
<path opacity="0.2" d="M114.971 146.613L114.061 148.299C113.967 148.171 113.916 148.016 113.917 147.857V147.39C113.917 147.287 113.936 147.186 113.975 147.092C114.014 146.997 114.071 146.911 114.143 146.839C114.216 146.767 114.301 146.71 114.396 146.671C114.49 146.632 114.592 146.613 114.694 146.613H114.971Z" fill="white"/>
<path opacity="0.2" d="M118.554 148.633L119.551 146.608L120.08 146.624L119.14 148.633H118.554Z" fill="white"/>
<path opacity="0.2" d="M118.832 146.613L117.922 148.299C117.827 148.171 117.777 148.016 117.778 147.857V147.39C117.777 147.287 117.797 147.186 117.836 147.092C117.874 146.997 117.931 146.911 118.004 146.839C118.076 146.767 118.162 146.71 118.256 146.671C118.351 146.632 118.452 146.613 118.554 146.613H118.832Z" fill="white"/>
<path opacity="0.2" d="M132.735 145.4L131.764 147.621V145.4H132.735Z" fill="white"/>
<path opacity="0.2" d="M140.224 148.633L141.226 146.608L141.756 146.624L140.81 148.633H140.224Z" fill="white"/>
<path opacity="0.2" d="M140.507 146.613L139.597 148.299C139.503 148.171 139.452 148.016 139.453 147.857V147.39C139.452 147.287 139.472 147.186 139.511 147.092C139.55 146.997 139.607 146.911 139.679 146.839C139.751 146.767 139.837 146.71 139.931 146.671C140.026 146.632 140.127 146.613 140.229 146.613H140.507Z" fill="white"/>
<path opacity="0.2" d="M136.58 145.462L135.696 147.158C135.601 147.03 135.551 146.875 135.552 146.716V146.248C135.551 146.146 135.571 146.045 135.609 145.951C135.648 145.856 135.705 145.77 135.778 145.698C135.85 145.626 135.936 145.569 136.03 145.53C136.125 145.491 136.226 145.472 136.328 145.472L136.58 145.462Z" fill="white"/>
<path opacity="0.2" d="M168.859 145.462L167.949 147.148C167.855 147.02 167.804 146.865 167.805 146.706V146.238C167.804 146.135 167.824 146.033 167.864 145.938C167.903 145.843 167.961 145.756 168.035 145.684C168.108 145.612 168.195 145.555 168.291 145.517C168.386 145.479 168.489 145.46 168.592 145.462H168.859Z" fill="white"/>
<path opacity="0.2" d="M143.992 148.633L144.994 146.608L145.523 146.624L144.578 148.633H143.992Z" fill="white"/>
<path opacity="0.2" d="M144.27 146.613L143.36 148.299C143.265 148.171 143.215 148.016 143.216 147.857V147.39C143.215 147.287 143.235 147.186 143.274 147.092C143.312 146.997 143.369 146.911 143.442 146.839C143.514 146.767 143.6 146.71 143.694 146.671C143.789 146.632 143.89 146.613 143.992 146.613H144.27Z" fill="white"/>
<path opacity="0.2" d="M147.759 148.633L148.762 146.608L149.291 146.624L148.345 148.633H147.759Z" fill="white"/>
<path opacity="0.2" d="M148.032 146.613L147.122 148.299C147.027 148.171 146.977 148.016 146.978 147.857V147.39C146.977 147.287 146.997 147.186 147.036 147.092C147.074 146.997 147.132 146.911 147.204 146.839C147.276 146.767 147.362 146.71 147.456 146.671C147.551 146.632 147.652 146.613 147.754 146.613H148.032Z" fill="white"/>
<path opacity="0.2" d="M151.527 148.633L152.529 146.608L153.053 146.624L152.113 148.633H151.527Z" fill="white"/>
<path opacity="0.2" d="M151.805 146.613L150.895 148.299C150.8 148.171 150.75 148.016 150.751 147.857V147.39C150.75 147.287 150.77 147.186 150.809 147.092C150.847 146.997 150.905 146.911 150.977 146.839C151.049 146.767 151.135 146.71 151.229 146.671C151.324 146.632 151.425 146.613 151.527 146.613H151.805Z" fill="white"/>
<path opacity="0.2" d="M155.294 148.633L156.292 146.608L156.821 146.624L155.88 148.633H155.294Z" fill="white"/>
<path opacity="0.2" d="M155.572 146.613L154.662 148.299C154.568 148.171 154.517 148.016 154.519 147.857V147.39C154.518 147.287 154.538 147.186 154.576 147.092C154.615 146.997 154.672 146.911 154.744 146.839C154.817 146.767 154.902 146.71 154.997 146.671C155.091 146.632 155.193 146.613 155.295 146.613H155.572Z" fill="white"/>
<path opacity="0.2" d="M158.97 148.633L159.967 146.608L160.496 146.624L159.556 148.633H158.97Z" fill="white"/>
<path opacity="0.2" d="M159.247 146.613L158.337 148.299C158.243 148.171 158.192 148.016 158.193 147.857V147.39C158.193 147.287 158.212 147.186 158.251 147.092C158.29 146.997 158.347 146.911 158.419 146.839C158.491 146.767 158.577 146.71 158.672 146.671C158.766 146.632 158.867 146.613 158.97 146.613H159.247Z" fill="white"/>
<path opacity="0.2" d="M162.83 148.633L163.832 146.608L164.362 146.624L163.416 148.633H162.83Z" fill="white"/>
<path opacity="0.2" d="M163.113 146.613L162.203 148.299C162.108 148.171 162.058 148.016 162.059 147.857V147.39C162.058 147.287 162.078 147.186 162.117 147.092C162.156 146.997 162.213 146.911 162.285 146.839C162.357 146.767 162.443 146.71 162.537 146.671C162.632 146.632 162.733 146.613 162.835 146.613H163.113Z" fill="white"/>
<path opacity="0.2" d="M213.644 145.385L212.667 147.6V145.385H213.644Z" fill="white"/>
<path opacity="0.2" d="M181.247 148.613L182.249 146.593L182.778 146.608L181.833 148.613H181.247Z" fill="white"/>
<path opacity="0.2" d="M181.524 146.593L180.614 148.279C180.52 148.151 180.469 147.996 180.47 147.837V147.369C180.47 147.267 180.489 147.166 180.528 147.071C180.567 146.977 180.624 146.891 180.696 146.819C180.768 146.746 180.854 146.689 180.949 146.65C181.043 146.612 181.144 146.592 181.246 146.593H181.524Z" fill="white"/>
<path opacity="0.2" d="M176.98 145.462L176.071 147.148C175.976 147.02 175.926 146.865 175.927 146.706V146.238C175.926 146.136 175.946 146.035 175.984 145.94C176.023 145.846 176.08 145.76 176.153 145.688C176.225 145.616 176.311 145.558 176.405 145.52C176.5 145.481 176.601 145.461 176.703 145.462H176.98Z" fill="white"/>
<path opacity="0.2" d="M209.162 145.462L208.252 147.148C208.157 147.02 208.107 146.865 208.108 146.706V146.238C208.107 146.136 208.127 146.035 208.166 145.94C208.204 145.846 208.262 145.76 208.334 145.688C208.406 145.616 208.492 145.558 208.586 145.52C208.681 145.481 208.782 145.461 208.884 145.462H209.162Z" fill="white"/>
<path opacity="0.2" d="M185.014 148.613L186.011 146.593L186.541 146.608L185.6 148.613H185.014Z" fill="white"/>
<path opacity="0.2" d="M185.292 146.593L184.382 148.279C184.287 148.151 184.237 147.996 184.238 147.837V147.369C184.237 147.265 184.257 147.161 184.298 147.065C184.338 146.969 184.398 146.882 184.473 146.809C184.548 146.737 184.636 146.68 184.734 146.643C184.831 146.606 184.935 146.589 185.04 146.593H185.292Z" fill="white"/>
<path opacity="0.2" d="M188.782 148.613L189.779 146.593L190.308 146.608L189.368 148.613H188.782Z" fill="white"/>
<path opacity="0.2" d="M189.059 146.593L188.149 148.279C188.055 148.151 188.004 147.996 188.005 147.837V147.369C188.005 147.267 188.024 147.166 188.063 147.071C188.102 146.977 188.159 146.891 188.231 146.819C188.303 146.746 188.389 146.689 188.484 146.65C188.578 146.612 188.679 146.592 188.782 146.593H189.059Z" fill="white"/>
<path opacity="0.2" d="M192.549 148.613L193.546 146.593L194.076 146.608L193.13 148.613H192.549Z" fill="white"/>
<path opacity="0.2" d="M192.827 146.593L191.917 148.279C191.823 148.151 191.772 147.996 191.773 147.837V147.369C191.773 147.267 191.792 147.166 191.831 147.071C191.87 146.977 191.927 146.891 191.999 146.819C192.071 146.746 192.157 146.689 192.252 146.65C192.346 146.612 192.447 146.592 192.55 146.593H192.827Z" fill="white"/>
<path opacity="0.2" d="M196.317 148.613L197.314 146.593L197.843 146.608L196.898 148.613H196.317Z" fill="white"/>
<path opacity="0.2" d="M196.595 146.593L195.685 148.279C195.59 148.151 195.54 147.996 195.541 147.837V147.369C195.54 147.267 195.56 147.166 195.599 147.071C195.637 146.977 195.695 146.891 195.767 146.819C195.839 146.746 195.925 146.689 196.019 146.65C196.114 146.612 196.215 146.592 196.317 146.593H196.595Z" fill="white"/>
<path opacity="0.2" d="M199.987 148.613L200.989 146.593L201.519 146.608L200.573 148.613H199.987Z" fill="white"/>
<path opacity="0.2" d="M200.27 146.593L199.36 148.279C199.265 148.151 199.215 147.996 199.216 147.837V147.369C199.215 147.267 199.235 147.166 199.274 147.071C199.312 146.977 199.369 146.891 199.442 146.819C199.514 146.746 199.6 146.689 199.694 146.65C199.789 146.612 199.89 146.592 199.992 146.593H200.27Z" fill="white"/>
<path opacity="0.2" d="M203.852 148.613L204.854 146.593L205.379 146.608L204.438 148.613H203.852Z" fill="white"/>
<path opacity="0.2" d="M204.13 146.593L203.22 148.279C203.126 148.151 203.075 147.996 203.076 147.837V147.369C203.076 147.267 203.095 147.166 203.134 147.071C203.173 146.977 203.23 146.891 203.302 146.819C203.374 146.746 203.46 146.689 203.555 146.65C203.649 146.612 203.75 146.592 203.852 146.593H204.13Z" fill="white"/>
<path d="M47.3598 148.551H47.0977V149.358H47.3598V148.551Z" fill="#263238"/>
<path d="M79.5155 148.551H79.2534V149.358H79.5155V148.551Z" fill="#263238"/>
<path d="M91.5844 148.551H91.3223V149.358H91.5844V148.551Z" fill="#263238"/>
<path d="M123.735 148.551H123.473V149.358H123.735V148.551Z" fill="#263238"/>
<path d="M135.86 148.551H135.598V149.358H135.86V148.551Z" fill="#263238"/>
<path d="M168.016 148.551H167.754V149.358H168.016V148.551Z" fill="#263238"/>
<path d="M176.071 148.551H175.809V149.358H176.071V148.551Z" fill="#263238"/>
<path d="M208.226 148.551H207.964V149.358H208.226V148.551Z" fill="#263238"/>
<path opacity="0.3" d="M173.218 144.11V145.411H220.722L220.645 145.38C218.669 144.633 216.587 144.204 214.477 144.11H173.218Z" fill="white"/>
<path d="M235.042 153.994H22.1685V158.548H235.042V153.994Z" fill="#263238"/>
<path d="M80.9958 158.543V196.554H73.5016V180.712C73.5016 168.988 64.3319 159.124 52.6127 158.692C52.2683 158.692 51.9291 158.692 51.5847 158.692C51.2403 158.692 50.8908 158.692 50.5567 158.692C38.8375 159.114 29.6677 168.972 29.6677 180.717V196.554H22.1685V158.543H23.4894V156.102H76.4314V158.543H80.9958Z" fill="#263238"/>
<path opacity="0.5" d="M80.9958 158.543V196.554H73.5016V180.712C73.5016 168.988 64.3319 159.124 52.6127 158.692C52.2683 158.692 51.9291 158.692 51.5847 158.692C51.2403 158.692 50.8908 158.692 50.5567 158.692C38.8375 159.114 29.6677 168.972 29.6677 180.717V196.554H22.1685V158.543H23.4894V156.102H76.4314V158.543H80.9958Z" fill="white"/>
<path d="M132.277 158.543V196.554H124.789V180.712C124.789 168.988 115.619 159.124 103.894 158.692C103.555 158.692 103.216 158.692 102.866 158.692C102.517 158.692 102.167 158.692 101.838 158.692C90.1192 159.114 80.9546 168.972 80.9546 180.717V196.554H73.4502V158.543H78.0762V156.102H127.703V158.543H132.277Z" fill="#263238"/>
<path opacity="0.5" d="M132.277 158.543V196.554H124.789V180.712C124.789 168.988 115.619 159.124 103.894 158.692C103.555 158.692 103.216 158.692 102.866 158.692C102.517 158.692 102.167 158.692 101.838 158.692C90.1192 159.114 80.9546 168.972 80.9546 180.717V196.554H73.4502V158.543H78.0762V156.102H127.703V158.543H132.277Z" fill="white"/>
<path d="M183.667 158.543V196.554H176.178V180.712C176.178 168.988 167.008 159.124 155.284 158.692C154.945 158.692 154.606 158.692 154.256 158.692C153.907 158.692 153.557 158.692 153.228 158.692C141.509 159.114 132.344 168.972 132.344 180.717V196.554H124.84V158.543H129.466V156.102H179.077V158.543H183.667Z" fill="#263238"/>
<path opacity="0.5" d="M183.667 158.543V196.554H176.178V180.712C176.178 168.988 167.008 159.124 155.284 158.692C154.945 158.692 154.606 158.692 154.256 158.692C153.907 158.692 153.557 158.692 153.228 158.692C141.509 159.114 132.344 168.972 132.344 180.717V196.554H124.84V158.543H129.466V156.102H179.077V158.543H183.667Z" fill="white"/>
<path d="M235.001 158.543V196.554H227.512V180.712C227.512 168.988 218.342 159.124 206.618 158.692C206.278 158.692 205.939 158.692 205.59 158.692C205.24 158.692 204.891 158.692 204.562 158.692C192.842 159.114 183.678 168.972 183.678 180.717V196.554H176.173V158.543H180.799V156.102H233.793V158.543H235.001Z" fill="#263238"/>
<path opacity="0.5" d="M235.001 158.543V196.554H227.512V180.712C227.512 168.988 218.342 159.124 206.618 158.692C206.278 158.692 205.939 158.692 205.59 158.692C205.24 158.692 204.891 158.692 204.562 158.692C192.842 159.114 183.678 168.972 183.678 180.717V196.554H176.173V158.543H180.799V156.102H233.793V158.543H235.001Z" fill="white"/>
<path opacity="0.2" d="M76.4163 156.102H23.4897V157.325H76.4163V156.102Z" fill="black"/>
<path opacity="0.2" d="M127.806 156.102H77.9272V157.325H127.806V156.102Z" fill="black"/>
<path opacity="0.2" d="M179.093 156.102H129.271V157.325H179.093V156.102Z" fill="black"/>
<path opacity="0.2" d="M233.798 156.102H180.65V157.325H233.798V156.102Z" fill="black"/>
<path d="M81.7154 175.14H72.7358V179.17H81.7154V175.14Z" fill="#263238"/>
<path opacity="0.6" d="M81.7154 175.14H72.7358V179.17H81.7154V175.14Z" fill="white"/>
<path d="M30.5211 175.14H21.5415V179.17H30.5211V175.14Z" fill="#263238"/>
<path opacity="0.6" d="M30.5211 175.14H21.5415V179.17H30.5211V175.14Z" fill="white"/>
<path d="M184.341 175.14H175.361V179.17H184.341V175.14Z" fill="#263238"/>
<path opacity="0.6" d="M184.341 175.14H175.361V179.17H184.341V175.14Z" fill="white"/>
<path d="M235.438 175.14H226.458V179.17H235.438V175.14Z" fill="#263238"/>
<path opacity="0.6" d="M235.438 175.14H226.458V179.17H235.438V175.14Z" fill="white"/>
<path d="M132.941 175.14H123.961V179.17H132.941V175.14Z" fill="#263238"/>
<path opacity="0.6" d="M132.941 175.14H123.961V179.17H132.941V175.14Z" fill="white"/>
<g opacity="0.2">
<path opacity="0.2" d="M75.4803 165.117H72.2421C71.5097 165.117 70.916 165.711 70.916 166.443V166.731C70.916 167.464 71.5097 168.057 72.2421 168.057H75.4803C76.2127 168.057 76.8064 167.464 76.8064 166.731V166.443C76.8064 165.711 76.2127 165.117 75.4803 165.117Z" fill="black"/>
<path opacity="0.2" d="M82.2089 165.117H78.9707C78.2383 165.117 77.6445 165.711 77.6445 166.443V166.731C77.6445 167.464 78.2383 168.057 78.9707 168.057H82.2089C82.9413 168.057 83.535 167.464 83.535 166.731V166.443C83.535 165.711 82.9413 165.117 82.2089 165.117Z" fill="black"/>
<path opacity="0.2" d="M78.4718 168.983H75.979C75.2466 168.983 74.6528 169.576 74.6528 170.309V170.597C74.6528 171.329 75.2466 171.923 75.979 171.923H78.4718C79.2042 171.923 79.798 171.329 79.798 170.597V170.309C79.798 169.576 79.2042 168.983 78.4718 168.983Z" fill="black"/>
<path opacity="0.2" d="M133.732 163.647H130.494C129.762 163.647 129.168 164.241 129.168 164.973V165.261C129.168 165.994 129.762 166.587 130.494 166.587H133.732C134.465 166.587 135.058 165.994 135.058 165.261V164.973C135.058 164.241 134.465 163.647 133.732 163.647Z" fill="black"/>
<path opacity="0.2" d="M129.995 167.507H127.502C126.77 167.507 126.176 168.101 126.176 168.834V169.121C126.176 169.854 126.77 170.448 127.502 170.448H129.995C130.728 170.448 131.321 169.854 131.321 169.121V168.834C131.321 168.101 130.728 167.507 129.995 167.507Z" fill="black"/>
<path opacity="0.2" d="M178.1 163.647H174.862C174.13 163.647 173.536 164.241 173.536 164.973V165.261C173.536 165.994 174.13 166.587 174.862 166.587H178.1C178.833 166.587 179.427 165.994 179.427 165.261V164.973C179.427 164.241 178.833 163.647 178.1 163.647Z" fill="black"/>
<path opacity="0.2" d="M184.834 163.647H181.596C180.863 163.647 180.27 164.241 180.27 164.973V165.261C180.27 165.994 180.863 166.587 181.596 166.587H184.834C185.566 166.587 186.16 165.994 186.16 165.261V164.973C186.16 164.241 185.566 163.647 184.834 163.647Z" fill="black"/>
<path opacity="0.2" d="M181.097 167.507H178.604C177.872 167.507 177.278 168.101 177.278 168.834V169.121C177.278 169.854 177.872 170.448 178.604 170.448H181.097C181.83 170.448 182.423 169.854 182.423 169.121V168.834C182.423 168.101 181.83 167.507 181.097 167.507Z" fill="black"/>
<path opacity="0.2" d="M229.357 163.647H226.119C225.386 163.647 224.792 164.241 224.792 164.973V165.261C224.792 165.994 225.386 166.587 226.119 166.587H229.357C230.089 166.587 230.683 165.994 230.683 165.261V164.973C230.683 164.241 230.089 163.647 229.357 163.647Z" fill="black"/>
<path opacity="0.2" d="M232.353 167.507H229.86C229.128 167.507 228.534 168.101 228.534 168.834V169.121C228.534 169.854 229.128 170.448 229.86 170.448H232.353C233.086 170.448 233.679 169.854 233.679 169.121V168.834C233.679 168.101 233.086 167.507 232.353 167.507Z" fill="black"/>
<path opacity="0.2" d="M27.4577 166.587H30.6959C31.4282 166.587 32.022 165.994 32.022 165.261V164.973C32.022 164.241 31.4282 163.647 30.6959 163.647H27.4577C26.7253 163.647 26.1315 164.241 26.1315 164.973V165.261C26.1315 165.994 26.7253 166.587 27.4577 166.587Z" fill="black"/>
<path opacity="0.2" d="M24.4608 170.453H26.9537C27.6861 170.453 28.2798 169.859 28.2798 169.127V168.839C28.2798 168.106 27.6861 167.513 26.9537 167.513H24.4608C23.7284 167.513 23.1346 168.106 23.1346 168.839V169.127C23.1346 169.859 23.7284 170.453 24.4608 170.453Z" fill="black"/>
</g>
<path d="M130.119 133.537H126.973V154.072H130.119V133.537Z" fill="#263238"/>
<path opacity="0.1" d="M130.119 133.537H126.973V154.072H130.119V133.537Z" fill="white"/>
</svg>
